<svg width="139" height="139" viewBox="0 0 139 139" fill="none" xmlns="http://www.w3.org/2000/svg">
<mask id="mask0_212_77" style="mask-type:luminance" maskUnits="userSpaceOnUse" x="8" y="9" width="123" height="125">
<path fill-rule="evenodd" clip-rule="evenodd" d="M41.7002 119.514V125.182C41.7002 126.739 40.8019 128.15 39.4001 128.764L33.6248 131.312C33.0671 131.555 32.7512 132.164 32.8795 132.768C33.0078 133.367 33.5262 133.803 34.1185 133.803H72.0275C72.6348 133.803 73.1382 133.367 73.2665 132.763C73.3948 132.159 73.0789 131.55 72.5212 131.307L66.7459 128.764C65.3441 128.15 64.4458 126.739 64.4458 125.182V119.514C64.4458 118.798 63.8782 118.214 63.1822 118.214C62.4861 118.214 61.9185 118.798 61.9185 119.514V125.182C61.9185 127.78 63.424 130.129 65.7489 131.154L65.8773 131.21H40.2735L40.4018 131.154C42.7216 130.129 44.227 127.78 44.227 125.182V119.514C44.227 118.798 43.6595 118.214 42.9634 118.214C42.2676 118.214 41.7002 118.798 41.7002 119.514ZM49.2822 119.514V122.112C49.2822 124.263 50.9752 126.009 53.073 126.009C55.1708 126.009 56.8639 124.263 56.8639 122.112V119.514C56.8639 118.798 56.2963 118.214 55.6002 118.214C54.9042 118.214 54.3366 118.798 54.3366 119.514V122.112C54.3366 122.827 53.7691 123.411 53.073 123.411C52.3769 123.411 51.8094 122.827 51.8094 122.112V119.514C51.8094 118.798 51.2416 118.214 50.5458 118.214C49.8497 118.214 49.2822 118.798 49.2822 119.514ZM11.373 106.523H90.9822C91.678 106.523 92.2458 105.939 92.2458 105.224C92.2458 104.508 91.678 103.925 90.9822 103.925H11.373V58.4573C11.373 56.3058 13.066 54.5601 15.1639 54.5601H53.073C53.7691 54.5601 54.3366 53.9766 54.3366 53.261C54.3366 52.5457 53.7691 51.9621 53.073 51.9621H15.1639C11.6741 51.9621 8.8457 54.8698 8.8457 58.4573V110.42C8.8457 114.008 11.6741 116.915 15.1639 116.915H90.9822C94.4719 116.915 97.3002 114.008 97.3002 110.42V71.448C97.3002 70.7325 96.7327 70.1489 96.0366 70.1489C95.3405 70.1489 94.773 70.7325 94.773 71.448V110.42C94.773 112.571 93.08 114.317 90.9822 114.317H15.1639C13.066 114.317 11.373 112.571 11.373 110.42V106.523ZM73.2911 72.7471C73.2911 72.0316 72.7235 71.448 72.0275 71.448H64.4458C63.7497 71.448 63.1822 72.0316 63.1822 72.7471V100.027C63.1822 100.743 63.7497 101.327 64.4458 101.327H72.0275C72.7235 101.327 73.2911 100.743 73.2911 100.027V72.7471ZM77.0822 72.7471V100.027C77.0822 100.743 77.6497 101.327 78.3458 101.327H85.9275C86.6235 101.327 87.1911 100.743 87.1911 100.027V74.0462C87.1911 73.3307 86.6235 72.7471 85.9275 72.7471C85.2316 72.7471 84.6639 73.3307 84.6639 74.0462V98.7283H79.6094V72.7471C79.6094 72.0316 79.0416 71.448 78.3458 71.448C77.6497 71.448 77.0822 72.0316 77.0822 72.7471ZM59.3911 81.8405C59.3911 81.125 58.8235 80.5414 58.1275 80.5414H50.5458C49.8497 80.5414 49.2822 81.125 49.2822 81.8405V100.027C49.2822 100.743 49.8497 101.327 50.5458 101.327H58.1275C58.8235 101.327 59.3911 100.743 59.3911 100.027V81.8405ZM31.5911 77.9434C31.5911 77.2278 31.0235 76.6442 30.3275 76.6442H22.7458C22.0497 76.6442 21.4822 77.2278 21.4822 77.9434V100.027C21.4822 100.743 22.0497 101.327 22.7458 101.327H30.3275C31.0235 101.327 31.5911 100.743 31.5911 100.027V77.9434ZM45.4911 89.635C45.4911 88.9194 44.9235 88.3359 44.2275 88.3359H36.6458C35.9497 88.3359 35.3822 88.9194 35.3822 89.635V100.027C35.3822 100.743 35.9497 101.327 36.6458 101.327H44.2275C44.9235 101.327 45.4911 100.743 45.4911 100.027V89.635ZM29.0639 79.2425V98.7283H24.0094V79.2425H29.0639ZM56.8639 83.1396V98.7283H51.8094V83.1396H56.8639ZM70.7639 74.0462V98.7283H65.7094V74.0462H70.7639ZM42.9639 90.9341V98.7283H37.9094V90.9341H42.9639ZM62.1598 60.2643L55.97 66.6328C55.4715 66.3893 54.9187 66.2522 54.3362 66.2522C52.2381 66.2522 50.5451 67.9978 50.5451 70.1493C50.5451 70.6112 50.6193 71.0577 50.7722 71.4687L42.4055 78.5071C41.8281 78.1519 41.1569 77.9438 40.4362 77.9438C39.9031 77.9438 39.4144 78.0554 38.9553 78.2534L29.8827 68.0842C30.1641 67.5361 30.327 66.9119 30.327 66.2522C30.327 64.1007 28.634 62.355 26.536 62.355C24.4381 62.355 22.7451 64.1007 22.7451 66.2522C22.7451 68.4037 24.4381 70.1493 26.536 70.1493C27.0691 70.1493 27.5577 70.0377 28.0169 69.8399L37.0895 80.0091C36.8081 80.5572 36.6451 81.1812 36.6451 81.8409C36.6451 83.9924 38.3381 85.7383 40.4362 85.7383C42.534 85.7383 44.227 83.9924 44.227 81.8409C44.227 81.3792 44.1531 80.9327 43.9999 80.5217L52.3667 73.4834C52.9441 73.8386 53.6155 74.0467 54.3362 74.0467C56.434 74.0467 58.127 72.3008 58.127 70.1493C58.127 69.5456 57.9889 68.9772 57.7618 68.4698L63.9516 62.1012C69.2331 67.0997 76.2869 70.1493 84.0319 70.1493C90.8536 70.1493 97.1625 67.7745 102.177 63.7861L106.357 68.0942C106.081 68.693 105.824 69.3224 105.612 69.997C105.459 70.459 105.587 70.9713 105.913 71.3165L120.849 86.661C121.18 87.0111 121.684 87.133 122.138 86.9707C124.122 86.2804 125.776 85.2605 127.103 83.9056C128.416 82.5455 129.413 80.8457 130.085 78.8056C130.238 78.3388 130.124 77.8213 129.784 77.4763L114.853 62.1264C114.522 61.7815 114.033 61.6596 113.574 61.8067C112.918 62.0251 112.296 62.2838 111.728 62.5781L107.537 58.2699C111.417 53.1141 113.727 46.6442 113.727 39.6217C113.727 22.7743 100.42 9.09375 84.0317 9.09375C67.6436 9.09375 54.3362 22.7743 54.3362 39.6217C54.3362 47.5785 57.3076 54.8292 62.1598 60.2643ZM113.638 64.5423L127.424 78.7149C126.906 80.0243 126.21 81.1406 125.312 82.059C124.413 82.9775 123.327 83.693 122.063 84.2259L108.277 70.0531C108.781 68.7388 109.491 67.6326 110.39 66.7141C111.288 65.7956 112.359 65.0649 113.638 64.5423ZM40.4353 80.5414C41.1314 80.5414 41.699 81.125 41.699 81.8405C41.699 82.556 41.1314 83.1396 40.4353 83.1396C39.7393 83.1396 39.1717 82.556 39.1717 81.8405C39.1717 81.125 39.7393 80.5414 40.4353 80.5414ZM54.3353 68.85C55.0314 68.85 55.599 69.4336 55.599 70.1489C55.599 70.8644 55.0314 71.448 54.3353 71.448C53.6393 71.448 53.0717 70.8644 53.0717 70.1489C53.0717 69.4336 53.6393 68.85 54.3353 68.85ZM26.5353 64.9526C27.2314 64.9526 27.799 65.5362 27.799 66.2518C27.799 66.9673 27.2314 67.5509 26.5353 67.5509C25.8393 67.5509 25.2717 66.9673 25.2717 66.2518C25.2717 65.5362 25.8393 64.9526 26.5353 64.9526ZM64.835 59.386C69.7513 64.43 76.5383 67.5509 84.0309 67.5509C99.0315 67.5509 111.199 55.0372 111.199 39.6208C111.199 24.2047 99.0315 11.691 84.0309 11.691C69.03 11.691 56.8626 24.2047 56.8626 39.6208C56.8626 47.3189 59.8934 54.2965 64.8097 59.3511L64.835 59.386ZM105.903 60.269C105.336 60.9084 104.728 61.5172 104.106 62.1059L107.759 65.8559C108.025 65.5159 108.302 65.1911 108.593 64.8868C108.894 64.5823 109.21 64.288 109.541 64.0138L105.903 60.269ZM84.0309 14.2885C70.4315 14.2885 59.3898 25.64 59.3898 39.6202C59.3898 53.6004 70.432 64.952 84.0309 64.952C97.6298 64.952 108.672 53.6004 108.672 39.6202C108.672 25.64 97.6298 14.2885 84.0309 14.2885ZM84.0309 16.8866C96.2378 16.8866 106.144 27.0711 106.144 39.6202C106.144 52.1696 96.2378 62.354 84.0309 62.354C71.8239 62.354 61.9173 52.1696 61.9173 39.6202C61.9173 27.0711 71.8239 16.8866 84.0309 16.8866ZM79.6081 58.4566V55.8586H84.6626V59.7557C84.6626 60.4713 85.2303 61.0549 85.9262 61.0549C86.6223 61.0549 87.1898 60.4713 87.1898 59.7557V54.5595C87.1898 53.844 86.6223 53.2604 85.9262 53.2604H78.3445C77.6484 53.2604 77.0809 53.844 77.0809 54.5595V58.4566C77.0809 59.1722 77.6484 59.7557 78.3445 59.7557C79.0403 59.7557 79.6081 59.1722 79.6081 58.4566ZM87.9353 33.7745L69.864 52.3419C69.3704 52.8494 69.3704 53.6714 69.864 54.1791C70.3575 54.6865 71.1669 54.6865 71.6607 54.1791L89.7168 35.6114V42.8679C89.7168 43.5834 90.2844 44.167 90.9804 44.167C91.6765 44.167 92.2441 43.5834 92.2441 42.8679V32.4754C92.2441 31.7599 91.6765 31.1763 90.9804 31.1763H80.8713C80.1754 31.1763 79.6077 31.7599 79.6077 32.4754C79.6077 33.1909 80.1754 33.7745 80.8713 33.7745H87.9353Z" fill="white"/>
</mask>
<g mask="url(#mask0_212_77)">
<path fill-rule="evenodd" clip-rule="evenodd" d="M41.7002 119.514V125.182C41.7002 126.739 40.8019 128.15 39.4001 128.764L33.6248 131.312C33.0671 131.555 32.7512 132.164 32.8795 132.768C33.0078 133.367 33.5262 133.803 34.1185 133.803H72.0275C72.6348 133.803 73.1382 133.367 73.2665 132.763C73.3948 132.159 73.0789 131.55 72.5212 131.307L66.7459 128.764C65.3441 128.15 64.4458 126.739 64.4458 125.182V119.514C64.4458 118.798 63.8782 118.214 63.1822 118.214C62.4861 118.214 61.9185 118.798 61.9185 119.514V125.182C61.9185 127.78 63.424 130.129 65.7489 131.154L65.8773 131.21H40.2735L40.4018 131.154C42.7216 130.129 44.227 127.78 44.227 125.182V119.514C44.227 118.798 43.6595 118.214 42.9634 118.214C42.2676 118.214 41.7002 118.798 41.7002 119.514ZM49.2822 119.514V122.112C49.2822 124.263 50.9752 126.009 53.073 126.009C55.1708 126.009 56.8639 124.263 56.8639 122.112V119.514C56.8639 118.798 56.2963 118.214 55.6002 118.214C54.9042 118.214 54.3366 118.798 54.3366 119.514V122.112C54.3366 122.827 53.7691 123.411 53.073 123.411C52.3769 123.411 51.8094 122.827 51.8094 122.112V119.514C51.8094 118.798 51.2416 118.214 50.5458 118.214C49.8497 118.214 49.2822 118.798 49.2822 119.514ZM11.373 106.523H90.9822C91.678 106.523 92.2458 105.939 92.2458 105.224C92.2458 104.508 91.678 103.925 90.9822 103.925H11.373V58.4573C11.373 56.3058 13.066 54.5601 15.1639 54.5601H53.073C53.7691 54.5601 54.3366 53.9766 54.3366 53.261C54.3366 52.5457 53.7691 51.9621 53.073 51.9621H15.1639C11.6741 51.9621 8.8457 54.8698 8.8457 58.4573V110.42C8.8457 114.008 11.6741 116.915 15.1639 116.915H90.9822C94.4719 116.915 97.3002 114.008 97.3002 110.42V71.448C97.3002 70.7325 96.7327 70.1489 96.0366 70.1489C95.3405 70.1489 94.773 70.7325 94.773 71.448V110.42C94.773 112.571 93.08 114.317 90.9822 114.317H15.1639C13.066 114.317 11.373 112.571 11.373 110.42V106.523ZM73.2911 72.7471C73.2911 72.0316 72.7235 71.448 72.0275 71.448H64.4458C63.7497 71.448 63.1822 72.0316 63.1822 72.7471V100.027C63.1822 100.743 63.7497 101.327 64.4458 101.327H72.0275C72.7235 101.327 73.2911 100.743 73.2911 100.027V72.7471ZM77.0822 72.7471V100.027C77.0822 100.743 77.6497 101.327 78.3458 101.327H85.9275C86.6235 101.327 87.1911 100.743 87.1911 100.027V74.0462C87.1911 73.3307 86.6235 72.7471 85.9275 72.7471C85.2316 72.7471 84.6639 73.3307 84.6639 74.0462V98.7283H79.6094V72.7471C79.6094 72.0316 79.0416 71.448 78.3458 71.448C77.6497 71.448 77.0822 72.0316 77.0822 72.7471ZM59.3911 81.8405C59.3911 81.125 58.8235 80.5414 58.1275 80.5414H50.5458C49.8497 80.5414 49.2822 81.125 49.2822 81.8405V100.027C49.2822 100.743 49.8497 101.327 50.5458 101.327H58.1275C58.8235 101.327 59.3911 100.743 59.3911 100.027V81.8405ZM31.5911 77.9434C31.5911 77.2278 31.0235 76.6442 30.3275 76.6442H22.7458C22.0497 76.6442 21.4822 77.2278 21.4822 77.9434V100.027C21.4822 100.743 22.0497 101.327 22.7458 101.327H30.3275C31.0235 101.327 31.5911 100.743 31.5911 100.027V77.9434ZM45.4911 89.635C45.4911 88.9194 44.9235 88.3359 44.2275 88.3359H36.6458C35.9497 88.3359 35.3822 88.9194 35.3822 89.635V100.027C35.3822 100.743 35.9497 101.327 36.6458 101.327H44.2275C44.9235 101.327 45.4911 100.743 45.4911 100.027V89.635ZM29.0639 79.2425V98.7283H24.0094V79.2425H29.0639ZM56.8639 83.1396V98.7283H51.8094V83.1396H56.8639ZM70.7639 74.0462V98.7283H65.7094V74.0462H70.7639ZM42.9639 90.9341V98.7283H37.9094V90.9341H42.9639ZM62.1598 60.2643L55.97 66.6328C55.4715 66.3893 54.9187 66.2522 54.3362 66.2522C52.2381 66.2522 50.5451 67.9978 50.5451 70.1493C50.5451 70.6112 50.6193 71.0577 50.7722 71.4687L42.4055 78.5071C41.8281 78.1519 41.1569 77.9438 40.4362 77.9438C39.9031 77.9438 39.4144 78.0554 38.9553 78.2534L29.8827 68.0842C30.1641 67.5361 30.327 66.9119 30.327 66.2522C30.327 64.1007 28.634 62.355 26.536 62.355C24.4381 62.355 22.7451 64.1007 22.7451 66.2522C22.7451 68.4037 24.4381 70.1493 26.536 70.1493C27.0691 70.1493 27.5577 70.0377 28.0169 69.8399L37.0895 80.0091C36.8081 80.5572 36.6451 81.1812 36.6451 81.8409C36.6451 83.9924 38.3381 85.7383 40.4362 85.7383C42.534 85.7383 44.227 83.9924 44.227 81.8409C44.227 81.3792 44.1531 80.9327 43.9999 80.5217L52.3667 73.4834C52.9441 73.8386 53.6155 74.0467 54.3362 74.0467C56.434 74.0467 58.127 72.3008 58.127 70.1493C58.127 69.5456 57.9889 68.9772 57.7618 68.4698L63.9516 62.1012C69.2331 67.0997 76.2869 70.1493 84.0319 70.1493C90.8536 70.1493 97.1625 67.7745 102.177 63.7861L106.357 68.0942C106.081 68.693 105.824 69.3224 105.612 69.997C105.459 70.459 105.587 70.9713 105.913 71.3165L120.849 86.661C121.18 87.0111 121.684 87.133 122.138 86.9707C124.122 86.2804 125.776 85.2605 127.103 83.9056C128.416 82.5455 129.413 80.8457 130.085 78.8056C130.238 78.3388 130.124 77.8213 129.784 77.4763L114.853 62.1264C114.522 61.7815 114.033 61.6596 113.574 61.8067C112.918 62.0251 112.296 62.2838 111.728 62.5781L107.537 58.2699C111.417 53.1141 113.727 46.6442 113.727 39.6217C113.727 22.7743 100.42 9.09375 84.0317 9.09375C67.6436 9.09375 54.3362 22.7743 54.3362 39.6217C54.3362 47.5785 57.3076 54.8292 62.1598 60.2643ZM113.638 64.5423L127.424 78.7149C126.906 80.0243 126.21 81.1406 125.312 82.059C124.413 82.9775 123.327 83.693 122.063 84.2259L108.277 70.0531C108.781 68.7388 109.491 67.6326 110.39 66.7141C111.288 65.7956 112.359 65.0649 113.638 64.5423ZM40.4353 80.5414C41.1314 80.5414 41.699 81.125 41.699 81.8405C41.699 82.556 41.1314 83.1396 40.4353 83.1396C39.7393 83.1396 39.1717 82.556 39.1717 81.8405C39.1717 81.125 39.7393 80.5414 40.4353 80.5414ZM54.3353 68.85C55.0314 68.85 55.599 69.4336 55.599 70.1489C55.599 70.8644 55.0314 71.448 54.3353 71.448C53.6393 71.448 53.0717 70.8644 53.0717 70.1489C53.0717 69.4336 53.6393 68.85 54.3353 68.85ZM26.5353 64.9526C27.2314 64.9526 27.799 65.5362 27.799 66.2518C27.799 66.9673 27.2314 67.5509 26.5353 67.5509C25.8393 67.5509 25.2717 66.9673 25.2717 66.2518C25.2717 65.5362 25.8393 64.9526 26.5353 64.9526ZM64.835 59.386C69.7513 64.43 76.5383 67.5509 84.0309 67.5509C99.0315 67.5509 111.199 55.0372 111.199 39.6208C111.199 24.2047 99.0315 11.691 84.0309 11.691C69.03 11.691 56.8626 24.2047 56.8626 39.6208C56.8626 47.3189 59.8934 54.2965 64.8097 59.3511L64.835 59.386ZM105.903 60.269C105.336 60.9084 104.728 61.5172 104.106 62.1059L107.759 65.8559C108.025 65.5159 108.302 65.1911 108.593 64.8868C108.894 64.5823 109.21 64.288 109.541 64.0138L105.903 60.269ZM84.0309 14.2885C70.4315 14.2885 59.3898 25.64 59.3898 39.6202C59.3898 53.6004 70.432 64.952 84.0309 64.952C97.6298 64.952 108.672 53.6004 108.672 39.6202C108.672 25.64 97.6298 14.2885 84.0309 14.2885ZM84.0309 16.8866C96.2378 16.8866 106.144 27.0711 106.144 39.6202C106.144 52.1696 96.2378 62.354 84.0309 62.354C71.8239 62.354 61.9173 52.1696 61.9173 39.6202C61.9173 27.0711 71.8239 16.8866 84.0309 16.8866ZM79.6081 58.4566V55.8586H84.6626V59.7557C84.6626 60.4713 85.2303 61.0549 85.9262 61.0549C86.6223 61.0549 87.1898 60.4713 87.1898 59.7557V54.5595C87.1898 53.844 86.6223 53.2604 85.9262 53.2604H78.3445C77.6484 53.2604 77.0809 53.844 77.0809 54.5595V58.4566C77.0809 59.1722 77.6484 59.7557 78.3445 59.7557C79.0403 59.7557 79.6081 59.1722 79.6081 58.4566ZM87.9353 33.7745L69.864 52.3419C69.3704 52.8494 69.3704 53.6714 69.864 54.1791C70.3575 54.6865 71.1669 54.6865 71.6607 54.1791L89.7168 35.6114V42.8679C89.7168 43.5834 90.2844 44.167 90.9804 44.167C91.6765 44.167 92.2441 43.5834 92.2441 42.8679V32.4754C92.2441 31.7599 91.6765 31.1763 90.9804 31.1763H80.8713C80.1754 31.1763 79.6077 31.7599 79.6077 32.4754C79.6077 33.1909 80.1754 33.7745 80.8713 33.7745H87.9353Z" fill="url(#paint0_linear_212_77)" stroke="url(#paint1_linear_212_77)" stroke-width="2"/>
</g>
<defs>
<linearGradient id="paint0_linear_212_77" x1="8.8457" y1="71.4484" x2="130.152" y2="71.4484" gradientUnits="userSpaceOnUse">
<stop stop-color="#48AB77"/>
<stop offset="0.461536" stop-color="#EAB6AC"/>
<stop offset="1" stop-color="#B096CF"/>
</linearGradient>
<linearGradient id="paint1_linear_212_77" x1="8.8457" y1="71.4484" x2="130.152" y2="71.4484" gradientUnits="userSpaceOnUse">
<stop stop-color="#48AB77"/>
<stop offset="0.461536" stop-color="#EAB6AC"/>
<stop offset="1" stop-color="#B096CF"/>
</linearGradient>
</defs>
</svg>
