<svg width="60" height="60" viewBox="0 0 60 60" fill="none" xmlns="http://www.w3.org/2000/svg">
<mask id="path-1-inside-1_294_3263" fill="white">
<path d="M16.5609 14.4184C16.5609 11.1927 13.6685 8.56867 10.113 8.56867C6.55745 8.56867 3.66504 11.1927 3.66504 14.4184C3.66504 17.644 6.55745 20.268 10.113 20.268C13.6685 20.268 16.5609 17.644 16.5609 14.4184ZM5.29527 14.4184C5.29527 12.0094 7.45527 10.0474 10.1133 10.0474C12.7686 10.0474 14.9313 12.007 14.9313 14.4184C14.9313 16.8273 12.7713 18.7893 10.1133 18.7893C7.45793 18.7893 5.29527 16.8297 5.29527 14.4184ZM21.9944 34.8938H14.4275V24.8546C14.4275 22.6969 12.4913 20.9404 10.1129 20.9404C7.73454 20.9404 5.79831 22.6969 5.79831 24.8546V38.8087C5.79831 40.9664 7.73454 42.723 10.1129 42.723H17.6797V52.7621C17.6797 54.9198 19.616 56.6764 21.9944 56.6764C24.3727 56.6764 26.309 54.9198 26.309 52.7621V38.8081C26.309 36.6504 24.3727 34.8938 21.9944 34.8938ZM24.679 52.7645C24.679 54.108 23.4752 55.2001 21.9944 55.2001C20.5135 55.2001 19.3097 54.108 19.3097 52.7645V41.9856C19.3097 41.5772 18.9448 41.2462 18.4947 41.2462H10.1131C8.63229 41.2462 7.42847 40.1541 7.42847 38.8106V24.8566C7.42847 23.5132 8.63229 22.4211 10.1131 22.4211C11.594 22.4211 12.7978 23.5132 12.7978 24.8566V35.6356C12.7978 36.0439 13.1627 36.375 13.6128 36.375H21.9944C23.4752 36.375 24.679 37.4671 24.679 38.8105V52.7645ZM52.6152 8.50124C49.0596 8.50124 46.1672 11.1253 46.1672 14.3509C46.1672 17.5766 49.0596 20.2006 52.6152 20.2006C56.1707 20.2006 59.0631 17.5766 59.0631 14.3509C59.0631 11.1253 56.1707 8.50124 52.6152 8.50124ZM52.6152 18.7217C49.9598 18.7217 47.7971 16.7621 47.7971 14.3507C47.7971 11.9417 49.9572 9.97972 52.6152 9.97972C55.2705 9.97972 57.4332 11.9393 57.4332 14.3507C57.4332 16.7597 55.2732 18.7217 52.6152 18.7217ZM52.6152 20.9373C50.2368 20.9373 48.3005 22.6939 48.3005 24.8516V34.8908H40.7337C38.3553 34.8908 36.4191 36.6474 36.4191 38.8051V52.7591C36.4191 54.9168 38.3553 56.6734 40.7337 56.6734C43.1121 56.6734 45.0483 54.9168 45.0483 52.7591V42.7199H52.6152C54.9935 42.7199 56.9298 40.9633 56.9298 38.8056V24.8516C56.9298 22.6939 54.9935 20.9373 52.6152 20.9373ZM55.2998 38.808C55.2998 40.1515 54.096 41.2436 52.6152 41.2436H44.2336C43.7835 41.2436 43.4186 41.5746 43.4186 41.983V52.7619C43.4186 54.1054 42.2148 55.1975 40.7339 55.1975C39.2531 55.1975 38.0493 54.1054 38.0493 52.7619V38.8079C38.0493 37.4645 39.2531 36.3724 40.7339 36.3724H49.1155C49.5656 36.3724 49.9305 36.0413 49.9305 35.633V24.854C49.9305 23.5106 51.1343 22.4185 52.6152 22.4185C54.096 22.4185 55.2998 23.5106 55.2998 24.854V38.808ZM19.1819 31.3247H43.5487C43.9988 31.3247 44.3637 30.9937 44.3637 30.5854V26.7242C44.3637 26.3159 43.9988 25.9849 43.5487 25.9849H19.1819C18.7317 25.9849 18.3669 26.3159 18.3669 26.7242V30.5854C18.3669 30.9937 18.7318 31.3247 19.1819 31.3247ZM19.9968 27.4636H42.7341V29.8436H19.9968V27.4636ZM19.1819 19.6252H24.3621V21.6766C24.3621 22.085 24.727 22.416 25.1771 22.416H40.8405C41.2906 22.416 41.6555 22.085 41.6555 21.6766V12.8572L44.143 10.4555C44.3667 10.2405 44.4253 9.92635 44.2975 9.65572C44.167 9.3851 43.874 9.20871 43.5491 9.20871H38.3688V7.15733C38.3688 6.74898 38.0039 6.41797 37.5538 6.41797H21.8904C21.4403 6.41797 21.0754 6.749 21.0754 7.15733V15.9767L18.5879 18.3784C18.3642 18.5935 18.3056 18.9076 18.4334 19.1782C18.5639 19.4489 18.8569 19.6252 19.1819 19.6252ZM38.3689 18.8859V10.69H41.6635L40.2466 12.0576C40.1054 12.1953 40.0255 12.3765 40.0255 12.565V20.9371H25.9923V19.6251H37.5539C38.004 19.6251 38.3689 19.2942 38.3689 18.8859ZM22.4846 16.779C22.6257 16.6412 22.7056 16.46 22.7056 16.2715V7.89691H36.7388V18.1439H21.0679L22.4848 16.7764L22.4846 16.779ZM34.4805 14.7518C34.4805 15.1601 34.1156 15.4911 33.6655 15.4911H25.7823C25.3322 15.4911 24.9674 15.1601 24.9674 14.7518C24.9674 14.3434 25.3322 14.0124 25.7823 14.0124H33.6655C34.1156 14.0124 34.4805 14.3434 34.4805 14.7518ZM34.4805 11.2966C34.4805 11.7049 34.1156 12.0359 33.6655 12.0359H25.7823C25.3322 12.0359 24.9674 11.7049 24.9674 11.2966C24.9674 10.8882 25.3322 10.5572 25.7823 10.5572H33.6655C34.1156 10.5572 34.4805 10.8882 34.4805 11.2966Z"/>
</mask>
<path d="M16.5609 14.4184C16.5609 11.1927 13.6685 8.56867 10.113 8.56867C6.55745 8.56867 3.66504 11.1927 3.66504 14.4184C3.66504 17.644 6.55745 20.268 10.113 20.268C13.6685 20.268 16.5609 17.644 16.5609 14.4184ZM5.29527 14.4184C5.29527 12.0094 7.45527 10.0474 10.1133 10.0474C12.7686 10.0474 14.9313 12.007 14.9313 14.4184C14.9313 16.8273 12.7713 18.7893 10.1133 18.7893C7.45793 18.7893 5.29527 16.8297 5.29527 14.4184ZM21.9944 34.8938H14.4275V24.8546C14.4275 22.6969 12.4913 20.9404 10.1129 20.9404C7.73454 20.9404 5.79831 22.6969 5.79831 24.8546V38.8087C5.79831 40.9664 7.73454 42.723 10.1129 42.723H17.6797V52.7621C17.6797 54.9198 19.616 56.6764 21.9944 56.6764C24.3727 56.6764 26.309 54.9198 26.309 52.7621V38.8081C26.309 36.6504 24.3727 34.8938 21.9944 34.8938ZM24.679 52.7645C24.679 54.108 23.4752 55.2001 21.9944 55.2001C20.5135 55.2001 19.3097 54.108 19.3097 52.7645V41.9856C19.3097 41.5772 18.9448 41.2462 18.4947 41.2462H10.1131C8.63229 41.2462 7.42847 40.1541 7.42847 38.8106V24.8566C7.42847 23.5132 8.63229 22.4211 10.1131 22.4211C11.594 22.4211 12.7978 23.5132 12.7978 24.8566V35.6356C12.7978 36.0439 13.1627 36.375 13.6128 36.375H21.9944C23.4752 36.375 24.679 37.4671 24.679 38.8105V52.7645ZM52.6152 8.50124C49.0596 8.50124 46.1672 11.1253 46.1672 14.3509C46.1672 17.5766 49.0596 20.2006 52.6152 20.2006C56.1707 20.2006 59.0631 17.5766 59.0631 14.3509C59.0631 11.1253 56.1707 8.50124 52.6152 8.50124ZM52.6152 18.7217C49.9598 18.7217 47.7971 16.7621 47.7971 14.3507C47.7971 11.9417 49.9572 9.97972 52.6152 9.97972C55.2705 9.97972 57.4332 11.9393 57.4332 14.3507C57.4332 16.7597 55.2732 18.7217 52.6152 18.7217ZM52.6152 20.9373C50.2368 20.9373 48.3005 22.6939 48.3005 24.8516V34.8908H40.7337C38.3553 34.8908 36.4191 36.6474 36.4191 38.8051V52.7591C36.4191 54.9168 38.3553 56.6734 40.7337 56.6734C43.1121 56.6734 45.0483 54.9168 45.0483 52.7591V42.7199H52.6152C54.9935 42.7199 56.9298 40.9633 56.9298 38.8056V24.8516C56.9298 22.6939 54.9935 20.9373 52.6152 20.9373ZM55.2998 38.808C55.2998 40.1515 54.096 41.2436 52.6152 41.2436H44.2336C43.7835 41.2436 43.4186 41.5746 43.4186 41.983V52.7619C43.4186 54.1054 42.2148 55.1975 40.7339 55.1975C39.2531 55.1975 38.0493 54.1054 38.0493 52.7619V38.8079C38.0493 37.4645 39.2531 36.3724 40.7339 36.3724H49.1155C49.5656 36.3724 49.9305 36.0413 49.9305 35.633V24.854C49.9305 23.5106 51.1343 22.4185 52.6152 22.4185C54.096 22.4185 55.2998 23.5106 55.2998 24.854V38.808ZM19.1819 31.3247H43.5487C43.9988 31.3247 44.3637 30.9937 44.3637 30.5854V26.7242C44.3637 26.3159 43.9988 25.9849 43.5487 25.9849H19.1819C18.7317 25.9849 18.3669 26.3159 18.3669 26.7242V30.5854C18.3669 30.9937 18.7318 31.3247 19.1819 31.3247ZM19.9968 27.4636H42.7341V29.8436H19.9968V27.4636ZM19.1819 19.6252H24.3621V21.6766C24.3621 22.085 24.727 22.416 25.1771 22.416H40.8405C41.2906 22.416 41.6555 22.085 41.6555 21.6766V12.8572L44.143 10.4555C44.3667 10.2405 44.4253 9.92635 44.2975 9.65572C44.167 9.3851 43.874 9.20871 43.5491 9.20871H38.3688V7.15733C38.3688 6.74898 38.0039 6.41797 37.5538 6.41797H21.8904C21.4403 6.41797 21.0754 6.749 21.0754 7.15733V15.9767L18.5879 18.3784C18.3642 18.5935 18.3056 18.9076 18.4334 19.1782C18.5639 19.4489 18.8569 19.6252 19.1819 19.6252ZM38.3689 18.8859V10.69H41.6635L40.2466 12.0576C40.1054 12.1953 40.0255 12.3765 40.0255 12.565V20.9371H25.9923V19.6251H37.5539C38.004 19.6251 38.3689 19.2942 38.3689 18.8859ZM22.4846 16.779C22.6257 16.6412 22.7056 16.46 22.7056 16.2715V7.89691H36.7388V18.1439H21.0679L22.4848 16.7764L22.4846 16.779ZM34.4805 14.7518C34.4805 15.1601 34.1156 15.4911 33.6655 15.4911H25.7823C25.3322 15.4911 24.9674 15.1601 24.9674 14.7518C24.9674 14.3434 25.3322 14.0124 25.7823 14.0124H33.6655C34.1156 14.0124 34.4805 14.3434 34.4805 14.7518ZM34.4805 11.2966C34.4805 11.7049 34.1156 12.0359 33.6655 12.0359H25.7823C25.3322 12.0359 24.9674 11.7049 24.9674 11.2966C24.9674 10.8882 25.3322 10.5572 25.7823 10.5572H33.6655C34.1156 10.5572 34.4805 10.8882 34.4805 11.2966Z" fill="url(#paint0_linear_294_3263)" stroke="url(#paint1_linear_294_3263)" stroke-width="2" mask="url(#path-1-inside-1_294_3263)"/>
<defs>
<linearGradient id="paint0_linear_294_3263" x1="3.66504" y1="31.5472" x2="59.0631" y2="31.5472" gradientUnits="userSpaceOnUse">
<stop stop-color="#48AB77"/>
<stop offset="0.461536" stop-color="#EAB6AC"/>
<stop offset="1" stop-color="#B096CF"/>
</linearGradient>
<linearGradient id="paint1_linear_294_3263" x1="3.66504" y1="31.5472" x2="59.0631" y2="31.5472" gradientUnits="userSpaceOnUse">
<stop stop-color="#48AB77"/>
<stop offset="0.461536" stop-color="#EAB6AC"/>
<stop offset="1" stop-color="#B096CF"/>
</linearGradient>
</defs>
</svg>
