<svg width="40" height="40" viewBox="0 0 40 40" fill="none" xmlns="http://www.w3.org/2000/svg">
<circle cx="20" cy="20" r="19" stroke="#353535" stroke-width="2"/>
<g clip-path="url(#clip0_117_13913)">
<path fill-rule="evenodd" clip-rule="evenodd" d="M8.07715 24.9796V24.0707C8.07715 23.9093 8.19985 23.7738 8.36253 23.7426L9.59783 23.447C9.65022 23.2882 9.7095 23.1319 9.77568 22.9796L9.78395 22.9627C9.85013 22.8142 9.92182 22.6697 10.0004 22.5304L9.33313 21.4731C9.24903 21.3402 9.27523 21.1723 9.38552 21.0668L10.7449 19.7816C10.8676 19.6644 11.0606 19.6527 11.1985 19.7452L12.2959 20.3624C12.4531 20.2842 12.6144 20.2113 12.7812 20.1475C12.9453 20.0837 13.1135 20.0277 13.2845 19.9783L13.6002 18.7999C13.6402 18.6488 13.7849 18.5472 13.9421 18.5472H15.8667C16.0377 18.5472 16.1811 18.6631 16.2128 18.8168L16.5243 19.9782C16.6953 20.0277 16.8635 20.0837 17.0276 20.1475C17.1944 20.2126 17.3571 20.2842 17.5129 20.3624L18.6324 19.7322C18.773 19.6527 18.9508 19.6775 19.0625 19.7816L20.4247 21.0655C20.5474 21.1827 20.5612 21.3637 20.4633 21.4939L19.8098 22.5291C19.8911 22.6736 19.9669 22.8233 20.0345 22.9783C20.1007 23.1293 20.1613 23.2856 20.2123 23.4457L21.4656 23.7452C21.6338 23.7843 21.744 23.934 21.7316 24.0916V25.8846C21.7316 26.0408 21.6186 26.171 21.4656 26.2075L20.2123 26.5082C20.1599 26.6671 20.1007 26.8234 20.0345 26.9757L20.0262 26.9926C19.96 27.141 19.8883 27.2856 19.8098 27.4249L20.477 28.4822C20.5611 28.615 20.5349 28.783 20.4233 28.8885L19.0639 30.1749C18.9398 30.2921 18.7482 30.3038 18.6103 30.2114L17.5128 29.5942C17.3557 29.6723 17.1944 29.7452 17.0275 29.809C16.8635 29.8728 16.6967 29.9288 16.5243 29.9783L16.2086 31.158C16.1672 31.3169 16.0087 31.421 15.8419 31.4093H13.9434C13.7794 31.4093 13.6401 31.3025 13.6029 31.158L13.2858 29.9796C13.1148 29.9301 12.9466 29.8741 12.7826 29.8103C12.6158 29.7452 12.4545 29.6736 12.2973 29.5955L11.1778 30.2257C11.0372 30.3051 10.8593 30.2804 10.749 30.1762L9.3869 28.8924C9.26282 28.7752 9.25041 28.5942 9.34829 28.464L10.0018 27.4288C9.92045 27.2843 9.846 27.1345 9.77845 26.9796C9.7109 26.8285 9.65162 26.6723 9.59923 26.5121L8.346 26.2126C8.18608 26.1749 8.07854 26.0395 8.07854 25.8897L8.07715 24.9796ZM22.0459 29.2126L21.0946 30.6306C21.0449 30.6957 21.0201 30.7777 21.0312 30.8636C21.0449 30.9808 21.1235 31.0772 21.2283 31.1253L22.7642 31.9561C22.9324 32.0472 23.1488 31.9925 23.2453 31.8324C23.3418 31.6735 23.2839 31.4691 23.1144 31.3779L22.4195 31.0029C24.7687 30.5446 26.8644 29.4313 28.4844 27.8753C30.3264 26.1045 31.5533 23.7607 31.8346 21.1513C31.8539 20.9691 31.7119 20.8063 31.5189 20.7881C31.3259 20.7699 31.1535 20.904 31.1343 21.0863C30.8696 23.5394 29.717 25.7453 27.9826 27.4106C26.4164 28.9145 24.3787 29.9783 22.0927 30.3872L22.6414 29.5695C22.7448 29.4145 22.6952 29.2088 22.5311 29.1111C22.3657 29.0096 22.1479 29.0563 22.0459 29.2126ZM17.9553 10.7856L18.9052 9.36762C18.9548 9.30252 18.9796 9.22048 18.9686 9.13454C18.9548 9.01736 18.8762 8.921 18.7714 8.87282L17.2356 8.04209C17.066 7.95095 16.8509 8.00563 16.7544 8.16579C16.6579 8.32594 16.7158 8.52906 16.8854 8.62022L17.5803 8.99522C15.231 9.45355 13.1353 10.5668 11.5153 12.1228C9.67339 13.8937 8.44639 16.2388 8.16513 18.8482C8.14583 19.0304 8.28784 19.1932 8.48085 19.2114C8.67387 19.2297 8.84621 19.0955 8.86548 18.9132C9.13019 16.4601 10.2828 14.2542 12.0171 12.5889C13.5833 11.085 15.621 10.0212 17.907 9.61234L17.3583 10.43C17.2549 10.585 17.3045 10.7907 17.4686 10.8884C17.634 10.9886 17.8519 10.9418 17.9553 10.7856ZM13.2001 25.1099L14.2451 26.0969C14.383 26.2271 14.6063 26.2271 14.7442 26.0969L16.6123 24.3326C16.7502 24.2023 16.7502 23.9914 16.6123 23.8612C16.4745 23.731 16.2511 23.731 16.1132 23.8612L14.4947 25.3898L13.6978 24.6372C13.5599 24.507 13.3366 24.507 13.1987 24.6372C13.0622 24.7687 13.0622 24.9797 13.2001 25.1099ZM23.387 15.1489C23.2492 15.0187 23.2492 14.8078 23.387 14.6776C23.5249 14.5473 23.7482 14.5473 23.8861 14.6776L24.683 15.4302L26.3015 13.9015C26.4394 13.7713 26.6627 13.7713 26.8006 13.9015C26.9385 14.0317 26.9385 14.2427 26.8006 14.3729L24.9325 16.1372C24.7947 16.2674 24.5713 16.2674 24.4334 16.1372L23.387 15.1489ZM25.0938 11.7936C24.1508 11.7936 23.296 12.1543 22.6784 12.7389C22.0607 13.3222 21.6775 14.1295 21.6775 15.0202C21.6775 15.9108 22.0607 16.7168 22.6784 17.3014C23.296 17.8848 24.1508 18.2467 25.0938 18.2467C26.0368 18.2467 26.8902 17.8861 27.5093 17.3014C28.1269 16.7181 28.5102 15.9108 28.5102 15.0202C28.5102 14.1295 28.1283 13.3236 27.5093 12.7389C26.8903 12.1542 26.0368 11.7936 25.0938 11.7936ZM27.0088 13.2103C26.518 12.7467 25.8411 12.4603 25.0924 12.4603C24.3438 12.4603 23.6669 12.7467 23.1761 13.2103C22.6867 13.6738 22.382 14.3131 22.382 15.0202C22.382 15.7272 22.6853 16.3665 23.1761 16.8301C23.6669 17.2936 24.3438 17.5801 25.0924 17.5801C25.8397 17.5801 26.518 17.2936 27.0088 16.8301C27.4996 16.3665 27.8029 15.7272 27.8029 15.0202C27.8029 14.3131 27.4996 13.6725 27.0088 13.2103ZM18.2665 15.0189V15.903C18.254 16.0618 18.3643 16.2102 18.5325 16.2506L19.7858 16.5501C19.8382 16.709 19.8974 16.8652 19.965 17.0175C20.0325 17.1725 20.1084 17.3222 20.1883 17.4668L19.5348 18.5019C19.4369 18.6321 19.4493 18.8131 19.5734 18.9303L20.9342 20.2142C21.0459 20.3197 21.2223 20.3444 21.3644 20.2637L22.4839 19.6335C22.641 19.7116 22.8023 19.7845 22.9692 19.8483C23.1332 19.9121 23.3014 19.9681 23.4724 20.0176L23.784 21.1804C23.8157 21.334 23.959 21.4499 24.13 21.4499H26.0546C26.2118 21.4499 26.3566 21.3483 26.3965 21.1973L26.7123 20.0176C26.8832 19.9681 27.0514 19.9121 27.2155 19.8483C27.3823 19.7832 27.545 19.7116 27.7008 19.6335L28.7982 20.2507C28.9361 20.3431 29.1291 20.3314 29.2518 20.2142L30.6112 18.929C30.7229 18.8236 30.7491 18.6569 30.6636 18.5228L29.9963 17.4655C30.0749 17.3262 30.1466 17.1816 30.2128 17.0332L30.221 17.0163C30.2872 16.8639 30.3479 16.709 30.3989 16.5488L31.6521 16.248C31.8051 16.2116 31.9182 16.0814 31.9182 15.9251V14.1322C31.9306 13.9733 31.8203 13.8249 31.6521 13.7845L30.3989 13.485C30.3465 13.3249 30.2872 13.1699 30.2197 13.0176C30.1521 12.8626 30.0763 12.7129 29.9963 12.5683L30.6498 11.5332C30.7477 11.403 30.7353 11.222 30.6112 11.1048L29.2505 9.82091C29.1388 9.71544 28.9623 9.6907 28.8203 9.77143L27.7008 10.4016C27.5436 10.3235 27.3823 10.2506 27.2155 10.1868C27.0514 10.123 26.8832 10.067 26.7123 10.0175L26.3952 8.83911C26.3566 8.69458 26.2187 8.58781 26.0533 8.58781H24.1548C23.9866 8.57609 23.8295 8.68026 23.7867 8.83911L23.4738 10.0201C23.3028 10.0696 23.1346 10.1256 22.9705 10.1894C22.8037 10.2545 22.641 10.3261 22.4852 10.4042L21.3878 9.78703C21.2499 9.69458 21.0569 9.7063 20.9342 9.82349L19.5748 11.1087C19.4631 11.2141 19.437 11.3808 19.5224 11.5149L20.1897 12.5722C20.1111 12.7115 20.0394 12.8561 19.9732 13.0045L19.965 13.0214C19.8988 13.1725 19.8381 13.3287 19.7871 13.4889L18.5339 13.7897C18.3809 13.8261 18.2678 13.9563 18.2678 14.1126L18.2665 15.0189ZM18.9696 14.3691V15.6673L20.1553 15.9511C20.2752 15.9798 20.3758 16.0683 20.4103 16.1894C20.4655 16.3847 20.5344 16.5762 20.6157 16.7624V16.7637C20.6971 16.9485 20.7922 17.1296 20.8997 17.3053C20.9618 17.4069 20.9645 17.5358 20.897 17.6426L20.2669 18.6413L21.2403 19.5605L22.2853 18.972C22.3928 18.9043 22.5362 18.8965 22.6561 18.9616C22.845 19.0644 23.0394 19.1556 23.2393 19.2337C23.4323 19.3092 23.6309 19.3717 23.8349 19.4238C23.9645 19.4486 24.0748 19.541 24.1093 19.6699L24.4071 20.7832H25.783L26.0807 19.6699C26.1111 19.5553 26.2048 19.4603 26.3344 19.429C26.5454 19.3769 26.7508 19.3118 26.9493 19.235C27.1478 19.1582 27.3436 19.067 27.5325 18.9629C27.64 18.9043 27.7751 18.9017 27.8896 18.9655L28.947 19.5618L29.9203 18.6426L29.2986 17.6569C29.2269 17.5553 29.2186 17.4199 29.2875 17.3066C29.3923 17.1361 29.4861 16.9603 29.566 16.7806L29.5729 16.7637C29.6529 16.5814 29.7204 16.3952 29.7742 16.2038C29.8018 16.084 29.8983 15.985 30.0334 15.9525L31.2191 15.6686V14.3705L30.0334 14.0866C29.9135 14.058 29.8128 13.9694 29.7783 13.8483C29.7232 13.653 29.6543 13.4616 29.5729 13.2754V13.2741C29.4916 13.0892 29.3965 12.9082 29.2889 12.7324C29.2269 12.6309 29.2241 12.502 29.2917 12.3952L29.9217 11.3965L28.9484 10.4772L27.9034 11.0658C27.7958 11.1335 27.6525 11.1413 27.5325 11.0762C27.3436 10.9733 27.1493 10.8822 26.9493 10.804C26.7563 10.7298 26.5578 10.666 26.3538 10.6152C26.2242 10.5905 26.1139 10.498 26.0794 10.3691L25.7816 9.25454H24.4071L24.1093 10.3691C24.079 10.4837 23.9852 10.5788 23.8556 10.61C23.6447 10.6621 23.4392 10.7272 23.2407 10.804C23.0408 10.8822 22.8464 10.9733 22.6575 11.0762C22.55 11.1348 22.4149 11.1374 22.3005 11.0736L21.243 10.4772L20.2697 11.3965L20.8915 12.3821C20.9632 12.4837 20.9714 12.6191 20.9025 12.7324C20.7977 12.903 20.704 13.0788 20.624 13.2584L20.6171 13.2754C20.5371 13.4577 20.4696 13.6439 20.4158 13.8353C20.3882 13.9551 20.2917 14.054 20.1566 14.0866L18.9696 14.3691ZM14.9051 21.7545C13.9621 21.7545 13.1073 22.1151 12.4897 22.6998C11.872 23.2831 11.4887 24.0904 11.4887 24.981C11.4887 25.8717 11.872 26.6776 12.4897 27.2623C13.1073 27.8456 13.9621 28.2076 14.9051 28.2076C15.8481 28.2076 16.7015 27.8469 17.3206 27.2623C17.9382 26.679 18.3215 25.8717 18.3215 24.981C18.3215 24.0904 17.9396 23.2844 17.3206 22.6998C16.7015 22.1151 15.8481 21.7545 14.9051 21.7545ZM16.8215 23.1711C16.3307 22.7076 15.6537 22.4211 14.9051 22.4211C14.1565 22.4211 13.4795 22.7076 12.9887 23.1711C12.4993 23.6347 12.1946 24.274 12.1946 24.981C12.1946 25.6868 12.4979 26.3274 12.9887 26.7909C13.4796 27.2545 14.1565 27.5409 14.9051 27.5409C15.6524 27.5409 16.3307 27.2545 16.8215 26.7909C17.3123 26.3274 17.6156 25.6881 17.6156 24.981C17.6142 24.2727 17.3109 23.6334 16.8215 23.1711ZM8.78254 24.33V25.6295L9.96545 25.912C10.0854 25.9407 10.186 26.0292 10.2205 26.1503C10.2757 26.3456 10.3446 26.537 10.4259 26.7232V26.7245C10.5073 26.9094 10.6024 27.0917 10.7113 27.2662C10.772 27.3677 10.7761 27.4967 10.7086 27.6034L10.0785 28.6021L11.0518 29.5214L12.0969 28.9329C12.2044 28.8651 12.3478 28.8573 12.4677 28.9224C12.6552 29.0253 12.851 29.1164 13.0509 29.1946C13.2439 29.2701 13.4424 29.3326 13.6465 29.3847C13.7761 29.4081 13.8864 29.5019 13.9208 29.6308L14.2186 30.7454H15.5932L15.8923 29.6308C15.9227 29.5162 16.0164 29.4211 16.146 29.3899C16.3569 29.3378 16.5624 29.2727 16.7609 29.1959C16.9608 29.1177 17.1552 29.0266 17.3441 28.9237C17.4516 28.8651 17.5881 28.8625 17.7011 28.9263L18.7586 29.5227L19.7319 28.6034L19.1101 27.6178C19.0385 27.5162 19.0302 27.3808 19.0991 27.2675C19.2039 27.0969 19.2976 26.9211 19.3776 26.7415L19.3845 26.7245C19.4645 26.5423 19.532 26.3547 19.5858 26.1646C19.6134 26.0449 19.7099 25.9459 19.845 25.9133L21.0293 25.6295V24.3313L19.845 24.0475C19.7237 24.0188 19.6244 23.9303 19.5899 23.8092C19.5348 23.6139 19.4658 23.4225 19.3845 23.2363V23.235C19.3032 23.0501 19.208 22.8678 19.1005 22.6933C19.0385 22.5917 19.0357 22.4628 19.1033 22.3561L19.7333 21.3574L18.76 20.4381L17.715 21.0266C17.6074 21.0943 17.464 21.1021 17.3441 21.037C17.1552 20.9329 16.9608 20.843 16.7609 20.7649C16.5679 20.6894 16.3694 20.6269 16.1653 20.5748C16.0357 20.5501 15.9254 20.4576 15.8924 20.3287L15.5946 19.2154H14.2187L13.9209 20.3287C13.8905 20.4433 13.7968 20.5383 13.6672 20.5696C13.4562 20.6217 13.2508 20.6868 13.0523 20.7649C12.8524 20.843 12.658 20.9329 12.4691 21.037C12.3616 21.0943 12.2251 21.0982 12.1121 21.0344L11.0532 20.4381L10.0799 21.3573L10.7017 22.343C10.7734 22.4446 10.7816 22.58 10.7127 22.6933C10.6079 22.8638 10.5142 23.0396 10.4342 23.2193L10.4273 23.2362C10.3474 23.4185 10.2798 23.6047 10.226 23.7961C10.1985 23.9159 10.1019 24.0149 9.96683 24.0474L8.78254 24.33Z" fill="white"/>
</g>
<defs>
<clipPath id="clip0_117_13913">
<rect width="24" height="24" fill="white" transform="translate(8 8)"/>
</clipPath>
</defs>
</svg>
