<svg width="40" height="40" viewBox="0 0 40 40" fill="none" xmlns="http://www.w3.org/2000/svg">
<circle cx="20" cy="20" r="19" stroke="#353535" stroke-width="2"/>
<path fill-rule="evenodd" clip-rule="evenodd" d="M10.2438 31.3427C9.87869 31.3229 9.58664 31.1726 9.3656 30.9431C9.20557 30.7777 9.08453 30.5714 9.00152 30.3443C8.92051 30.1241 8.8765 29.884 8.8665 29.6429C8.8495 29.2246 8.94051 28.7994 9.13256 28.4696C9.12656 28.4545 9.12156 28.4382 9.11556 28.4219C9.10955 28.4032 9.10255 28.3846 9.09655 28.3648C8.7565 28.2133 8.47943 27.9093 8.28941 27.5306C8.15239 27.2568 8.05937 26.9422 8.02036 26.6172C7.98135 26.2909 7.99736 25.9542 8.07737 25.6385C8.17239 25.2634 8.35641 24.9185 8.64347 24.654C8.45643 24.195 8.44643 23.7208 8.55845 23.3037C8.62346 23.0591 8.73148 22.8354 8.87052 22.6466C9.00955 22.4567 9.18057 22.303 9.3726 22.1981C9.57464 22.0874 9.79769 22.0326 10.0277 22.0513C10.0637 21.9208 10.1147 21.7985 10.1768 21.6878C10.3148 21.4408 10.5088 21.2509 10.7309 21.1309C10.9529 21.012 11.203 20.9619 11.451 20.998C11.643 21.0248 11.8341 21.1029 12.0131 21.238C12.0851 21.2928 12.1241 21.3837 12.1241 21.4769L12.1251 31.6421C12.1251 31.7715 12.0511 31.881 11.9501 31.9159C11.647 32.0429 11.357 32.072 11.0999 32.0208C10.8819 31.9777 10.6879 31.8775 10.5298 31.7318C10.4118 31.6247 10.3158 31.4942 10.2438 31.3427ZM25.5677 15.1681C25.4657 15.0656 25.4547 14.8862 25.5427 14.7674C25.6307 14.6485 25.7847 14.6357 25.8868 14.7382C26.5179 15.3732 27.076 16.106 27.541 16.9157C28.0011 17.7162 28.3712 18.5923 28.6342 19.522C28.6762 19.6712 28.6072 19.8331 28.4782 19.882C28.3502 19.931 28.2112 19.8494 28.1692 19.7003C27.9191 18.8172 27.569 17.9888 27.136 17.2327C26.6949 16.4649 26.1668 15.7705 25.5677 15.1681ZM24.0424 31.8542C24.1604 31.7785 24.3095 31.8298 24.3735 31.9684C24.4385 32.1059 24.3945 32.2783 24.2755 32.3541C23.6063 32.7793 22.8892 33.1114 22.1371 33.3339C21.4059 33.5506 20.6398 33.6659 19.8506 33.6659C19.0555 33.6659 18.2803 33.5471 17.5392 33.3246C16.7761 33.0951 16.0509 32.756 15.3778 32.3226C15.2598 32.2457 15.2178 32.0733 15.2828 31.9358C15.3488 31.7983 15.4968 31.7494 15.6149 31.8251C16.253 32.2364 16.9381 32.5579 17.6593 32.7735C18.3574 32.9832 19.0915 33.0939 19.8507 33.0939C20.5988 33.0939 21.3239 32.9844 22.016 32.7793C22.7332 32.5684 23.4123 32.255 24.0424 31.8542ZM11.5491 19.6441C11.5051 19.7932 11.3661 19.8725 11.238 19.8212C11.11 19.7699 11.042 19.608 11.086 19.4589L11.087 19.4577C11.089 19.4519 11.091 19.4461 11.093 19.4402C11.3521 18.5513 11.7071 17.7136 12.1432 16.9481C12.5893 16.1652 13.1224 15.4534 13.7255 14.8312L13.7285 14.8277C13.8295 14.724 13.9836 14.7345 14.0726 14.8522C14.1616 14.9698 14.1526 15.1493 14.0516 15.253L14.0486 15.2565C13.4785 15.8448 12.9744 16.5182 12.5503 17.2616C12.1352 17.9897 11.7992 18.782 11.5551 19.622C11.5531 19.629 11.5521 19.636 11.5501 19.643L11.5491 19.6441ZM19.6025 19.2084C19.6556 19.2282 19.7086 19.2387 19.7606 19.2387V19.2375C19.8126 19.2375 19.8656 19.2282 19.9176 19.2084L19.6025 19.2084ZM20.7018 19.2084C20.6007 19.3552 20.4927 19.474 20.3787 19.5672C20.1817 19.728 19.9716 19.8084 19.7596 19.8084V19.8072C19.5465 19.8072 19.3365 19.7268 19.1405 19.5672C19.0274 19.4752 18.9184 19.3552 18.8174 19.2084H18.6114C18.4603 19.2084 18.3233 19.1362 18.2233 19.0208C18.1243 18.9055 18.0623 18.7447 18.0623 18.5688C18.0623 18.4394 18.0953 18.3183 18.1523 18.2181C18.0953 18.1179 18.0623 17.999 18.0623 17.8709C18.0623 17.7416 18.0963 17.6204 18.1543 17.5202C18.0963 17.4177 18.0623 17.2953 18.0623 17.1637C18.0623 16.9994 18.1153 16.8491 18.2023 16.7349C18.1653 16.6056 18.1123 16.4844 18.0453 16.3726C17.9543 16.2211 17.8362 16.086 17.6942 15.9742C17.1941 15.5804 16.781 15.0479 16.497 14.4246C16.2229 13.8234 16.0669 13.1372 16.0669 12.409C16.0669 11.2218 16.48 10.1465 17.1481 9.3683C17.8162 8.59002 18.7394 8.10884 19.7585 8.10884C20.7777 8.10884 21.7009 8.59002 22.3689 9.3683C23.037 10.1466 23.4501 11.2219 23.4501 12.409C23.4501 13.1372 23.2951 13.8234 23.02 14.4246C22.735 15.0479 22.3229 15.5804 21.8228 15.9742C21.6798 16.086 21.5628 16.22 21.4717 16.3726C21.4047 16.4844 21.3527 16.6056 21.3147 16.7349C21.4017 16.8491 21.4547 16.9994 21.4547 17.1637C21.4547 17.2953 21.4207 17.4177 21.3627 17.5202C21.4207 17.6204 21.4547 17.7415 21.4547 17.8709C21.4547 17.999 21.4217 18.1179 21.3647 18.2181C21.4217 18.3194 21.4547 18.4394 21.4547 18.5688C21.4547 18.7447 21.3927 18.9043 21.2937 19.0208C21.1947 19.1362 21.0567 19.2084 20.9056 19.2084L20.7018 19.2084ZM18.6134 18.6375H20.9078C20.9238 18.6375 20.9388 18.6293 20.9488 18.6165C20.9598 18.6037 20.9658 18.5862 20.9658 18.5688C20.9658 18.5501 20.9588 18.5326 20.9488 18.521C20.9388 18.5093 20.9238 18.5012 20.9088 18.5H18.6104C18.5954 18.5 18.5804 18.5082 18.5704 18.521C18.5594 18.5338 18.5524 18.5501 18.5524 18.5688C18.5524 18.5874 18.5594 18.6049 18.5704 18.6165C18.5824 18.6293 18.5974 18.6375 18.6134 18.6375ZM18.6114 17.9303H20.9158C20.9298 17.9303 20.9418 17.9233 20.9508 17.9128L20.9568 17.907C20.9628 17.8965 20.9668 17.8849 20.9668 17.8709C20.9668 17.8546 20.9608 17.8406 20.9518 17.8301C20.9428 17.8196 20.9298 17.8126 20.9168 17.8126H18.6064C18.5924 17.8126 18.5804 17.8196 18.5714 17.8301C18.5624 17.8406 18.5564 17.8557 18.5564 17.8709C18.5564 17.8872 18.5624 17.9023 18.5714 17.9128L18.5724 17.9117C18.5814 17.9221 18.5944 17.9291 18.6074 17.9291H18.6114L18.6114 17.9303ZM18.6194 17.2417H20.9028C20.9198 17.2417 20.9368 17.2324 20.9478 17.2196C20.9598 17.2056 20.9668 17.1858 20.9668 17.166C20.9668 17.145 20.9598 17.1264 20.9478 17.1124C20.9358 17.0984 20.9188 17.0891 20.9018 17.0891H18.6214C18.6034 17.0891 18.5874 17.0973 18.5744 17.1124C18.5624 17.1264 18.5544 17.1462 18.5544 17.166C18.5544 17.187 18.5614 17.2056 18.5744 17.2196C18.5864 17.2324 18.6014 17.2406 18.6194 17.2417ZM18.6564 16.5171H20.8648C20.9158 16.3504 20.9858 16.1932 21.0718 16.0487C21.1969 15.839 21.3579 15.6549 21.5509 15.5035C21.985 15.1621 22.3431 14.6996 22.5901 14.159C22.8282 13.6382 22.9632 13.0428 22.9632 12.4102C22.9632 11.3803 22.6051 10.447 22.025 9.77244C21.4459 9.09787 20.6448 8.67959 19.7606 8.67959C18.8764 8.67959 18.0753 9.09668 17.4961 9.77244C16.917 10.447 16.558 11.3802 16.558 12.4102C16.558 13.0428 16.693 13.637 16.931 14.159C17.1781 14.7007 17.5361 15.1621 17.9702 15.5035C18.1632 15.6561 18.3243 15.8402 18.4493 16.0487C18.5363 16.1932 18.6054 16.3504 18.6564 16.5171ZM17.8762 8.20548L17.2721 6.98683C17.2051 6.85051 17.0561 6.80391 16.9391 6.88197C16.822 6.96003 16.782 7.13363 16.849 7.26995L17.4532 8.4886C17.5202 8.62491 17.6692 8.67152 17.7862 8.59346C17.9032 8.5154 17.9433 8.3418 17.8762 8.20548ZM16.2519 9.88784L15.2057 9.18413C15.0887 9.10607 14.9397 9.15267 14.8727 9.28898C14.8057 9.4253 14.8457 9.5989 14.9627 9.67696L16.0089 10.3807C16.1259 10.4587 16.2749 10.4121 16.3419 10.2758C16.409 10.1395 16.369 9.96589 16.2519 9.88784ZM15.5688 12.2902C15.7038 12.2902 15.8138 12.4184 15.8138 12.5757C15.8138 12.7329 15.7038 12.8611 15.5688 12.8611H14.3606C14.2255 12.8611 14.1155 12.7329 14.1155 12.5757C14.1155 12.4184 14.2255 12.2902 14.3606 12.2902H15.5688ZM23.9533 12.8611C23.8183 12.8611 23.7083 12.733 23.7083 12.5757C23.7083 12.4184 23.8183 12.2902 23.9533 12.2902H25.1616C25.2966 12.2902 25.4066 12.4184 25.4066 12.5757C25.4066 12.733 25.2966 12.8611 25.1616 12.8611H23.9533ZM23.5132 10.3807L24.5594 9.67697C24.6764 9.59891 24.7164 9.42531 24.6494 9.289C24.5824 9.15268 24.4334 9.10608 24.3164 9.18414L23.2702 9.88785C23.1532 9.96591 23.1131 10.1395 23.1802 10.2758C23.2472 10.4121 23.3962 10.4587 23.5132 10.3807ZM22.068 8.48978L22.6721 7.27113C22.7391 7.13481 22.7001 6.96121 22.5831 6.88199C22.466 6.80393 22.317 6.84937 22.249 6.98568L21.6449 8.20434C21.5779 8.34065 21.6169 8.51426 21.7339 8.59347C21.8509 8.67154 22.001 8.6261 22.068 8.48978ZM20.0056 7.69287C20.0056 7.85015 19.8956 7.97831 19.7605 7.97831C19.6255 7.97831 19.5155 7.85015 19.5155 7.69287V6.28544C19.5155 6.12816 19.6255 6 19.7605 6C19.8956 6 20.0056 6.12816 20.0056 6.28544V7.69287ZM25.2586 30.8512C25.1236 30.8512 25.0136 30.723 25.0136 30.5657C25.0136 30.4084 25.1236 30.2803 25.2586 30.2803H29.7505C29.8855 30.2803 29.9955 30.4084 29.9955 30.5657C29.9955 30.723 29.8855 30.8512 29.7505 30.8512H25.2586ZM23.6303 22.1808H31.3809C31.5509 22.1808 31.7059 22.2623 31.818 22.3928C31.93 22.5233 32 22.7039 32 22.9019V28.9649C32 29.163 31.93 29.3436 31.818 29.4741C31.7059 29.6046 31.5509 29.6861 31.3809 29.6861H23.6303C23.4603 29.6861 23.3053 29.6046 23.1933 29.4741C23.0812 29.3436 23.0112 29.163 23.0112 28.9649V22.9019C23.0112 22.7039 23.0812 22.5233 23.1933 22.3928C23.3053 22.2623 23.4593 22.1808 23.6303 22.1808ZM31.3799 22.7517H23.6303C23.5953 22.7517 23.5633 22.7691 23.5393 22.7959C23.5163 22.8227 23.5013 22.8612 23.5013 22.902V28.965C23.5013 29.0057 23.5163 29.043 23.5393 29.071C23.5623 29.0978 23.5953 29.1153 23.6303 29.1153H31.3809C31.4159 29.1153 31.4489 29.0978 31.4719 29.071C31.4949 29.043 31.5099 29.0057 31.5099 28.965V22.902C31.5099 22.8612 31.4949 22.8239 31.4719 22.7959C31.4479 22.7691 31.4159 22.7517 31.3799 22.7517ZM13.4717 29.8878C13.4947 29.8878 13.5167 29.8773 13.5317 29.8587C13.5467 29.8412 13.5567 29.8156 13.5567 29.7888C13.5567 29.762 13.5477 29.7363 13.5317 29.7189C13.5167 29.7014 13.4947 29.6897 13.4717 29.6897C13.4497 29.6897 13.4297 29.6991 13.4147 29.7142L13.4107 29.7189C13.3957 29.7363 13.3866 29.7608 13.3866 29.7888C13.3866 29.8167 13.3957 29.8412 13.4107 29.8587L13.4117 29.8598C13.4257 29.8773 13.4477 29.8878 13.4717 29.8878ZM13.8777 30.2618C13.9818 30.1406 14.0458 29.974 14.0458 29.7888C14.0458 29.6035 13.9818 29.4369 13.8777 29.3158C13.7737 29.1946 13.6307 29.12 13.4717 29.12C13.4047 29.12 13.3406 29.134 13.2806 29.1585L12.9586 28.8032C12.9136 28.7484 12.8506 28.7134 12.7805 28.7134H12.7125V28.061H13.4317L13.8707 28.5422C13.8507 28.6109 13.8397 28.6843 13.8397 28.76C13.8397 28.9441 13.9037 29.1107 14.0078 29.2319L14.0088 29.2331L14.0078 29.2342C14.1118 29.3554 14.2548 29.43 14.4138 29.43C14.5719 29.43 14.7149 29.3554 14.8189 29.2342L14.8199 29.2331C14.9239 29.1119 14.9879 28.9453 14.9879 28.7612C14.9879 28.576 14.9239 28.4094 14.8199 28.2882C14.7159 28.167 14.5728 28.0925 14.4138 28.0925C14.3428 28.0925 14.2748 28.1076 14.2118 28.1356L13.7047 27.5787C13.6597 27.5251 13.5977 27.4913 13.5287 27.4913H12.7135L12.7125 26.8458H14.3998C14.4278 26.9146 14.4658 26.9775 14.5128 27.0322L14.5148 27.0346C14.6198 27.1557 14.7629 27.2303 14.9199 27.2303C15.0769 27.2303 15.22 27.1557 15.325 27.0346L15.327 27.0322C15.431 26.9111 15.495 26.7433 15.495 26.5604C15.495 26.3856 15.437 26.2272 15.343 26.1072C15.338 26.1002 15.333 26.0932 15.327 26.0862C15.2229 25.9651 15.0799 25.8905 14.9209 25.8905C14.7619 25.8905 14.6188 25.9651 14.5148 26.0862L14.5158 26.0874L14.5148 26.0885C14.4688 26.1421 14.4298 26.2062 14.4018 26.275H12.7145V25.6295H13.5297C13.5997 25.6295 13.6627 25.5957 13.7077 25.5398L14.3218 24.8606C14.3908 24.8944 14.4668 24.9142 14.5458 24.9142C14.7029 24.9142 14.8459 24.8396 14.9509 24.7184L14.9529 24.7161C15.0569 24.5938 15.1209 24.4272 15.1209 24.2443C15.1209 24.059 15.0569 23.8924 14.9529 23.7712C14.8489 23.6501 14.7059 23.5755 14.5468 23.5755C14.3898 23.5755 14.2468 23.6501 14.1418 23.7712L14.1398 23.7724C14.0358 23.8947 13.9717 24.0613 13.9717 24.2443C13.9717 24.3107 13.9807 24.3759 13.9967 24.4365L13.4346 25.0586H12.7165V24.3328H12.7845C12.8545 24.3328 12.9175 24.299 12.9626 24.2431L13.2616 23.9122C13.3386 23.9565 13.4256 23.9821 13.5167 23.9821C13.6757 23.9821 13.8187 23.9075 13.9227 23.7864C14.0267 23.6652 14.0908 23.4974 14.0908 23.3134C14.0908 23.1398 14.0337 22.9813 13.9387 22.8613C13.9337 22.8543 13.9277 22.8462 13.9217 22.8403C13.8177 22.7192 13.6747 22.6446 13.5157 22.6446C13.3586 22.6446 13.2156 22.7192 13.1106 22.8403L13.1086 22.8415C13.0046 22.9638 12.9406 23.1304 12.9406 23.3133C12.9406 23.3658 12.9456 23.4159 12.9556 23.4648L12.7145 23.7316V21.645C12.7935 21.603 12.8765 21.5762 12.9586 21.5646C13.1156 21.5424 13.2736 21.5739 13.4136 21.6485C13.5537 21.7242 13.6757 21.843 13.7617 21.9968C13.8277 22.1145 13.8727 22.2543 13.8887 22.4104H13.8897C13.8907 22.4244 13.8937 22.4384 13.8967 22.4512C13.9317 22.6027 14.0658 22.6924 14.1958 22.6504C14.4578 22.5677 14.6989 22.6283 14.8919 22.7774C14.995 22.8566 15.084 22.9615 15.157 23.0827C15.231 23.2073 15.288 23.3483 15.324 23.4997C15.406 23.8481 15.372 24.2442 15.173 24.5926C15.17 24.5972 15.168 24.6031 15.166 24.6077C15.099 24.744 15.139 24.9177 15.256 24.9957C15.5451 25.1891 15.7211 25.4815 15.8031 25.8054C15.8621 26.0396 15.8741 26.2913 15.8451 26.5359C15.8161 26.7841 15.7461 27.0241 15.6431 27.2326C15.4941 27.5332 15.277 27.7662 15.016 27.8559C14.983 27.8676 14.953 27.8862 14.925 27.9142C14.8229 28.0167 14.8119 28.1961 14.8999 28.315C15.011 28.4653 15.085 28.7519 15.097 29.0851C15.106 29.3309 15.079 29.5954 15.007 29.8412C14.938 30.0766 14.8269 30.2933 14.6659 30.4552C14.4929 30.63 14.2558 30.7465 13.9438 30.7628C13.8458 30.7663 13.7557 30.8397 13.7217 30.9538C13.7177 30.9667 13.7247 30.9422 13.7177 30.9667C13.6517 31.1752 13.5117 31.3325 13.3257 31.4117C13.1546 31.4851 12.9456 31.4979 12.7156 31.4327V29.3146L12.9346 29.5581C12.9116 29.6303 12.8996 29.7084 12.8996 29.7888C12.8996 29.9717 12.9636 30.1395 13.0676 30.2606L13.0696 30.2618C13.1747 30.383 13.3167 30.4575 13.4747 30.4575C13.6297 30.4587 13.7737 30.383 13.8777 30.2618ZM13.5727 23.2435C13.5577 23.226 13.5357 23.2143 13.5127 23.2143C13.4887 23.2143 13.4677 23.2248 13.4527 23.2423L13.4517 23.2435C13.4367 23.2609 13.4276 23.2854 13.4276 23.3134C13.4276 23.3413 13.4367 23.3658 13.4517 23.3833C13.4667 23.4008 13.4887 23.4112 13.5117 23.4112C13.5347 23.4112 13.5567 23.4008 13.5717 23.3821C13.5867 23.3646 13.5967 23.339 13.5967 23.3122C13.5967 23.2877 13.5897 23.2668 13.5787 23.2493L13.5727 23.2435ZM14.3558 28.6867L14.3528 28.6902C14.3378 28.7077 14.3278 28.7333 14.3278 28.7601C14.3278 28.7881 14.3368 28.8125 14.3518 28.8312L14.3528 28.83C14.3678 28.8475 14.3898 28.8591 14.4128 28.8591C14.4368 28.8591 14.4578 28.8486 14.4738 28.8312C14.4888 28.8137 14.4978 28.7881 14.4978 28.7601C14.4978 28.7333 14.4878 28.7077 14.4728 28.6902C14.4578 28.6727 14.4358 28.6611 14.4128 28.6611C14.3908 28.6622 14.3708 28.6715 14.3558 28.6867ZM14.4768 24.3071L14.4808 24.3129L14.4838 24.3164C14.4988 24.3339 14.5199 24.3443 14.5439 24.3443C14.5679 24.3443 14.5889 24.3339 14.6039 24.3164L14.6049 24.3152C14.6199 24.2977 14.6289 24.2733 14.6289 24.2453C14.6289 24.2185 14.6199 24.1929 14.6039 24.1754C14.5889 24.1579 14.5669 24.1463 14.5439 24.1463C14.5199 24.1463 14.4989 24.1568 14.4838 24.1742L14.4828 24.1754C14.4678 24.1929 14.4588 24.2173 14.4588 24.2453C14.4588 24.2686 14.4648 24.2907 14.4768 24.3071ZM14.9789 26.4904C14.9639 26.4729 14.9419 26.4613 14.9189 26.4613C14.8959 26.4613 14.8739 26.4718 14.8589 26.4904L14.8579 26.4892C14.8429 26.5067 14.8339 26.5323 14.8339 26.5603C14.8339 26.5883 14.8429 26.6127 14.8579 26.6302L14.8589 26.6314C14.8739 26.6488 14.8949 26.6593 14.9189 26.6593C14.9429 26.6593 14.9639 26.6488 14.9789 26.6314L14.9799 26.6302C14.9949 26.6127 15.0039 26.5883 15.0039 26.5603C15.0039 26.5358 14.9969 26.5149 14.9849 26.4974L14.9789 26.4904ZM14.1688 21.6869C14.0307 21.4411 13.8377 21.2512 13.6157 21.1312C13.3946 21.0124 13.1456 20.9634 12.8985 20.9984C12.7055 21.0252 12.5125 21.1032 12.3334 21.2396C12.2614 21.2943 12.2224 21.3852 12.2224 21.4784L12.2214 31.6425C12.2214 31.7741 12.2974 31.8836 12.4004 31.9174L12.4144 31.9232C12.8105 32.084 13.1846 32.0782 13.4886 31.9477C13.7637 31.8289 13.9827 31.6098 14.1127 31.3186C14.4738 31.2685 14.7589 31.1112 14.9809 30.8875C15.2129 30.6533 15.37 30.3504 15.466 30.0265C15.558 29.7131 15.592 29.3764 15.58 29.063C15.569 28.7694 15.516 28.4909 15.431 28.2649C15.69 28.096 15.9041 27.8315 16.0601 27.5181C16.1951 27.2455 16.2861 26.9344 16.3231 26.614C16.3611 26.2913 16.3451 25.9592 16.2661 25.647C16.1711 25.2707 15.986 24.9258 15.695 24.6625C15.87 24.2314 15.888 23.7666 15.79 23.3518C15.74 23.1374 15.659 22.9359 15.552 22.7588C15.4439 22.5794 15.3099 22.4232 15.1569 22.3044C14.9158 22.118 14.6278 22.019 14.3147 22.0504C14.2817 21.9188 14.2308 21.7976 14.1688 21.6869ZM10.8652 25.0761C11.0003 25.0679 11.1153 25.1879 11.1223 25.344C11.1293 25.5013 11.0263 25.6353 10.8923 25.6434C10.7462 25.6528 10.6542 25.732 10.6062 25.8392C10.5732 25.9126 10.5572 25.9988 10.5552 26.0897V26.1002C10.5562 26.113 10.5562 26.127 10.5562 26.1398C10.5592 26.2202 10.5732 26.3017 10.5972 26.3786C10.6482 26.5417 10.7442 26.6745 10.8682 26.6978C11.0013 26.7223 11.0923 26.8679 11.0713 27.0229C11.0503 27.1778 10.9253 27.2839 10.7922 27.2594C10.4732 27.2 10.2461 26.9157 10.1381 26.572C10.1271 26.5359 10.1161 26.4974 10.1081 26.4601C9.87507 26.5475 9.70904 26.7304 9.60703 26.9565C9.52501 27.1394 9.481 27.3503 9.475 27.5658C9.469 27.7837 9.50101 28.0051 9.57102 28.2066C9.69205 28.5526 9.92708 28.8323 10.2682 28.9033C10.4012 28.9301 10.4902 29.0781 10.4672 29.233C10.4442 29.388 10.3172 29.4917 10.1841 29.4649C9.87908 29.402 9.63003 29.2354 9.44001 29.0058C9.376 29.1911 9.348 29.4043 9.356 29.6163C9.363 29.7899 9.39501 29.9624 9.45302 30.1196C9.50803 30.2711 9.58804 30.4074 9.69306 30.5158C9.80008 30.6264 9.93511 30.7092 10.0991 30.7476C10.0921 30.6194 10.0971 30.4843 10.1181 30.3433C10.1401 30.1884 10.2662 30.0835 10.3992 30.1091C10.5322 30.1348 10.6222 30.2816 10.6002 30.4365C10.5712 30.6334 10.5852 30.8082 10.6312 30.955C10.6732 31.0878 10.7433 31.1997 10.8343 31.2836C10.9283 31.3709 11.0463 31.4304 11.1803 31.4572C11.3174 31.4839 11.4714 31.477 11.6354 31.4304L11.6334 21.6439C11.5544 21.602 11.4724 21.5763 11.3904 21.5647C11.2323 21.5425 11.0743 21.5728 10.9343 21.6486C10.7933 21.7243 10.6713 21.8431 10.5852 21.9969C10.5512 22.0575 10.5232 22.1239 10.5012 22.195C10.5812 22.2381 10.6602 22.2917 10.7393 22.3546C10.7613 22.3371 10.7833 22.3208 10.8063 22.3057C10.9313 22.2276 11.0793 22.1938 11.2434 22.2206C11.3774 22.2428 11.4694 22.3872 11.4504 22.5422C11.4314 22.6983 11.3074 22.8066 11.1733 22.7833C11.1183 22.774 11.0713 22.7833 11.0363 22.8055C11.0103 22.8218 10.9873 22.8463 10.9703 22.8765C10.9513 22.9103 10.9383 22.9511 10.9323 22.9965C10.9223 23.0781 10.9353 23.1713 10.9783 23.2633C11.0423 23.402 10.9973 23.5744 10.8793 23.649C10.7603 23.7236 10.6122 23.6711 10.5482 23.5337C10.4532 23.3286 10.4242 23.113 10.4492 22.9173C10.4532 22.8859 10.4582 22.8544 10.4652 22.8241C10.1572 22.5748 9.83809 22.5678 9.57805 22.7099C9.45103 22.7787 9.33601 22.8835 9.24099 23.014C9.14497 23.1445 9.07096 23.3006 9.02495 23.4707C8.90293 23.9262 8.99595 24.4913 9.46103 24.969C9.56204 25.0727 9.57205 25.2533 9.48303 25.371C9.39401 25.4886 9.23899 25.5003 9.13796 25.3966C9.05394 25.3104 8.97993 25.2218 8.91291 25.1321C8.72788 25.315 8.60886 25.5469 8.54584 25.7974C8.48583 26.0339 8.47483 26.289 8.50384 26.5384C8.53384 26.7877 8.60586 27.0312 8.71087 27.2421C8.78589 27.3912 8.87691 27.524 8.98292 27.6301C8.98292 27.6033 8.98292 27.5765 8.98392 27.5497C8.99293 27.2491 9.05494 26.9532 9.17196 26.6933C9.35099 26.2972 9.65305 25.9873 10.0841 25.8778C10.1011 25.7729 10.1301 25.6727 10.1711 25.5795C10.2952 25.3011 10.5212 25.0982 10.8652 25.0761Z" fill="white"/>
</svg>
