<svg width="125" height="110" viewBox="0 0 125 110" fill="none" xmlns="http://www.w3.org/2000/svg">
<g opacity="0.7">
<path d="M116.421 93.1895H104.221V94.719H116.421V93.1895Z" fill="#CFD1D2"/>
<path d="M19.0384 89.264L8.14453 101.684L9.01852 102.794L19.9123 90.3745L19.0384 89.264Z" fill="#CFD1D2"/>
<path d="M29.3939 87.7059L28.4863 88.7773L39.9013 102.783L40.8089 101.711L29.3939 87.7059Z" fill="#CFD1D2"/>
<path d="M84.499 7.12404L83.25 7.40625L86.3415 27.2262L87.5905 26.944L84.499 7.12404Z" fill="#CFD1D2"/>
<path d="M109.027 17.8887L94.8184 28.3105L95.4797 29.6167L109.688 19.1948L109.027 17.8887Z" fill="#CFD1D2"/>
<path d="M4.67246 61.3399L3.9082 62.5625L21.0004 78.0393L21.7647 76.8167L4.67246 61.3399Z" fill="#CFD1D2"/>
<path d="M98.1172 27.0868L88.625 33.1244L79.1328 27.0868L88.625 21.0488L98.1172 27.0868Z" fill="#6D6E70"/>
<path d="M79.1328 27.0859V39.4417L88.625 45.4797V33.1235L79.1328 27.0859Z" fill="#D0D6DB"/>
<path d="M98.0879 27.0859V39.4417L88.5957 45.4797V33.1235L98.0879 27.0859Z" fill="#A2A6AC"/>
<path d="M105.027 86.686L95.5351 92.724L86.043 86.686L95.5351 80.6484L105.027 86.686Z" fill="#6D6E70"/>
<path d="M86.043 86.6875V99.0433L95.5351 105.081V92.7255L86.043 86.6875Z" fill="#D0D6DB"/>
<path d="M105 86.6875V99.0433L95.5078 105.081V92.7255L105 86.6875Z" fill="#A2A6AC"/>
<path d="M33.7129 77.4204L24.2207 83.4583L14.7285 77.4204L24.2207 71.3828L33.7129 77.4204Z" fill="#6D6E70"/>
<path d="M14.7285 77.418V89.7742L24.2207 95.8117V83.4559L14.7285 77.418Z" fill="#D0D6DB"/>
<path d="M33.6836 77.418V89.7742L24.1914 95.8117V83.4559L33.6836 77.418Z" fill="#A2A6AC"/>
<path d="M46.8562 99.1113H38.2773V109.436H46.8562V99.1113Z" fill="#4A4A4B"/>
<path d="M88.1687 0H79.5898V10.3251H88.1687V0Z" fill="#4A4A4B"/>
<path d="M112.87 12.6602H104.291V22.9852H112.87V12.6602Z" fill="#4A4A4B"/>
<path d="M125.001 88.793H116.422V99.118H125.001V88.793Z" fill="#4A4A4B"/>
<path d="M10.4382 99.1113H1.85938V109.436H10.4382V99.1113Z" fill="#4A4A4B"/>
<path d="M8.57881 54.9883H0V65.3133H8.57881V54.9883Z" fill="#4A4A4B"/>
<path d="M32.7 78.9044L32.0586 77.5835L34.2534 76.0396L34.8947 77.3606L32.7 78.9044ZM35.992 76.5891L35.3506 75.2681L37.5454 73.7243L38.1867 75.0453L35.992 76.5891ZM39.2843 74.2737L38.6429 72.9528L40.8377 71.4093L41.4791 72.7303L39.2843 74.2737ZM42.5763 71.9584L41.9349 70.6374L44.1297 69.094L44.7707 70.415L42.5763 71.9584ZM45.8686 69.643L45.2273 68.3221L47.422 66.7782L48.0634 68.0992L45.8686 69.643ZM49.1606 67.3277L48.5193 66.0067L50.714 64.4629L51.3554 65.7839L49.1606 67.3277Z" fill="#4A4A4B"/>
<path d="M90.5728 83.8994L90.1847 83.671L90.7432 82.297L91.1313 82.5254L90.5728 83.8994ZM89.0431 82.9984L86.7598 81.6541L87.3183 80.2801L89.6016 81.6248L89.0431 82.9984ZM85.6182 80.9815L83.335 79.6368L83.8934 78.2628L86.1767 79.6075L85.6182 80.9815ZM82.193 78.9647L79.9097 77.62L80.4682 76.2459L82.7515 77.5907L82.193 78.9647ZM78.7681 76.9478L76.4849 75.6031L77.0433 74.2291L79.3266 75.5738L78.7681 76.9478ZM75.3429 74.9309L73.0597 73.5862L73.6181 72.2122L75.9014 73.5569L75.3429 74.9309ZM71.918 72.914L69.6348 71.5693L70.1932 70.1953L72.4765 71.54L71.918 72.914Z" fill="#4A4A4B"/>
<path d="M72.7841 53.8562L72.002 52.6504L74.0056 50.7682L74.7878 51.9739L72.7841 53.8562ZM75.7899 51.0326L75.0078 49.8268L77.0115 47.9445L77.7936 49.1503L75.7899 51.0326ZM78.7955 48.2086L78.0133 47.0028L80.0174 45.1205L80.7995 46.3263L78.7955 48.2086ZM81.8013 45.3849L81.0192 44.1792L83.0229 42.2969L83.805 43.5026L81.8013 45.3849Z" fill="#4A4A4B"/>
<path d="M76.4088 51.3869L60.3987 61.5706L44.3887 51.3869L60.3987 41.2031L76.4088 51.3869Z" fill="#EAB6AC"/>
<path d="M44.3887 51.3867V72.2269L60.3987 82.4106V61.5705L44.3887 51.3867Z" fill="#D0D6DB"/>
<path d="M76.3597 51.3867V72.2269L60.3496 82.4106V61.5705L76.3597 51.3867Z" fill="#A2A6AC"/>
</g>
</svg>
