<svg width="65" height="65" viewBox="0 0 65 65" fill="none" xmlns="http://www.w3.org/2000/svg">
<mask id="path-1-inside-1_294_3273" fill="white">
<path fill-rule="evenodd" clip-rule="evenodd" d="M19.5004 55.8871V58.5377C19.5004 59.2661 19.0803 59.9259 18.4247 60.213L15.7241 61.4042C15.4633 61.5181 15.3155 61.8028 15.3755 62.0852C15.4356 62.3652 15.6779 62.5693 15.9549 62.5693H33.6822C33.9661 62.5693 34.2015 62.3652 34.2616 62.0828C34.3216 61.8005 34.1738 61.5157 33.913 61.4018L31.2124 60.213C30.5568 59.9258 30.1368 59.2661 30.1368 58.5377V55.8871C30.1368 55.5525 29.8713 55.2796 29.5458 55.2796C29.2204 55.2796 28.9549 55.5525 28.9549 55.8871V58.5377C28.9549 59.7526 29.6589 60.8513 30.7461 61.3307L30.8061 61.3568H18.8331L18.8931 61.3307C19.978 60.8513 20.682 59.7526 20.682 58.5377V55.8871C20.682 55.5525 20.4165 55.2796 20.0911 55.2796C19.7656 55.2796 19.5004 55.5525 19.5004 55.8871ZM23.0458 55.8871V57.102C23.0458 58.1081 23.8375 58.9244 24.8185 58.9244C25.7996 58.9244 26.5913 58.1081 26.5913 57.102V55.8871C26.5913 55.5525 26.3258 55.2796 26.0004 55.2796C25.6749 55.2796 25.4094 55.5525 25.4094 55.8871V57.102C25.4094 57.4366 25.144 57.7095 24.8185 57.7095C24.4931 57.7095 24.2276 57.4366 24.2276 57.102V55.8871C24.2276 55.5525 23.9622 55.2796 23.6367 55.2796C23.3113 55.2796 23.0458 55.5525 23.0458 55.8871ZM5.31854 49.8123H42.5458C42.8713 49.8123 43.1367 49.5394 43.1367 49.2048C43.1367 48.8702 42.8713 48.5973 42.5458 48.5973H5.31854V27.3357C5.31854 26.3296 6.11024 25.5132 7.09126 25.5132H24.8185C25.144 25.5132 25.4094 25.2403 25.4094 24.9058C25.4094 24.5712 25.144 24.2983 24.8185 24.2983H7.09126C5.45935 24.2983 4.13672 25.658 4.13672 27.3357V51.6347C4.13672 53.3124 5.45935 54.6721 7.09126 54.6721H42.5458C44.1777 54.6721 45.5004 53.3124 45.5004 51.6347V33.4104C45.5004 33.0758 45.2349 32.8029 44.9094 32.8029C44.584 32.8029 44.3185 33.0758 44.3185 33.4104V51.6347C44.3185 52.6408 43.5268 53.4572 42.5458 53.4572H7.09126C6.11024 53.4572 5.31854 52.6408 5.31854 51.6347V49.8123ZM34.2731 34.0179C34.2731 33.6833 34.0076 33.4104 33.6822 33.4104H30.1367C29.8113 33.4104 29.5458 33.6833 29.5458 34.0179V46.7749C29.5458 47.1095 29.8113 47.3824 30.1367 47.3824H33.6822C34.0076 47.3824 34.2731 47.1095 34.2731 46.7749V34.0179ZM36.0458 34.0179V46.7749C36.0458 47.1095 36.3113 47.3824 36.6367 47.3824H40.1822C40.5076 47.3824 40.7731 47.1095 40.7731 46.7749V34.6254C40.7731 34.2908 40.5076 34.0179 40.1822 34.0179C39.8567 34.0179 39.5913 34.2908 39.5913 34.6254V46.1674H37.2276V34.0179C37.2276 33.6833 36.9622 33.4104 36.6367 33.4104C36.3113 33.4104 36.0458 33.6833 36.0458 34.0179ZM27.7731 38.2702C27.7731 37.9356 27.5076 37.6628 27.1822 37.6628H23.6367C23.3113 37.6628 23.0458 37.9356 23.0458 38.2702V46.7749C23.0458 47.1095 23.3113 47.3824 23.6367 47.3824H27.1822C27.5076 47.3824 27.7731 47.1095 27.7731 46.7749V38.2702ZM14.7731 36.4478C14.7731 36.1132 14.5076 35.8403 14.1822 35.8403H10.6367C10.3113 35.8403 10.0458 36.1132 10.0458 36.4478V46.7749C10.0458 47.1095 10.3113 47.3824 10.6367 47.3824H14.1822C14.5076 47.3824 14.7731 47.1095 14.7731 46.7749V36.4478ZM21.2731 41.9151C21.2731 41.5805 21.0076 41.3076 20.6822 41.3076H17.1367C16.8113 41.3076 16.5458 41.5805 16.5458 41.9151V46.7749C16.5458 47.1095 16.8113 47.3824 17.1367 47.3824H20.6822C21.0076 47.3824 21.2731 47.1095 21.2731 46.7749V41.9151ZM13.5913 37.0553V46.1674H11.2276V37.0553H13.5913ZM26.5913 38.8777V46.1674H24.2276V38.8777H26.5913ZM33.0913 34.6254V46.1674H30.7276V34.6254H33.0913ZM20.0913 42.5226V46.1674H17.7276V42.5226H20.0913ZM29.0678 28.1807L26.1733 31.1587C25.9401 31.0448 25.6816 30.9807 25.4092 30.9807C24.4282 30.9807 23.6365 31.797 23.6365 32.8032C23.6365 33.0191 23.6711 33.2279 23.7427 33.4201L19.8302 36.7114C19.5601 36.5453 19.2462 36.448 18.9092 36.448C18.6599 36.448 18.4314 36.5002 18.2167 36.5928L13.9742 31.8374C14.1057 31.5811 14.1819 31.2892 14.1819 30.9807C14.1819 29.9746 13.3902 29.1583 12.4092 29.1583C11.4282 29.1583 10.6365 29.9746 10.6365 30.9807C10.6365 31.9868 11.4282 32.8031 12.4092 32.8031C12.6585 32.8031 12.887 32.7509 13.1017 32.6584L17.3442 37.4138C17.2126 37.6701 17.1365 37.9619 17.1365 38.2704C17.1365 39.2765 17.9282 40.0929 18.9092 40.0929C19.8902 40.0929 20.6819 39.2765 20.6819 38.2704C20.6819 38.0545 20.6473 37.8457 20.5758 37.6535L24.4882 34.3622C24.7583 34.5283 25.0722 34.6256 25.4092 34.6256C26.3902 34.6256 27.1819 33.8093 27.1819 32.8032C27.1819 32.5208 27.1173 32.255 27.0111 32.0177L29.9056 29.0396C32.3755 31.377 35.6739 32.8032 39.2958 32.8032C42.4857 32.8032 45.4359 31.6926 47.7806 29.8275L49.7357 31.8421C49.6065 32.1221 49.4864 32.4164 49.3872 32.732C49.3156 32.9479 49.3756 33.1876 49.528 33.3489L56.5125 40.5244C56.6672 40.6882 56.9026 40.7451 57.115 40.6692C58.0429 40.3464 58.8161 39.8695 59.437 39.2359C60.0511 38.5999 60.5173 37.805 60.8312 36.8511C60.9028 36.6327 60.8497 36.3907 60.6904 36.2294L53.7083 29.0514C53.5536 28.8901 53.3251 28.8331 53.1104 28.9019C52.8034 29.004 52.5126 29.125 52.2472 29.2626L50.2875 27.248C52.1018 24.837 53.182 21.8116 53.182 18.5277C53.182 10.6493 46.9591 4.25195 39.2956 4.25195C31.6321 4.25195 25.4093 10.6493 25.4093 18.5277C25.4093 22.2484 26.7988 25.639 29.0678 28.1807ZM53.1402 30.1811L59.587 36.8087C59.3447 37.4209 59.0192 37.9429 58.5991 38.3724C58.179 38.8019 57.6712 39.1365 57.0803 39.3857L50.6335 32.7581C50.8689 32.1435 51.2013 31.6262 51.6214 31.1967C52.0415 30.7672 52.5424 30.4255 53.1402 30.1811ZM18.9089 37.6628C19.2343 37.6628 19.4998 37.9356 19.4998 38.2702C19.4998 38.6048 19.2343 38.8777 18.9089 38.8777C18.5834 38.8777 18.3179 38.6048 18.3179 38.2702C18.3179 37.9356 18.5834 37.6628 18.9089 37.6628ZM25.4089 32.1955C25.7343 32.1955 25.9998 32.4684 25.9998 32.8029C25.9998 33.1375 25.7343 33.4104 25.4089 33.4104C25.0834 33.4104 24.8179 33.1375 24.8179 32.8029C24.8179 32.4684 25.0834 32.1955 25.4089 32.1955ZM12.4089 30.373C12.7343 30.373 12.9998 30.6459 12.9998 30.9805C12.9998 31.3151 12.7343 31.588 12.4089 31.588C12.0834 31.588 11.8179 31.3151 11.8179 30.9805C11.8179 30.6459 12.0834 30.373 12.4089 30.373ZM30.3187 27.7699C32.6177 30.1286 35.7915 31.588 39.2952 31.588C46.3099 31.588 51.9998 25.7363 51.9998 18.5272C51.9998 11.3182 46.31 5.4665 39.2952 5.4665C32.2805 5.4665 26.5907 11.3182 26.5907 18.5272C26.5907 22.127 28.0079 25.3899 30.307 27.7536L30.3187 27.7699ZM49.5233 28.1828C49.2578 28.4818 48.9739 28.7665 48.683 29.0418L50.3911 30.7954C50.5158 30.6364 50.645 30.4846 50.7812 30.3422C50.922 30.1998 51.0698 30.0622 51.2244 29.934L49.5233 28.1828ZM39.2952 6.68114C32.9359 6.68114 27.7725 11.9895 27.7725 18.5269C27.7725 25.0644 32.936 30.3727 39.2952 30.3727C45.6544 30.3727 50.8179 25.0644 50.8179 18.5269C50.8179 11.9895 45.6544 6.68114 39.2952 6.68114ZM39.2952 7.8961C45.0035 7.8961 49.6361 12.6586 49.6361 18.5269C49.6361 24.3953 45.0035 29.1578 39.2952 29.1578C33.5869 29.1578 28.9543 24.3953 28.9543 18.5269C28.9543 12.6586 33.5869 7.8961 39.2952 7.8961ZM37.227 27.3353V26.1204H39.5907V27.9428C39.5907 28.2774 39.8561 28.5503 40.1816 28.5503C40.507 28.5503 40.7725 28.2774 40.7725 27.9428V25.5129C40.7725 25.1783 40.507 24.9054 40.1816 24.9054H36.6361C36.3107 24.9054 36.0452 25.1783 36.0452 25.5129V27.3353C36.0452 27.6699 36.3107 27.9428 36.6361 27.9428C36.9616 27.9428 37.227 27.6699 37.227 27.3353ZM41.121 15.7933L32.6704 24.476C32.4396 24.7132 32.4396 25.0976 32.6704 25.335C32.9012 25.5723 33.2798 25.5723 33.5106 25.335L41.9541 16.6523V20.0456C41.9541 20.3802 42.2196 20.6531 42.545 20.6531C42.8705 20.6531 43.136 20.3802 43.136 20.0456V15.1858C43.136 14.8512 42.8705 14.5783 42.545 14.5783H37.8178C37.4923 14.5783 37.2269 14.8512 37.2269 15.1858C37.2269 15.5204 37.4923 15.7933 37.8178 15.7933H41.121Z"/>
</mask>
<path fill-rule="evenodd" clip-rule="evenodd" d="M19.5004 55.8871V58.5377C19.5004 59.2661 19.0803 59.9259 18.4247 60.213L15.7241 61.4042C15.4633 61.5181 15.3155 61.8028 15.3755 62.0852C15.4356 62.3652 15.6779 62.5693 15.9549 62.5693H33.6822C33.9661 62.5693 34.2015 62.3652 34.2616 62.0828C34.3216 61.8005 34.1738 61.5157 33.913 61.4018L31.2124 60.213C30.5568 59.9258 30.1368 59.2661 30.1368 58.5377V55.8871C30.1368 55.5525 29.8713 55.2796 29.5458 55.2796C29.2204 55.2796 28.9549 55.5525 28.9549 55.8871V58.5377C28.9549 59.7526 29.6589 60.8513 30.7461 61.3307L30.8061 61.3568H18.8331L18.8931 61.3307C19.978 60.8513 20.682 59.7526 20.682 58.5377V55.8871C20.682 55.5525 20.4165 55.2796 20.0911 55.2796C19.7656 55.2796 19.5004 55.5525 19.5004 55.8871ZM23.0458 55.8871V57.102C23.0458 58.1081 23.8375 58.9244 24.8185 58.9244C25.7996 58.9244 26.5913 58.1081 26.5913 57.102V55.8871C26.5913 55.5525 26.3258 55.2796 26.0004 55.2796C25.6749 55.2796 25.4094 55.5525 25.4094 55.8871V57.102C25.4094 57.4366 25.144 57.7095 24.8185 57.7095C24.4931 57.7095 24.2276 57.4366 24.2276 57.102V55.8871C24.2276 55.5525 23.9622 55.2796 23.6367 55.2796C23.3113 55.2796 23.0458 55.5525 23.0458 55.8871ZM5.31854 49.8123H42.5458C42.8713 49.8123 43.1367 49.5394 43.1367 49.2048C43.1367 48.8702 42.8713 48.5973 42.5458 48.5973H5.31854V27.3357C5.31854 26.3296 6.11024 25.5132 7.09126 25.5132H24.8185C25.144 25.5132 25.4094 25.2403 25.4094 24.9058C25.4094 24.5712 25.144 24.2983 24.8185 24.2983H7.09126C5.45935 24.2983 4.13672 25.658 4.13672 27.3357V51.6347C4.13672 53.3124 5.45935 54.6721 7.09126 54.6721H42.5458C44.1777 54.6721 45.5004 53.3124 45.5004 51.6347V33.4104C45.5004 33.0758 45.2349 32.8029 44.9094 32.8029C44.584 32.8029 44.3185 33.0758 44.3185 33.4104V51.6347C44.3185 52.6408 43.5268 53.4572 42.5458 53.4572H7.09126C6.11024 53.4572 5.31854 52.6408 5.31854 51.6347V49.8123ZM34.2731 34.0179C34.2731 33.6833 34.0076 33.4104 33.6822 33.4104H30.1367C29.8113 33.4104 29.5458 33.6833 29.5458 34.0179V46.7749C29.5458 47.1095 29.8113 47.3824 30.1367 47.3824H33.6822C34.0076 47.3824 34.2731 47.1095 34.2731 46.7749V34.0179ZM36.0458 34.0179V46.7749C36.0458 47.1095 36.3113 47.3824 36.6367 47.3824H40.1822C40.5076 47.3824 40.7731 47.1095 40.7731 46.7749V34.6254C40.7731 34.2908 40.5076 34.0179 40.1822 34.0179C39.8567 34.0179 39.5913 34.2908 39.5913 34.6254V46.1674H37.2276V34.0179C37.2276 33.6833 36.9622 33.4104 36.6367 33.4104C36.3113 33.4104 36.0458 33.6833 36.0458 34.0179ZM27.7731 38.2702C27.7731 37.9356 27.5076 37.6628 27.1822 37.6628H23.6367C23.3113 37.6628 23.0458 37.9356 23.0458 38.2702V46.7749C23.0458 47.1095 23.3113 47.3824 23.6367 47.3824H27.1822C27.5076 47.3824 27.7731 47.1095 27.7731 46.7749V38.2702ZM14.7731 36.4478C14.7731 36.1132 14.5076 35.8403 14.1822 35.8403H10.6367C10.3113 35.8403 10.0458 36.1132 10.0458 36.4478V46.7749C10.0458 47.1095 10.3113 47.3824 10.6367 47.3824H14.1822C14.5076 47.3824 14.7731 47.1095 14.7731 46.7749V36.4478ZM21.2731 41.9151C21.2731 41.5805 21.0076 41.3076 20.6822 41.3076H17.1367C16.8113 41.3076 16.5458 41.5805 16.5458 41.9151V46.7749C16.5458 47.1095 16.8113 47.3824 17.1367 47.3824H20.6822C21.0076 47.3824 21.2731 47.1095 21.2731 46.7749V41.9151ZM13.5913 37.0553V46.1674H11.2276V37.0553H13.5913ZM26.5913 38.8777V46.1674H24.2276V38.8777H26.5913ZM33.0913 34.6254V46.1674H30.7276V34.6254H33.0913ZM20.0913 42.5226V46.1674H17.7276V42.5226H20.0913ZM29.0678 28.1807L26.1733 31.1587C25.9401 31.0448 25.6816 30.9807 25.4092 30.9807C24.4282 30.9807 23.6365 31.797 23.6365 32.8032C23.6365 33.0191 23.6711 33.2279 23.7427 33.4201L19.8302 36.7114C19.5601 36.5453 19.2462 36.448 18.9092 36.448C18.6599 36.448 18.4314 36.5002 18.2167 36.5928L13.9742 31.8374C14.1057 31.5811 14.1819 31.2892 14.1819 30.9807C14.1819 29.9746 13.3902 29.1583 12.4092 29.1583C11.4282 29.1583 10.6365 29.9746 10.6365 30.9807C10.6365 31.9868 11.4282 32.8031 12.4092 32.8031C12.6585 32.8031 12.887 32.7509 13.1017 32.6584L17.3442 37.4138C17.2126 37.6701 17.1365 37.9619 17.1365 38.2704C17.1365 39.2765 17.9282 40.0929 18.9092 40.0929C19.8902 40.0929 20.6819 39.2765 20.6819 38.2704C20.6819 38.0545 20.6473 37.8457 20.5758 37.6535L24.4882 34.3622C24.7583 34.5283 25.0722 34.6256 25.4092 34.6256C26.3902 34.6256 27.1819 33.8093 27.1819 32.8032C27.1819 32.5208 27.1173 32.255 27.0111 32.0177L29.9056 29.0396C32.3755 31.377 35.6739 32.8032 39.2958 32.8032C42.4857 32.8032 45.4359 31.6926 47.7806 29.8275L49.7357 31.8421C49.6065 32.1221 49.4864 32.4164 49.3872 32.732C49.3156 32.9479 49.3756 33.1876 49.528 33.3489L56.5125 40.5244C56.6672 40.6882 56.9026 40.7451 57.115 40.6692C58.0429 40.3464 58.8161 39.8695 59.437 39.2359C60.0511 38.5999 60.5173 37.805 60.8312 36.8511C60.9028 36.6327 60.8497 36.3907 60.6904 36.2294L53.7083 29.0514C53.5536 28.8901 53.3251 28.8331 53.1104 28.9019C52.8034 29.004 52.5126 29.125 52.2472 29.2626L50.2875 27.248C52.1018 24.837 53.182 21.8116 53.182 18.5277C53.182 10.6493 46.9591 4.25195 39.2956 4.25195C31.6321 4.25195 25.4093 10.6493 25.4093 18.5277C25.4093 22.2484 26.7988 25.639 29.0678 28.1807ZM53.1402 30.1811L59.587 36.8087C59.3447 37.4209 59.0192 37.9429 58.5991 38.3724C58.179 38.8019 57.6712 39.1365 57.0803 39.3857L50.6335 32.7581C50.8689 32.1435 51.2013 31.6262 51.6214 31.1967C52.0415 30.7672 52.5424 30.4255 53.1402 30.1811ZM18.9089 37.6628C19.2343 37.6628 19.4998 37.9356 19.4998 38.2702C19.4998 38.6048 19.2343 38.8777 18.9089 38.8777C18.5834 38.8777 18.3179 38.6048 18.3179 38.2702C18.3179 37.9356 18.5834 37.6628 18.9089 37.6628ZM25.4089 32.1955C25.7343 32.1955 25.9998 32.4684 25.9998 32.8029C25.9998 33.1375 25.7343 33.4104 25.4089 33.4104C25.0834 33.4104 24.8179 33.1375 24.8179 32.8029C24.8179 32.4684 25.0834 32.1955 25.4089 32.1955ZM12.4089 30.373C12.7343 30.373 12.9998 30.6459 12.9998 30.9805C12.9998 31.3151 12.7343 31.588 12.4089 31.588C12.0834 31.588 11.8179 31.3151 11.8179 30.9805C11.8179 30.6459 12.0834 30.373 12.4089 30.373ZM30.3187 27.7699C32.6177 30.1286 35.7915 31.588 39.2952 31.588C46.3099 31.588 51.9998 25.7363 51.9998 18.5272C51.9998 11.3182 46.31 5.4665 39.2952 5.4665C32.2805 5.4665 26.5907 11.3182 26.5907 18.5272C26.5907 22.127 28.0079 25.3899 30.307 27.7536L30.3187 27.7699ZM49.5233 28.1828C49.2578 28.4818 48.9739 28.7665 48.683 29.0418L50.3911 30.7954C50.5158 30.6364 50.645 30.4846 50.7812 30.3422C50.922 30.1998 51.0698 30.0622 51.2244 29.934L49.5233 28.1828ZM39.2952 6.68114C32.9359 6.68114 27.7725 11.9895 27.7725 18.5269C27.7725 25.0644 32.936 30.3727 39.2952 30.3727C45.6544 30.3727 50.8179 25.0644 50.8179 18.5269C50.8179 11.9895 45.6544 6.68114 39.2952 6.68114ZM39.2952 7.8961C45.0035 7.8961 49.6361 12.6586 49.6361 18.5269C49.6361 24.3953 45.0035 29.1578 39.2952 29.1578C33.5869 29.1578 28.9543 24.3953 28.9543 18.5269C28.9543 12.6586 33.5869 7.8961 39.2952 7.8961ZM37.227 27.3353V26.1204H39.5907V27.9428C39.5907 28.2774 39.8561 28.5503 40.1816 28.5503C40.507 28.5503 40.7725 28.2774 40.7725 27.9428V25.5129C40.7725 25.1783 40.507 24.9054 40.1816 24.9054H36.6361C36.3107 24.9054 36.0452 25.1783 36.0452 25.5129V27.3353C36.0452 27.6699 36.3107 27.9428 36.6361 27.9428C36.9616 27.9428 37.227 27.6699 37.227 27.3353ZM41.121 15.7933L32.6704 24.476C32.4396 24.7132 32.4396 25.0976 32.6704 25.335C32.9012 25.5723 33.2798 25.5723 33.5106 25.335L41.9541 16.6523V20.0456C41.9541 20.3802 42.2196 20.6531 42.545 20.6531C42.8705 20.6531 43.136 20.3802 43.136 20.0456V15.1858C43.136 14.8512 42.8705 14.5783 42.545 14.5783H37.8178C37.4923 14.5783 37.2269 14.8512 37.2269 15.1858C37.2269 15.5204 37.4923 15.7933 37.8178 15.7933H41.121Z" fill="url(#paint0_linear_294_3273)" stroke="url(#paint1_linear_294_3273)" stroke-width="2" mask="url(#path-1-inside-1_294_3273)"/>
<defs>
<linearGradient id="paint0_linear_294_3273" x1="4.13672" y1="33.4106" x2="60.8625" y2="33.4106" gradientUnits="userSpaceOnUse">
<stop stop-color="#48AB77"/>
<stop offset="0.461536" stop-color="#EAB6AC"/>
<stop offset="1" stop-color="#B096CF"/>
</linearGradient>
<linearGradient id="paint1_linear_294_3273" x1="4.13672" y1="33.4106" x2="60.8625" y2="33.4106" gradientUnits="userSpaceOnUse">
<stop stop-color="#48AB77"/>
<stop offset="0.461536" stop-color="#EAB6AC"/>
<stop offset="1" stop-color="#B096CF"/>
</linearGradient>
</defs>
</svg>
