<svg width="55" height="60" viewBox="0 0 55 60" fill="none" xmlns="http://www.w3.org/2000/svg">
<g clip-path="url(#clip0_2_33532)">
<mask id="path-1-inside-1_2_33532" fill="white">
<path fill-rule="evenodd" clip-rule="evenodd" d="M36.9772 16.1969C37.3129 16.1078 37.6607 16.0773 38.0037 16.1055C38.6703 16.1617 39.32 16.443 39.8296 16.9398L42.1989 19.2437C42.7061 19.7382 42.9936 20.3664 43.0515 21.0156C43.0805 21.346 43.0491 21.6835 42.9573 22.0069C43.7688 21.7866 44.4958 21.3648 45.0755 20.8023C45.9522 19.9515 46.4956 18.7749 46.4956 17.4741C46.4956 16.1757 45.9522 14.9991 45.0755 14.146C44.1987 13.2952 42.9863 12.7678 41.6458 12.7678C40.3078 12.7678 39.0954 13.2952 38.2162 14.146C37.639 14.7061 37.2042 15.4093 36.9772 16.1944L36.9772 16.1969ZM50.0245 37.0097C50.0245 36.5573 50.4013 36.1917 50.8675 36.1917C51.3336 36.1917 51.7104 36.5573 51.7104 37.0097V51.8549C51.7104 52.8533 51.2901 53.7603 50.6139 54.4166C49.9377 55.0728 49.0029 55.4806 47.9741 55.4806H34.7122L36.0695 56.8001C36.398 57.1189 36.398 57.6368 36.0695 57.9579C35.7411 58.2767 35.2073 58.2767 34.8764 57.9579L32.082 55.2462C32.0603 55.2252 32.0385 55.2041 32.0192 55.1806C31.9733 55.1267 31.9371 55.0705 31.9081 55.0072C31.8574 54.9017 31.8308 54.7869 31.8308 54.6626C31.8308 54.5408 31.8598 54.4236 31.9081 54.3181C31.9395 54.2548 31.9733 54.1986 32.0192 54.1447C32.0385 54.1212 32.0603 54.1002 32.082 54.0791L34.8764 51.3674C35.2049 51.0486 35.7386 51.0486 36.0695 51.3674C36.398 51.6861 36.398 52.2041 36.0695 52.5252L34.7122 53.8447H47.9741C48.5368 53.8447 49.0489 53.622 49.4208 53.2611C49.7927 52.9002 50.0222 52.4033 50.0222 51.8572V37.012L50.0245 37.0097ZM18.1173 6.38626C17.7888 6.06751 17.7888 5.54956 18.1173 5.22844C18.4457 4.90969 18.9795 4.90969 19.3104 5.22844L22.1048 7.94014C22.1265 7.96124 22.1483 7.98233 22.1676 8.00577C22.2135 8.05968 22.2497 8.11593 22.2787 8.17921C22.3294 8.28468 22.356 8.39952 22.356 8.52374C22.356 8.64561 22.327 8.7628 22.2787 8.86827C22.2473 8.93155 22.2135 8.9878 22.1676 9.04171C22.1483 9.06515 22.1265 9.08624 22.1048 9.10734L19.3104 11.819C18.9819 12.1378 18.4482 12.1378 18.1173 11.819C17.7888 11.5003 17.7888 10.9823 18.1173 10.6612L19.477 9.34404L6.21267 9.33935C5.64992 9.33935 5.13789 9.562 4.76598 9.92294C4.39404 10.2839 4.16459 10.7808 4.16459 11.3268V26.172C4.16459 26.6244 3.78781 26.99 3.32166 26.99C2.85552 26.99 2.47873 26.6244 2.47873 26.172V11.3268C2.47873 10.3284 2.89898 9.42134 3.57522 8.76512C4.25146 8.1089 5.1862 7.70108 6.21505 7.70108H19.4769L18.1196 6.3839L18.1173 6.38626ZM6.71523 39.1475C7.0437 39.4662 7.0437 39.9842 6.71523 40.3053C6.38675 40.624 5.85301 40.624 5.5221 40.3053L4.16475 38.9858V51.8552C4.16475 52.4013 4.39419 52.8981 4.76614 53.259C5.13808 53.62 5.65012 53.8426 6.21283 53.8426H21.5108C21.9769 53.8426 22.3537 54.2083 22.3537 54.6606C22.3537 55.113 21.9769 55.4786 21.5108 55.4786L6.21283 55.4809C5.18392 55.4809 4.24924 55.0731 3.57301 54.4169C2.89678 53.7607 2.47652 52.8536 2.47652 51.8552V38.9858L1.11917 40.303C0.7907 40.6217 0.256954 40.6217 -0.0739594 40.303C-0.40243 39.9842 -0.40243 39.4663 -0.0739594 39.1452L2.72044 36.4335C2.74218 36.4124 2.76391 36.3913 2.78807 36.3725C2.84362 36.328 2.90158 36.2928 2.96679 36.2647C3.07548 36.2155 3.19383 36.1897 3.32183 36.1897C3.44742 36.1897 3.56819 36.2178 3.67687 36.2647C3.74208 36.2952 3.80005 36.328 3.8556 36.3725C3.87975 36.3913 3.90149 36.4124 3.92323 36.4335L6.71762 39.1452L6.71523 39.1475ZM41.9125 23.8121C43.6104 23.7464 45.1441 23.0504 46.2696 21.9605C47.453 20.8121 48.1849 19.2277 48.1849 17.4769C48.1849 15.7261 47.453 14.1394 46.2696 12.9933C45.0861 11.8448 43.4534 11.1347 41.6492 11.1347C39.845 11.1347 38.2099 11.8448 37.0288 12.9933C35.9058 14.0831 35.1884 15.5691 35.1208 17.2144C35.0604 17.2332 34.9977 17.2449 34.9349 17.2496C34.7779 17.2613 34.616 17.2308 34.4591 17.1558C34.1233 16.9941 33.7877 16.8464 33.4495 16.7105C33.1186 16.5769 32.7708 16.4503 32.4085 16.3332C32.2443 16.2792 32.109 16.1925 32.0076 16.0777C31.9086 15.9652 31.8385 15.8199 31.8096 15.6535L31.7323 15.2222C31.7685 15.1917 31.7999 15.1589 31.8337 15.1238C32.0269 14.9222 32.1767 14.6785 32.2733 14.4019C32.3409 14.2097 32.4182 14.0105 32.5051 13.8043C32.51 13.7902 32.5172 13.7761 32.522 13.7644C32.5993 13.5863 32.6863 13.4035 32.7781 13.2207C32.9471 12.8902 33.0148 12.541 32.9882 12.1965C32.9592 11.8496 32.836 11.5121 32.6187 11.2121L32.2926 10.7645C32.2081 10.6496 32.1743 10.516 32.1863 10.3871C32.1984 10.2582 32.254 10.1316 32.3554 10.0332L33.9736 8.46757C34.075 8.36913 34.2055 8.31288 34.3359 8.30116C34.4711 8.28944 34.6088 8.3246 34.7272 8.40428L35.1885 8.71835C35.4976 8.92928 35.8454 9.05116 36.2028 9.07694C36.5579 9.10273 36.9177 9.0371 37.2583 8.87304C37.4515 8.78164 37.652 8.69257 37.8621 8.60819C38.0746 8.52382 38.2799 8.44648 38.478 8.38319C38.8378 8.26601 39.1421 8.06444 39.3764 7.7996C39.6107 7.53475 39.7677 7.21132 39.8329 6.8504L39.9295 6.30899C39.9537 6.16837 40.0261 6.05118 40.1251 5.96915C40.2266 5.88712 40.3594 5.8379 40.5067 5.8379L42.7915 5.84024C42.9365 5.84024 43.0693 5.88946 43.1707 5.97149C43.2698 6.05352 43.3398 6.17071 43.3664 6.31134L43.463 6.8504C43.5282 7.21134 43.6852 7.53476 43.9195 7.7996C44.1537 8.06445 44.458 8.26367 44.8179 8.3832C45.0159 8.44883 45.2212 8.52383 45.4338 8.6082C45.6439 8.69257 45.8444 8.78163 46.0376 8.87304C46.3781 9.03711 46.738 9.10273 47.093 9.07695C47.4505 9.04882 47.7983 8.92929 48.1074 8.71835L48.5687 8.40195C48.6871 8.31992 48.8247 8.2871 48.9576 8.29882C49.0904 8.31054 49.2208 8.36445 49.3223 8.46288L50.9356 10.0332C51.0371 10.1316 51.0951 10.2582 51.1071 10.3848C51.1192 10.516 51.083 10.6496 51.0009 10.7645L50.6772 11.2121C50.4598 11.5121 50.3342 11.8496 50.3077 12.1965C50.2811 12.541 50.3487 12.8902 50.5178 13.2207C50.6192 13.4175 50.711 13.6121 50.7907 13.8043L50.7931 13.8066H50.7907C50.8777 14.0129 50.9574 14.2121 51.0226 14.4043C51.1433 14.7535 51.3511 15.0488 51.624 15.2761C51.8969 15.5035 52.2302 15.6558 52.6021 15.7191L53.16 15.8128C53.305 15.8363 53.4257 15.9066 53.5103 16.0027C53.5948 16.1011 53.6455 16.23 53.6455 16.373L53.6431 18.5902C53.6431 18.7308 53.5924 18.8597 53.5078 18.9581C53.4233 19.0542 53.3025 19.1222 53.1576 19.148L52.6021 19.2417C52.2302 19.305 51.8969 19.4574 51.624 19.6847C51.3511 19.9121 51.1458 20.2074 51.0226 20.5566C50.9525 20.7581 50.8753 20.9574 50.7907 21.1542H50.7883C50.7014 21.3581 50.6096 21.5527 50.5154 21.7402C50.3463 22.0706 50.2787 22.4198 50.3053 22.7644C50.3342 23.1112 50.4574 23.4487 50.6748 23.7487L51.0008 24.1964C51.0854 24.3112 51.1192 24.4448 51.1071 24.5737C51.095 24.7026 51.0395 24.8292 50.938 24.9276L49.3198 26.4933C49.2184 26.5917 49.088 26.648 48.9576 26.6597C48.8223 26.6714 48.6846 26.6362 48.5663 26.5565L48.105 26.2425C47.7958 26.0315 47.448 25.9097 47.0906 25.8839C46.7356 25.8581 46.3757 25.9237 46.0352 26.0878C45.8419 26.1792 45.6415 26.2683 45.4314 26.3526C45.4169 26.3573 45.4048 26.3643 45.3903 26.369C45.2019 26.444 45.0087 26.5144 44.8155 26.5776C44.5305 26.6714 44.2793 26.8167 44.0716 27.0042C44.0378 27.0347 44.004 27.0675 43.9726 27.1003L43.5209 27.0253C43.3495 26.9972 43.1997 26.9292 43.0838 26.8331C42.9654 26.7347 42.8736 26.6034 42.8205 26.444C42.6973 26.0901 42.5669 25.755 42.4317 25.4339C42.2916 25.1058 42.1394 24.78 41.9728 24.4565C41.8955 24.3042 41.8641 24.1472 41.8762 23.9948C41.881 23.9362 41.8931 23.8776 41.9124 23.819L41.9125 23.8121ZM45.8976 27.9254C45.9652 27.991 46.0328 28.059 46.0932 28.1293C46.5255 28.6285 46.7792 29.2706 46.7792 29.9668L46.7743 33.2222C46.7743 33.9184 46.5183 34.5605 46.086 35.0574C45.6512 35.5566 45.0426 35.9105 44.3374 36.0277L43.5234 36.1637C43.352 36.1918 43.2022 36.2598 43.0863 36.3559C42.9679 36.4543 42.8762 36.5855 42.823 36.7449C42.6998 37.0988 42.5694 37.434 42.4318 37.7551C42.4245 37.7691 42.4197 37.7832 42.4124 37.7973C42.2724 38.1207 42.125 38.4324 41.9729 38.7348C41.8956 38.8871 41.8642 39.0441 41.8763 39.1965C41.8883 39.3441 41.9439 39.4941 42.0453 39.6324L42.5235 40.291C42.939 40.8629 43.1129 41.5285 43.0549 42.1777C42.9969 42.8246 42.7071 43.4551 42.1951 43.9496L39.8209 46.2488C39.3113 46.741 38.664 47.0199 37.995 47.0761C37.3285 47.1324 36.6425 46.9636 36.0556 46.5605L35.3793 46.0988C35.2368 46.0027 35.0823 45.9464 34.9301 45.9347C34.7731 45.923 34.6113 45.9535 34.4543 46.0285C34.1186 46.1902 33.7829 46.3378 33.4472 46.4738C33.4327 46.4808 33.4182 46.4855 33.4037 46.4902C33.0776 46.6214 32.7443 46.741 32.4062 46.8511C32.242 46.905 32.1067 46.9918 32.0053 47.1066C31.9062 47.2191 31.8362 47.3644 31.8072 47.5308L31.6647 48.3253C31.5415 49.012 31.1768 49.6027 30.6624 50.0245C30.1479 50.4441 29.4862 50.6902 28.7689 50.6902L25.4141 50.6855C24.6967 50.6855 24.035 50.4371 23.523 50.0175C23.0085 49.5956 22.6438 49.005 22.5231 48.3207L22.383 47.5308C22.354 47.3644 22.2839 47.2191 22.1849 47.1066C22.0835 46.9917 21.9482 46.9027 21.784 46.8511C21.4314 46.7363 21.086 46.6097 20.7454 46.4714L20.743 46.4691V46.4714C20.4049 46.3355 20.0692 46.1878 19.7335 46.0261C19.5765 45.9511 19.4147 45.9207 19.2577 45.9324C19.1055 45.9441 18.9509 45.998 18.8084 46.0964L18.1297 46.5605C17.5404 46.9636 16.8545 47.1324 16.1855 47.0761C15.5189 47.0199 14.8692 46.7386 14.3596 46.2418L11.9903 43.9379C11.4831 43.4434 11.1956 42.8152 11.1377 42.166C11.0797 41.5192 11.2536 40.8535 11.6691 40.284L12.1449 39.6277C12.2439 39.4894 12.3018 39.3394 12.3139 39.1918C12.326 39.0394 12.2946 38.8824 12.2173 38.7301C12.0507 38.4043 11.8985 38.0785 11.7584 37.7527C11.7512 37.7387 11.7463 37.7246 11.7415 37.7105C11.6063 37.3941 11.4831 37.0707 11.3696 36.7426C11.314 36.5832 11.2247 36.4519 11.1063 36.3535C10.9904 36.2574 10.8406 36.1894 10.6692 36.1613L9.85041 36.023C9.14277 35.9035 8.53411 35.5496 8.09939 35.0504C7.66706 34.5512 7.41345 33.909 7.41345 33.2129L7.41828 29.9574C7.41828 29.2613 7.67429 28.6191 8.10663 28.1222C8.54137 27.623 9.15001 27.2691 9.85524 27.1519L10.6692 27.016C10.8406 26.9879 10.9904 26.9199 11.1063 26.8238C11.2247 26.7254 11.3164 26.5941 11.3696 26.4347C11.4879 26.0925 11.6183 25.7574 11.7608 25.4269L11.7633 25.4246H11.7608C11.9009 25.0964 12.0531 24.7707 12.2197 24.4472C12.297 24.2949 12.3284 24.1379 12.3163 23.9855C12.3043 23.8379 12.2487 23.6879 12.1473 23.5496L11.6691 22.891C11.2536 22.3191 11.0798 21.6535 11.1377 21.0043C11.1957 20.3574 11.4855 19.7269 11.9975 19.2324L14.3717 16.9332C14.8813 16.441 15.5286 16.1621 16.1976 16.1059C16.8641 16.0496 17.5501 16.2184 18.137 16.6215L18.8133 17.0832C18.9558 17.1793 19.1103 17.2355 19.2625 17.2473C19.4195 17.259 19.5813 17.2285 19.7383 17.1535C20.074 16.9918 20.4097 16.8441 20.7479 16.7082C20.7623 16.7012 20.7768 16.6965 20.7913 16.6918C21.1174 16.5605 21.4507 16.441 21.7888 16.3309C21.9531 16.2769 22.0883 16.1902 22.1898 16.0754C22.2888 15.9629 22.3588 15.8176 22.3878 15.6512L22.5303 14.8567C22.6535 14.17 23.0182 13.5793 23.5326 13.1575C24.0471 12.7379 24.7088 12.4918 25.4262 12.4918L28.7809 12.4965C29.4983 12.4965 30.16 12.7449 30.6721 13.1645C30.7445 13.2254 30.817 13.2887 30.8822 13.3543C30.9063 13.2934 30.9305 13.2348 30.957 13.1762C30.9643 13.1621 30.9691 13.1481 30.9764 13.134C31.073 12.9114 31.172 12.6981 31.2759 12.4942C31.3073 12.4332 31.3193 12.3723 31.3145 12.3137C31.3097 12.2598 31.2879 12.2012 31.2469 12.1473L30.9208 11.6996C30.5996 11.259 30.4668 10.7434 30.5102 10.2418C30.5537 9.74026 30.7783 9.25513 31.1744 8.87311L32.7926 7.30747C33.1863 6.92778 33.6862 6.71215 34.2031 6.66763C34.7175 6.62544 35.2465 6.75435 35.7005 7.06606L36.1618 7.38013C36.2198 7.41997 36.2778 7.44106 36.3333 7.44576C36.3937 7.45044 36.4565 7.43872 36.5193 7.40826C36.7536 7.29576 36.9878 7.19263 37.2221 7.09888C37.4491 7.00748 37.6931 6.91842 37.9491 6.83404C38.0143 6.81294 38.065 6.78013 38.1037 6.73794C38.1399 6.69575 38.1665 6.64185 38.1786 6.57388L38.2752 6.03247C38.3694 5.50279 38.6519 5.04577 39.0504 4.71997C39.449 4.39654 39.9586 4.20435 40.5117 4.20435L42.7965 4.20669C43.3496 4.20669 43.8616 4.39888 44.2577 4.72232C44.6562 5.0481 44.9388 5.50514 45.033 6.03248L45.1296 6.57154C45.1417 6.63717 45.1682 6.69341 45.2045 6.73561C45.2431 6.77779 45.2938 6.81295 45.359 6.8317C45.615 6.91607 45.859 7.0028 46.086 7.0942C46.3203 7.18795 46.5546 7.29107 46.7888 7.40592C46.8516 7.43639 46.9144 7.44811 46.9748 7.44342C47.0304 7.43873 47.0907 7.41764 47.1463 7.37779L47.6076 7.06139C48.0617 6.74967 48.593 6.62076 49.1099 6.66295C49.6267 6.70514 50.1267 6.92311 50.5203 7.30747L52.1337 8.87779C52.525 9.25982 52.7472 9.74497 52.7931 10.2465C52.8366 10.7457 52.7037 11.259 52.3825 11.6997L52.0588 12.1473C52.0178 12.2036 51.9961 12.2598 51.9912 12.3137C51.9864 12.3723 51.9985 12.4332 52.0299 12.4942C52.141 12.7098 52.2472 12.9371 52.3487 13.1762H52.3511C52.4453 13.3965 52.5371 13.6332 52.624 13.8817C52.6457 13.945 52.6796 13.9942 52.723 14.0317C52.7665 14.0668 52.8221 14.0926 52.8921 14.1043L53.45 14.1981C53.9959 14.2895 54.4668 14.5637 54.8025 14.9504C55.1358 15.3371 55.3339 15.8317 55.3339 16.3684L55.3315 18.5856C55.3315 19.1223 55.1334 19.6192 54.8001 20.0036C54.4644 20.3903 53.9934 20.6645 53.45 20.7559L52.8945 20.8497C52.8269 20.8614 52.7689 20.8872 52.7254 20.9223C52.682 20.9598 52.6457 21.009 52.6264 21.0723C52.5443 21.309 52.4525 21.5434 52.3535 21.7754L52.3511 21.7778H52.3535C52.2569 22.0051 52.1506 22.2325 52.0347 22.4598C52.0033 22.5207 51.9912 22.5817 51.996 22.6403C52.0009 22.6942 52.0226 22.7528 52.0637 22.8067L52.3897 23.2543C52.7109 23.695 52.8438 24.2106 52.8003 24.7122C52.7568 25.2137 52.5322 25.6989 52.1361 26.0809L50.5179 27.6465C50.1242 28.0262 49.6243 28.2418 49.1075 28.2864C48.593 28.3285 48.0641 28.1996 47.61 27.8879L47.1487 27.5739C47.0907 27.534 47.0328 27.5129 46.9772 27.5082C46.9168 27.5035 46.854 27.5153 46.7912 27.5457C46.557 27.6582 46.3227 27.7614 46.0884 27.8551C46.0739 27.8621 46.0594 27.8668 46.0425 27.8715C45.9966 27.8903 45.9508 27.9067 45.9049 27.9254L45.8976 27.9254ZM27.0976 21.8786C29.8607 21.8786 32.3652 22.9661 34.1765 24.7239C35.9879 26.4817 37.1086 28.9098 37.1086 31.5933C37.1086 34.2767 35.9879 36.705 34.1765 38.4627C32.3651 40.2205 29.8629 41.308 27.0976 41.308C24.3323 41.308 21.83 40.2205 20.0187 38.4627C18.2073 36.7049 17.0866 34.2767 17.0866 31.5933C17.0866 28.9098 18.2073 26.4816 20.0187 24.7239C21.8301 22.9661 24.3323 21.8786 27.0976 21.8786ZM32.9835 25.8817C31.4764 24.4192 29.3969 23.5169 27.0976 23.5169C24.7983 23.5169 22.7188 24.4215 21.2117 25.8817C19.7046 27.3442 18.7748 29.3622 18.7748 31.5934C18.7748 33.8246 19.707 35.8426 21.2117 37.3051C22.7188 38.7676 24.7983 39.6699 27.0976 39.6699C29.3969 39.6699 31.4764 38.7653 32.9835 37.3051C34.4906 35.8426 35.4205 33.8246 35.4205 31.5934C35.4205 29.3622 34.4882 27.3442 32.9835 25.8817ZM37.0314 17.9575C37.2826 17.7841 37.5773 17.7138 37.8623 17.7372C38.1473 17.7606 38.4251 17.8802 38.64 18.0911L41.0093 20.395C41.2267 20.6059 41.3499 20.8754 41.374 21.1497C41.3982 21.4262 41.3233 21.7122 41.147 21.9583L40.6712 22.6146C40.3934 22.9989 40.234 23.4279 40.2002 23.8684C40.1664 24.3067 40.2533 24.7521 40.4683 25.1739C40.6132 25.4575 40.7509 25.7528 40.8813 26.0575C41.0117 26.3646 41.1301 26.6646 41.2315 26.9599C41.3861 27.4052 41.6493 27.7825 41.9972 28.0708C42.3449 28.3591 42.7676 28.5536 43.2434 28.6333L44.0621 28.7716C44.3689 28.8232 44.6297 28.9732 44.8108 29.1818C44.9944 29.3927 45.1031 29.6693 45.1007 29.9716L45.0958 33.2271C45.0958 33.5271 44.9872 33.8037 44.8036 34.0146C44.6225 34.2232 44.3616 34.3732 44.0549 34.4247L43.241 34.5607C42.7652 34.6404 42.3401 34.8349 41.9923 35.1232C41.6469 35.4115 41.3837 35.7888 41.2267 36.2341C41.1252 36.5295 41.0069 36.8295 40.8765 37.1365C40.8716 37.1505 40.8644 37.1646 40.8596 37.1787C40.7388 37.4576 40.6084 37.7388 40.4635 38.02C40.2485 38.4396 40.1591 38.8872 40.1954 39.3255C40.2316 39.7685 40.3886 40.1974 40.6663 40.5794L41.1446 41.238C41.3233 41.4818 41.3958 41.7677 41.3716 42.0443C41.3474 42.3209 41.2243 42.5904 41.0069 42.799L38.6328 45.0982C38.4154 45.3091 38.1376 45.4287 37.8551 45.4521C37.5701 45.4755 37.2754 45.4029 37.0218 45.2318L36.3455 44.7701C35.9494 44.5005 35.5074 44.3458 35.0534 44.313C34.6017 44.2802 34.1428 44.3646 33.7081 44.5732C33.4158 44.7138 33.1115 44.8474 32.7975 44.974C32.783 44.9787 32.7709 44.9857 32.7565 44.9904C32.4642 45.1076 32.1695 45.213 31.8676 45.3115C31.4088 45.4615 31.0199 45.7169 30.7228 46.0521C30.4257 46.3896 30.2253 46.7998 30.1432 47.2615L30.0007 48.056C29.9475 48.3536 29.7929 48.6068 29.578 48.7825C29.3606 48.9606 29.0756 49.0661 28.7641 49.0638L25.4093 49.0591C25.1002 49.0591 24.8152 48.9536 24.5978 48.7755C24.3828 48.5997 24.2283 48.3466 24.1751 48.049L24.035 47.2591C23.9529 46.7974 23.7525 46.3849 23.4554 46.0474C23.1583 45.7123 22.7694 45.4568 22.3105 45.3044C21.9966 45.2013 21.685 45.0888 21.3807 44.9646V44.9622C21.0667 44.8357 20.7648 44.7021 20.4725 44.5615C20.0402 44.3529 19.5789 44.2661 19.1272 44.3013C18.6708 44.3365 18.2288 44.4888 17.8351 44.7583L17.1564 45.2224C16.9052 45.3958 16.6106 45.4662 16.3255 45.4427C16.0405 45.4193 15.7628 45.2998 15.5478 45.0888L13.1785 42.7849C12.9612 42.574 12.838 42.3045 12.8138 42.0303C12.7897 41.7537 12.8646 41.4678 13.0409 41.2216L13.5167 40.5653C13.7944 40.181 13.9538 39.7521 13.9876 39.3115C14.0214 38.8732 13.9345 38.4279 13.7195 38.006C13.5746 37.7224 13.437 37.4271 13.3065 37.1224C13.3017 37.1083 13.2945 37.0966 13.2896 37.0825C13.1689 36.7989 13.0602 36.513 12.9587 36.22C12.8042 35.7747 12.5409 35.3974 12.1955 35.1091C11.8477 34.8208 11.4251 34.6263 10.9493 34.5466L10.1305 34.4083C9.8238 34.3567 9.56295 34.2067 9.38183 33.9981C9.19828 33.7872 9.08959 33.5106 9.092 33.2083L9.09683 29.9528C9.09683 29.6528 9.20552 29.3762 9.38908 29.1653C9.57022 28.9567 9.83106 28.8067 10.1378 28.7552L10.9517 28.6192C11.4275 28.5395 11.8526 28.345 12.2004 28.0567C12.5457 27.7684 12.809 27.3911 12.966 26.9458C13.0723 26.6411 13.1882 26.3387 13.3162 26.0434H13.3186C13.449 25.7387 13.5867 25.4458 13.7316 25.1621C13.9466 24.7426 14.0359 24.295 13.9997 23.8567C13.9635 23.4137 13.8065 22.9848 13.5287 22.6028L13.0505 21.9442C12.8718 21.7004 12.7993 21.4145 12.8235 21.1379C12.8476 20.8613 12.9708 20.5918 13.1882 20.3832L15.5623 18.084C15.7797 17.8731 16.0575 17.7535 16.34 17.7301C16.625 17.7067 16.9197 17.7793 17.1733 17.9504L17.8496 18.4121C18.2457 18.6817 18.6877 18.8363 19.1417 18.8692C19.5934 18.902 20.0523 18.8176 20.487 18.609C20.7793 18.4684 21.0836 18.3348 21.3976 18.2082C21.4121 18.2035 21.4241 18.1965 21.4386 18.1918C21.7309 18.0746 22.0255 17.9692 22.3274 17.8707C22.7863 17.7207 23.1752 17.4653 23.4723 17.1301C23.7694 16.7926 23.9698 16.3824 24.0519 15.9207L24.1944 15.1262C24.2476 14.8286 24.4021 14.5754 24.6171 14.3997C24.8345 14.2215 25.1195 14.1161 25.431 14.1184L28.7858 14.1231C29.0949 14.1231 29.3799 14.2286 29.5973 14.4067C29.8123 14.5825 29.9668 14.8356 30.02 15.1332L30.1601 15.9231C30.2422 16.3848 30.4426 16.7973 30.7397 17.1348C31.0368 17.4699 31.4256 17.7254 31.8845 17.8778C32.1889 17.9762 32.498 18.091 32.8144 18.2176C33.1284 18.3442 33.4303 18.4778 33.725 18.6184C34.1573 18.827 34.6186 18.9137 35.0703 18.8785C35.5267 18.8434 35.9687 18.691 36.3624 18.4215L37.0411 17.9574L37.0314 17.9575Z"/>
</mask>
<path fill-rule="evenodd" clip-rule="evenodd" d="M36.9772 16.1969C37.3129 16.1078 37.6607 16.0773 38.0037 16.1055C38.6703 16.1617 39.32 16.443 39.8296 16.9398L42.1989 19.2437C42.7061 19.7382 42.9936 20.3664 43.0515 21.0156C43.0805 21.346 43.0491 21.6835 42.9573 22.0069C43.7688 21.7866 44.4958 21.3648 45.0755 20.8023C45.9522 19.9515 46.4956 18.7749 46.4956 17.4741C46.4956 16.1757 45.9522 14.9991 45.0755 14.146C44.1987 13.2952 42.9863 12.7678 41.6458 12.7678C40.3078 12.7678 39.0954 13.2952 38.2162 14.146C37.639 14.7061 37.2042 15.4093 36.9772 16.1944L36.9772 16.1969ZM50.0245 37.0097C50.0245 36.5573 50.4013 36.1917 50.8675 36.1917C51.3336 36.1917 51.7104 36.5573 51.7104 37.0097V51.8549C51.7104 52.8533 51.2901 53.7603 50.6139 54.4166C49.9377 55.0728 49.0029 55.4806 47.9741 55.4806H34.7122L36.0695 56.8001C36.398 57.1189 36.398 57.6368 36.0695 57.9579C35.7411 58.2767 35.2073 58.2767 34.8764 57.9579L32.082 55.2462C32.0603 55.2252 32.0385 55.2041 32.0192 55.1806C31.9733 55.1267 31.9371 55.0705 31.9081 55.0072C31.8574 54.9017 31.8308 54.7869 31.8308 54.6626C31.8308 54.5408 31.8598 54.4236 31.9081 54.3181C31.9395 54.2548 31.9733 54.1986 32.0192 54.1447C32.0385 54.1212 32.0603 54.1002 32.082 54.0791L34.8764 51.3674C35.2049 51.0486 35.7386 51.0486 36.0695 51.3674C36.398 51.6861 36.398 52.2041 36.0695 52.5252L34.7122 53.8447H47.9741C48.5368 53.8447 49.0489 53.622 49.4208 53.2611C49.7927 52.9002 50.0222 52.4033 50.0222 51.8572V37.012L50.0245 37.0097ZM18.1173 6.38626C17.7888 6.06751 17.7888 5.54956 18.1173 5.22844C18.4457 4.90969 18.9795 4.90969 19.3104 5.22844L22.1048 7.94014C22.1265 7.96124 22.1483 7.98233 22.1676 8.00577C22.2135 8.05968 22.2497 8.11593 22.2787 8.17921C22.3294 8.28468 22.356 8.39952 22.356 8.52374C22.356 8.64561 22.327 8.7628 22.2787 8.86827C22.2473 8.93155 22.2135 8.9878 22.1676 9.04171C22.1483 9.06515 22.1265 9.08624 22.1048 9.10734L19.3104 11.819C18.9819 12.1378 18.4482 12.1378 18.1173 11.819C17.7888 11.5003 17.7888 10.9823 18.1173 10.6612L19.477 9.34404L6.21267 9.33935C5.64992 9.33935 5.13789 9.562 4.76598 9.92294C4.39404 10.2839 4.16459 10.7808 4.16459 11.3268V26.172C4.16459 26.6244 3.78781 26.99 3.32166 26.99C2.85552 26.99 2.47873 26.6244 2.47873 26.172V11.3268C2.47873 10.3284 2.89898 9.42134 3.57522 8.76512C4.25146 8.1089 5.1862 7.70108 6.21505 7.70108H19.4769L18.1196 6.3839L18.1173 6.38626ZM6.71523 39.1475C7.0437 39.4662 7.0437 39.9842 6.71523 40.3053C6.38675 40.624 5.85301 40.624 5.5221 40.3053L4.16475 38.9858V51.8552C4.16475 52.4013 4.39419 52.8981 4.76614 53.259C5.13808 53.62 5.65012 53.8426 6.21283 53.8426H21.5108C21.9769 53.8426 22.3537 54.2083 22.3537 54.6606C22.3537 55.113 21.9769 55.4786 21.5108 55.4786L6.21283 55.4809C5.18392 55.4809 4.24924 55.0731 3.57301 54.4169C2.89678 53.7607 2.47652 52.8536 2.47652 51.8552V38.9858L1.11917 40.303C0.7907 40.6217 0.256954 40.6217 -0.0739594 40.303C-0.40243 39.9842 -0.40243 39.4663 -0.0739594 39.1452L2.72044 36.4335C2.74218 36.4124 2.76391 36.3913 2.78807 36.3725C2.84362 36.328 2.90158 36.2928 2.96679 36.2647C3.07548 36.2155 3.19383 36.1897 3.32183 36.1897C3.44742 36.1897 3.56819 36.2178 3.67687 36.2647C3.74208 36.2952 3.80005 36.328 3.8556 36.3725C3.87975 36.3913 3.90149 36.4124 3.92323 36.4335L6.71762 39.1452L6.71523 39.1475ZM41.9125 23.8121C43.6104 23.7464 45.1441 23.0504 46.2696 21.9605C47.453 20.8121 48.1849 19.2277 48.1849 17.4769C48.1849 15.7261 47.453 14.1394 46.2696 12.9933C45.0861 11.8448 43.4534 11.1347 41.6492 11.1347C39.845 11.1347 38.2099 11.8448 37.0288 12.9933C35.9058 14.0831 35.1884 15.5691 35.1208 17.2144C35.0604 17.2332 34.9977 17.2449 34.9349 17.2496C34.7779 17.2613 34.616 17.2308 34.4591 17.1558C34.1233 16.9941 33.7877 16.8464 33.4495 16.7105C33.1186 16.5769 32.7708 16.4503 32.4085 16.3332C32.2443 16.2792 32.109 16.1925 32.0076 16.0777C31.9086 15.9652 31.8385 15.8199 31.8096 15.6535L31.7323 15.2222C31.7685 15.1917 31.7999 15.1589 31.8337 15.1238C32.0269 14.9222 32.1767 14.6785 32.2733 14.4019C32.3409 14.2097 32.4182 14.0105 32.5051 13.8043C32.51 13.7902 32.5172 13.7761 32.522 13.7644C32.5993 13.5863 32.6863 13.4035 32.7781 13.2207C32.9471 12.8902 33.0148 12.541 32.9882 12.1965C32.9592 11.8496 32.836 11.5121 32.6187 11.2121L32.2926 10.7645C32.2081 10.6496 32.1743 10.516 32.1863 10.3871C32.1984 10.2582 32.254 10.1316 32.3554 10.0332L33.9736 8.46757C34.075 8.36913 34.2055 8.31288 34.3359 8.30116C34.4711 8.28944 34.6088 8.3246 34.7272 8.40428L35.1885 8.71835C35.4976 8.92928 35.8454 9.05116 36.2028 9.07694C36.5579 9.10273 36.9177 9.0371 37.2583 8.87304C37.4515 8.78164 37.652 8.69257 37.8621 8.60819C38.0746 8.52382 38.2799 8.44648 38.478 8.38319C38.8378 8.26601 39.1421 8.06444 39.3764 7.7996C39.6107 7.53475 39.7677 7.21132 39.8329 6.8504L39.9295 6.30899C39.9537 6.16837 40.0261 6.05118 40.1251 5.96915C40.2266 5.88712 40.3594 5.8379 40.5067 5.8379L42.7915 5.84024C42.9365 5.84024 43.0693 5.88946 43.1707 5.97149C43.2698 6.05352 43.3398 6.17071 43.3664 6.31134L43.463 6.8504C43.5282 7.21134 43.6852 7.53476 43.9195 7.7996C44.1537 8.06445 44.458 8.26367 44.8179 8.3832C45.0159 8.44883 45.2212 8.52383 45.4338 8.6082C45.6439 8.69257 45.8444 8.78163 46.0376 8.87304C46.3781 9.03711 46.738 9.10273 47.093 9.07695C47.4505 9.04882 47.7983 8.92929 48.1074 8.71835L48.5687 8.40195C48.6871 8.31992 48.8247 8.2871 48.9576 8.29882C49.0904 8.31054 49.2208 8.36445 49.3223 8.46288L50.9356 10.0332C51.0371 10.1316 51.0951 10.2582 51.1071 10.3848C51.1192 10.516 51.083 10.6496 51.0009 10.7645L50.6772 11.2121C50.4598 11.5121 50.3342 11.8496 50.3077 12.1965C50.2811 12.541 50.3487 12.8902 50.5178 13.2207C50.6192 13.4175 50.711 13.6121 50.7907 13.8043L50.7931 13.8066H50.7907C50.8777 14.0129 50.9574 14.2121 51.0226 14.4043C51.1433 14.7535 51.3511 15.0488 51.624 15.2761C51.8969 15.5035 52.2302 15.6558 52.6021 15.7191L53.16 15.8128C53.305 15.8363 53.4257 15.9066 53.5103 16.0027C53.5948 16.1011 53.6455 16.23 53.6455 16.373L53.6431 18.5902C53.6431 18.7308 53.5924 18.8597 53.5078 18.9581C53.4233 19.0542 53.3025 19.1222 53.1576 19.148L52.6021 19.2417C52.2302 19.305 51.8969 19.4574 51.624 19.6847C51.3511 19.9121 51.1458 20.2074 51.0226 20.5566C50.9525 20.7581 50.8753 20.9574 50.7907 21.1542H50.7883C50.7014 21.3581 50.6096 21.5527 50.5154 21.7402C50.3463 22.0706 50.2787 22.4198 50.3053 22.7644C50.3342 23.1112 50.4574 23.4487 50.6748 23.7487L51.0008 24.1964C51.0854 24.3112 51.1192 24.4448 51.1071 24.5737C51.095 24.7026 51.0395 24.8292 50.938 24.9276L49.3198 26.4933C49.2184 26.5917 49.088 26.648 48.9576 26.6597C48.8223 26.6714 48.6846 26.6362 48.5663 26.5565L48.105 26.2425C47.7958 26.0315 47.448 25.9097 47.0906 25.8839C46.7356 25.8581 46.3757 25.9237 46.0352 26.0878C45.8419 26.1792 45.6415 26.2683 45.4314 26.3526C45.4169 26.3573 45.4048 26.3643 45.3903 26.369C45.2019 26.444 45.0087 26.5144 44.8155 26.5776C44.5305 26.6714 44.2793 26.8167 44.0716 27.0042C44.0378 27.0347 44.004 27.0675 43.9726 27.1003L43.5209 27.0253C43.3495 26.9972 43.1997 26.9292 43.0838 26.8331C42.9654 26.7347 42.8736 26.6034 42.8205 26.444C42.6973 26.0901 42.5669 25.755 42.4317 25.4339C42.2916 25.1058 42.1394 24.78 41.9728 24.4565C41.8955 24.3042 41.8641 24.1472 41.8762 23.9948C41.881 23.9362 41.8931 23.8776 41.9124 23.819L41.9125 23.8121ZM45.8976 27.9254C45.9652 27.991 46.0328 28.059 46.0932 28.1293C46.5255 28.6285 46.7792 29.2706 46.7792 29.9668L46.7743 33.2222C46.7743 33.9184 46.5183 34.5605 46.086 35.0574C45.6512 35.5566 45.0426 35.9105 44.3374 36.0277L43.5234 36.1637C43.352 36.1918 43.2022 36.2598 43.0863 36.3559C42.9679 36.4543 42.8762 36.5855 42.823 36.7449C42.6998 37.0988 42.5694 37.434 42.4318 37.7551C42.4245 37.7691 42.4197 37.7832 42.4124 37.7973C42.2724 38.1207 42.125 38.4324 41.9729 38.7348C41.8956 38.8871 41.8642 39.0441 41.8763 39.1965C41.8883 39.3441 41.9439 39.4941 42.0453 39.6324L42.5235 40.291C42.939 40.8629 43.1129 41.5285 43.0549 42.1777C42.9969 42.8246 42.7071 43.4551 42.1951 43.9496L39.8209 46.2488C39.3113 46.741 38.664 47.0199 37.995 47.0761C37.3285 47.1324 36.6425 46.9636 36.0556 46.5605L35.3793 46.0988C35.2368 46.0027 35.0823 45.9464 34.9301 45.9347C34.7731 45.923 34.6113 45.9535 34.4543 46.0285C34.1186 46.1902 33.7829 46.3378 33.4472 46.4738C33.4327 46.4808 33.4182 46.4855 33.4037 46.4902C33.0776 46.6214 32.7443 46.741 32.4062 46.8511C32.242 46.905 32.1067 46.9918 32.0053 47.1066C31.9062 47.2191 31.8362 47.3644 31.8072 47.5308L31.6647 48.3253C31.5415 49.012 31.1768 49.6027 30.6624 50.0245C30.1479 50.4441 29.4862 50.6902 28.7689 50.6902L25.4141 50.6855C24.6967 50.6855 24.035 50.4371 23.523 50.0175C23.0085 49.5956 22.6438 49.005 22.5231 48.3207L22.383 47.5308C22.354 47.3644 22.2839 47.2191 22.1849 47.1066C22.0835 46.9917 21.9482 46.9027 21.784 46.8511C21.4314 46.7363 21.086 46.6097 20.7454 46.4714L20.743 46.4691V46.4714C20.4049 46.3355 20.0692 46.1878 19.7335 46.0261C19.5765 45.9511 19.4147 45.9207 19.2577 45.9324C19.1055 45.9441 18.9509 45.998 18.8084 46.0964L18.1297 46.5605C17.5404 46.9636 16.8545 47.1324 16.1855 47.0761C15.5189 47.0199 14.8692 46.7386 14.3596 46.2418L11.9903 43.9379C11.4831 43.4434 11.1956 42.8152 11.1377 42.166C11.0797 41.5192 11.2536 40.8535 11.6691 40.284L12.1449 39.6277C12.2439 39.4894 12.3018 39.3394 12.3139 39.1918C12.326 39.0394 12.2946 38.8824 12.2173 38.7301C12.0507 38.4043 11.8985 38.0785 11.7584 37.7527C11.7512 37.7387 11.7463 37.7246 11.7415 37.7105C11.6063 37.3941 11.4831 37.0707 11.3696 36.7426C11.314 36.5832 11.2247 36.4519 11.1063 36.3535C10.9904 36.2574 10.8406 36.1894 10.6692 36.1613L9.85041 36.023C9.14277 35.9035 8.53411 35.5496 8.09939 35.0504C7.66706 34.5512 7.41345 33.909 7.41345 33.2129L7.41828 29.9574C7.41828 29.2613 7.67429 28.6191 8.10663 28.1222C8.54137 27.623 9.15001 27.2691 9.85524 27.1519L10.6692 27.016C10.8406 26.9879 10.9904 26.9199 11.1063 26.8238C11.2247 26.7254 11.3164 26.5941 11.3696 26.4347C11.4879 26.0925 11.6183 25.7574 11.7608 25.4269L11.7633 25.4246H11.7608C11.9009 25.0964 12.0531 24.7707 12.2197 24.4472C12.297 24.2949 12.3284 24.1379 12.3163 23.9855C12.3043 23.8379 12.2487 23.6879 12.1473 23.5496L11.6691 22.891C11.2536 22.3191 11.0798 21.6535 11.1377 21.0043C11.1957 20.3574 11.4855 19.7269 11.9975 19.2324L14.3717 16.9332C14.8813 16.441 15.5286 16.1621 16.1976 16.1059C16.8641 16.0496 17.5501 16.2184 18.137 16.6215L18.8133 17.0832C18.9558 17.1793 19.1103 17.2355 19.2625 17.2473C19.4195 17.259 19.5813 17.2285 19.7383 17.1535C20.074 16.9918 20.4097 16.8441 20.7479 16.7082C20.7623 16.7012 20.7768 16.6965 20.7913 16.6918C21.1174 16.5605 21.4507 16.441 21.7888 16.3309C21.9531 16.2769 22.0883 16.1902 22.1898 16.0754C22.2888 15.9629 22.3588 15.8176 22.3878 15.6512L22.5303 14.8567C22.6535 14.17 23.0182 13.5793 23.5326 13.1575C24.0471 12.7379 24.7088 12.4918 25.4262 12.4918L28.7809 12.4965C29.4983 12.4965 30.16 12.7449 30.6721 13.1645C30.7445 13.2254 30.817 13.2887 30.8822 13.3543C30.9063 13.2934 30.9305 13.2348 30.957 13.1762C30.9643 13.1621 30.9691 13.1481 30.9764 13.134C31.073 12.9114 31.172 12.6981 31.2759 12.4942C31.3073 12.4332 31.3193 12.3723 31.3145 12.3137C31.3097 12.2598 31.2879 12.2012 31.2469 12.1473L30.9208 11.6996C30.5996 11.259 30.4668 10.7434 30.5102 10.2418C30.5537 9.74026 30.7783 9.25513 31.1744 8.87311L32.7926 7.30747C33.1863 6.92778 33.6862 6.71215 34.2031 6.66763C34.7175 6.62544 35.2465 6.75435 35.7005 7.06606L36.1618 7.38013C36.2198 7.41997 36.2778 7.44106 36.3333 7.44576C36.3937 7.45044 36.4565 7.43872 36.5193 7.40826C36.7536 7.29576 36.9878 7.19263 37.2221 7.09888C37.4491 7.00748 37.6931 6.91842 37.9491 6.83404C38.0143 6.81294 38.065 6.78013 38.1037 6.73794C38.1399 6.69575 38.1665 6.64185 38.1786 6.57388L38.2752 6.03247C38.3694 5.50279 38.6519 5.04577 39.0504 4.71997C39.449 4.39654 39.9586 4.20435 40.5117 4.20435L42.7965 4.20669C43.3496 4.20669 43.8616 4.39888 44.2577 4.72232C44.6562 5.0481 44.9388 5.50514 45.033 6.03248L45.1296 6.57154C45.1417 6.63717 45.1682 6.69341 45.2045 6.73561C45.2431 6.77779 45.2938 6.81295 45.359 6.8317C45.615 6.91607 45.859 7.0028 46.086 7.0942C46.3203 7.18795 46.5546 7.29107 46.7888 7.40592C46.8516 7.43639 46.9144 7.44811 46.9748 7.44342C47.0304 7.43873 47.0907 7.41764 47.1463 7.37779L47.6076 7.06139C48.0617 6.74967 48.593 6.62076 49.1099 6.66295C49.6267 6.70514 50.1267 6.92311 50.5203 7.30747L52.1337 8.87779C52.525 9.25982 52.7472 9.74497 52.7931 10.2465C52.8366 10.7457 52.7037 11.259 52.3825 11.6997L52.0588 12.1473C52.0178 12.2036 51.9961 12.2598 51.9912 12.3137C51.9864 12.3723 51.9985 12.4332 52.0299 12.4942C52.141 12.7098 52.2472 12.9371 52.3487 13.1762H52.3511C52.4453 13.3965 52.5371 13.6332 52.624 13.8817C52.6457 13.945 52.6796 13.9942 52.723 14.0317C52.7665 14.0668 52.8221 14.0926 52.8921 14.1043L53.45 14.1981C53.9959 14.2895 54.4668 14.5637 54.8025 14.9504C55.1358 15.3371 55.3339 15.8317 55.3339 16.3684L55.3315 18.5856C55.3315 19.1223 55.1334 19.6192 54.8001 20.0036C54.4644 20.3903 53.9934 20.6645 53.45 20.7559L52.8945 20.8497C52.8269 20.8614 52.7689 20.8872 52.7254 20.9223C52.682 20.9598 52.6457 21.009 52.6264 21.0723C52.5443 21.309 52.4525 21.5434 52.3535 21.7754L52.3511 21.7778H52.3535C52.2569 22.0051 52.1506 22.2325 52.0347 22.4598C52.0033 22.5207 51.9912 22.5817 51.996 22.6403C52.0009 22.6942 52.0226 22.7528 52.0637 22.8067L52.3897 23.2543C52.7109 23.695 52.8438 24.2106 52.8003 24.7122C52.7568 25.2137 52.5322 25.6989 52.1361 26.0809L50.5179 27.6465C50.1242 28.0262 49.6243 28.2418 49.1075 28.2864C48.593 28.3285 48.0641 28.1996 47.61 27.8879L47.1487 27.5739C47.0907 27.534 47.0328 27.5129 46.9772 27.5082C46.9168 27.5035 46.854 27.5153 46.7912 27.5457C46.557 27.6582 46.3227 27.7614 46.0884 27.8551C46.0739 27.8621 46.0594 27.8668 46.0425 27.8715C45.9966 27.8903 45.9508 27.9067 45.9049 27.9254L45.8976 27.9254ZM27.0976 21.8786C29.8607 21.8786 32.3652 22.9661 34.1765 24.7239C35.9879 26.4817 37.1086 28.9098 37.1086 31.5933C37.1086 34.2767 35.9879 36.705 34.1765 38.4627C32.3651 40.2205 29.8629 41.308 27.0976 41.308C24.3323 41.308 21.83 40.2205 20.0187 38.4627C18.2073 36.7049 17.0866 34.2767 17.0866 31.5933C17.0866 28.9098 18.2073 26.4816 20.0187 24.7239C21.8301 22.9661 24.3323 21.8786 27.0976 21.8786ZM32.9835 25.8817C31.4764 24.4192 29.3969 23.5169 27.0976 23.5169C24.7983 23.5169 22.7188 24.4215 21.2117 25.8817C19.7046 27.3442 18.7748 29.3622 18.7748 31.5934C18.7748 33.8246 19.707 35.8426 21.2117 37.3051C22.7188 38.7676 24.7983 39.6699 27.0976 39.6699C29.3969 39.6699 31.4764 38.7653 32.9835 37.3051C34.4906 35.8426 35.4205 33.8246 35.4205 31.5934C35.4205 29.3622 34.4882 27.3442 32.9835 25.8817ZM37.0314 17.9575C37.2826 17.7841 37.5773 17.7138 37.8623 17.7372C38.1473 17.7606 38.4251 17.8802 38.64 18.0911L41.0093 20.395C41.2267 20.6059 41.3499 20.8754 41.374 21.1497C41.3982 21.4262 41.3233 21.7122 41.147 21.9583L40.6712 22.6146C40.3934 22.9989 40.234 23.4279 40.2002 23.8684C40.1664 24.3067 40.2533 24.7521 40.4683 25.1739C40.6132 25.4575 40.7509 25.7528 40.8813 26.0575C41.0117 26.3646 41.1301 26.6646 41.2315 26.9599C41.3861 27.4052 41.6493 27.7825 41.9972 28.0708C42.3449 28.3591 42.7676 28.5536 43.2434 28.6333L44.0621 28.7716C44.3689 28.8232 44.6297 28.9732 44.8108 29.1818C44.9944 29.3927 45.1031 29.6693 45.1007 29.9716L45.0958 33.2271C45.0958 33.5271 44.9872 33.8037 44.8036 34.0146C44.6225 34.2232 44.3616 34.3732 44.0549 34.4247L43.241 34.5607C42.7652 34.6404 42.3401 34.8349 41.9923 35.1232C41.6469 35.4115 41.3837 35.7888 41.2267 36.2341C41.1252 36.5295 41.0069 36.8295 40.8765 37.1365C40.8716 37.1505 40.8644 37.1646 40.8596 37.1787C40.7388 37.4576 40.6084 37.7388 40.4635 38.02C40.2485 38.4396 40.1591 38.8872 40.1954 39.3255C40.2316 39.7685 40.3886 40.1974 40.6663 40.5794L41.1446 41.238C41.3233 41.4818 41.3958 41.7677 41.3716 42.0443C41.3474 42.3209 41.2243 42.5904 41.0069 42.799L38.6328 45.0982C38.4154 45.3091 38.1376 45.4287 37.8551 45.4521C37.5701 45.4755 37.2754 45.4029 37.0218 45.2318L36.3455 44.7701C35.9494 44.5005 35.5074 44.3458 35.0534 44.313C34.6017 44.2802 34.1428 44.3646 33.7081 44.5732C33.4158 44.7138 33.1115 44.8474 32.7975 44.974C32.783 44.9787 32.7709 44.9857 32.7565 44.9904C32.4642 45.1076 32.1695 45.213 31.8676 45.3115C31.4088 45.4615 31.0199 45.7169 30.7228 46.0521C30.4257 46.3896 30.2253 46.7998 30.1432 47.2615L30.0007 48.056C29.9475 48.3536 29.7929 48.6068 29.578 48.7825C29.3606 48.9606 29.0756 49.0661 28.7641 49.0638L25.4093 49.0591C25.1002 49.0591 24.8152 48.9536 24.5978 48.7755C24.3828 48.5997 24.2283 48.3466 24.1751 48.049L24.035 47.2591C23.9529 46.7974 23.7525 46.3849 23.4554 46.0474C23.1583 45.7123 22.7694 45.4568 22.3105 45.3044C21.9966 45.2013 21.685 45.0888 21.3807 44.9646V44.9622C21.0667 44.8357 20.7648 44.7021 20.4725 44.5615C20.0402 44.3529 19.5789 44.2661 19.1272 44.3013C18.6708 44.3365 18.2288 44.4888 17.8351 44.7583L17.1564 45.2224C16.9052 45.3958 16.6106 45.4662 16.3255 45.4427C16.0405 45.4193 15.7628 45.2998 15.5478 45.0888L13.1785 42.7849C12.9612 42.574 12.838 42.3045 12.8138 42.0303C12.7897 41.7537 12.8646 41.4678 13.0409 41.2216L13.5167 40.5653C13.7944 40.181 13.9538 39.7521 13.9876 39.3115C14.0214 38.8732 13.9345 38.4279 13.7195 38.006C13.5746 37.7224 13.437 37.4271 13.3065 37.1224C13.3017 37.1083 13.2945 37.0966 13.2896 37.0825C13.1689 36.7989 13.0602 36.513 12.9587 36.22C12.8042 35.7747 12.5409 35.3974 12.1955 35.1091C11.8477 34.8208 11.4251 34.6263 10.9493 34.5466L10.1305 34.4083C9.8238 34.3567 9.56295 34.2067 9.38183 33.9981C9.19828 33.7872 9.08959 33.5106 9.092 33.2083L9.09683 29.9528C9.09683 29.6528 9.20552 29.3762 9.38908 29.1653C9.57022 28.9567 9.83106 28.8067 10.1378 28.7552L10.9517 28.6192C11.4275 28.5395 11.8526 28.345 12.2004 28.0567C12.5457 27.7684 12.809 27.3911 12.966 26.9458C13.0723 26.6411 13.1882 26.3387 13.3162 26.0434H13.3186C13.449 25.7387 13.5867 25.4458 13.7316 25.1621C13.9466 24.7426 14.0359 24.295 13.9997 23.8567C13.9635 23.4137 13.8065 22.9848 13.5287 22.6028L13.0505 21.9442C12.8718 21.7004 12.7993 21.4145 12.8235 21.1379C12.8476 20.8613 12.9708 20.5918 13.1882 20.3832L15.5623 18.084C15.7797 17.8731 16.0575 17.7535 16.34 17.7301C16.625 17.7067 16.9197 17.7793 17.1733 17.9504L17.8496 18.4121C18.2457 18.6817 18.6877 18.8363 19.1417 18.8692C19.5934 18.902 20.0523 18.8176 20.487 18.609C20.7793 18.4684 21.0836 18.3348 21.3976 18.2082C21.4121 18.2035 21.4241 18.1965 21.4386 18.1918C21.7309 18.0746 22.0255 17.9692 22.3274 17.8707C22.7863 17.7207 23.1752 17.4653 23.4723 17.1301C23.7694 16.7926 23.9698 16.3824 24.0519 15.9207L24.1944 15.1262C24.2476 14.8286 24.4021 14.5754 24.6171 14.3997C24.8345 14.2215 25.1195 14.1161 25.431 14.1184L28.7858 14.1231C29.0949 14.1231 29.3799 14.2286 29.5973 14.4067C29.8123 14.5825 29.9668 14.8356 30.02 15.1332L30.1601 15.9231C30.2422 16.3848 30.4426 16.7973 30.7397 17.1348C31.0368 17.4699 31.4256 17.7254 31.8845 17.8778C32.1889 17.9762 32.498 18.091 32.8144 18.2176C33.1284 18.3442 33.4303 18.4778 33.725 18.6184C34.1573 18.827 34.6186 18.9137 35.0703 18.8785C35.5267 18.8434 35.9687 18.691 36.3624 18.4215L37.0411 17.9574L37.0314 17.9575Z" fill="url(#paint0_linear_2_33532)" stroke="url(#paint1_linear_2_33532)" stroke-width="2" mask="url(#path-1-inside-1_2_33532)"/>
</g>
<defs>
<linearGradient id="paint0_linear_2_33532" x1="-0.320312" y1="31.2007" x2="55.3339" y2="31.2007" gradientUnits="userSpaceOnUse">
<stop stop-color="#48AB77"/>
<stop offset="0.461536" stop-color="#EAB6AC"/>
<stop offset="1" stop-color="#B096CF"/>
</linearGradient>
<linearGradient id="paint1_linear_2_33532" x1="-0.320312" y1="31.2007" x2="55.3339" y2="31.2007" gradientUnits="userSpaceOnUse">
<stop stop-color="#48AB77"/>
<stop offset="0.461536" stop-color="#EAB6AC"/>
<stop offset="1" stop-color="#B096CF"/>
</linearGradient>
<clipPath id="clip0_2_33532">
<rect width="55" height="60" fill="white"/>
</clipPath>
</defs>
</svg>
