<svg width="60" height="70" viewBox="0 0 60 70" fill="none" xmlns="http://www.w3.org/2000/svg">
<g clip-path="url(#clip0_395_3004)">
<path d="M47.2588 25.2618H44.7414V24.873C44.7414 20.7987 41.7945 17.4841 38.1723 17.4841H29.5286V13.5952H31.2574C31.83 13.5952 32.2946 13.0726 32.2946 12.4285C32.2946 11.7844 31.83 11.2618 31.2574 11.2618H25.7254C25.1528 11.2618 24.6882 11.7844 24.6882 12.4285C24.6882 13.0726 25.1528 13.5952 25.7254 13.5952H27.4542V17.4841H18.8106C15.1883 17.4841 12.2414 20.7987 12.2414 24.873V25.2618H9.72397C8.0655 25.2618 6.70949 26.7779 6.70949 28.6525V36.655C6.70949 38.5205 8.05734 40.0457 9.72397 40.0457H12.2414V40.4346C12.2414 44.5088 15.1883 47.8235 18.8106 47.8235H38.1805C41.8028 47.8235 44.7497 44.5088 44.7497 40.4346V40.0457H47.2671C48.9256 40.0457 50.2816 38.5296 50.2816 36.655V28.6525C50.2735 26.7871 48.92 25.2618 47.2588 25.2618ZM9.71857 37.7063C9.19996 37.7063 8.77856 37.2323 8.77856 36.649V28.6526C8.77856 28.0693 9.19994 27.5953 9.71857 27.5953H12.236V37.7064L9.71857 37.7063ZM42.6667 40.4346C42.6667 43.2175 40.6543 45.4901 38.172 45.4901H18.8047C16.3305 45.4901 14.3101 43.2266 14.3101 40.4346V24.879C14.3101 22.0961 16.3224 19.8235 18.8047 19.8235H38.1747C40.649 19.8235 42.6694 22.087 42.6694 24.879V38.879L42.6667 40.4346ZM48.1986 36.655C48.1986 37.2384 47.7772 37.7124 47.2586 37.7124H44.7411V27.6012H47.2586C47.7772 27.6012 48.1986 28.0752 48.1986 28.6586V36.655ZM46.486 3.48438H10.4933C4.59408 3.48438 -0.210938 8.88324 -0.210938 15.5244V66.8733C-0.210938 67.3168 0.0105536 67.7209 0.361699 67.9153C0.507562 68.0004 0.666929 68.0399 0.826297 68.0399C1.04779 68.0399 1.26928 67.9609 1.44756 67.806L12.2362 58.7067H46.4787C52.378 58.7067 57.183 53.3079 57.183 46.6667V15.5253C57.1884 8.88991 52.3831 3.48529 46.4863 3.48529L46.486 3.48438ZM55.1137 46.6666C55.1137 52.0168 51.2403 56.3733 46.484 56.3733H11.8957C11.6742 56.3733 11.4527 56.4583 11.2744 56.6072L1.86876 64.5398V15.5242C1.86876 10.1739 5.74221 5.81754 10.4985 5.81754H46.483C51.2396 5.81754 55.1127 10.1743 55.1127 15.5242L55.1137 46.6666ZM26.7627 30.3177C26.7627 27.5347 24.7422 25.2622 22.268 25.2622C19.7938 25.2622 17.7733 27.5347 17.7733 30.3177C17.7733 33.1007 19.7938 35.3733 22.268 35.3733C24.7449 35.3733 26.7627 33.1098 26.7627 30.3177ZM22.268 33.0399C20.9336 33.0399 19.8478 31.8186 19.8478 30.3177C19.8478 28.8168 20.9336 27.5955 22.268 27.5955C23.6024 27.5955 24.6882 28.8168 24.6882 30.3177C24.6882 31.8186 23.6051 33.0399 22.268 33.0399ZM34.7148 25.2622C32.2406 25.2622 30.2201 27.5347 30.2201 30.3177C30.2201 33.1007 32.2406 35.3733 34.7148 35.3733C37.189 35.3733 39.2095 33.1007 39.2095 30.3177C39.2095 27.5317 37.1917 25.2622 34.7148 25.2622ZM34.7148 33.0399C33.3804 33.0399 32.2946 31.8186 32.2946 30.3177C32.2946 28.8168 33.3804 27.5955 34.7148 27.5955C36.0492 27.5955 37.135 28.8168 37.135 30.3177C37.135 31.8186 36.0519 33.0399 34.7148 33.0399ZM33.6776 40.4288C33.6776 41.0729 33.213 41.5955 32.6403 41.5955H24.3425C23.7698 41.5955 23.3052 41.0729 23.3052 40.4288C23.3052 39.7847 23.7698 39.2622 24.3425 39.2622H32.6403C33.2157 39.2622 33.6776 39.7817 33.6776 40.4288Z" fill="white"/>
</g>
<defs>
<clipPath id="clip0_395_3004">
<rect width="60" height="70" fill="white"/>
</clipPath>
</defs>
</svg>
