<svg width="50" height="55" viewBox="0 0 50 55" fill="none" xmlns="http://www.w3.org/2000/svg">
<mask id="path-1-inside-1_294_3275" fill="white">
<path fill-rule="evenodd" clip-rule="evenodd" d="M17.2439 20.3863V6.97561C17.2439 5.4674 18.4345 4.23633 19.8931 4.23633H47.2825C48.7411 4.23418 49.9338 5.4674 49.9338 6.97561V22.6336C49.9338 24.1418 48.7411 25.3728 47.2846 25.3728L34.0968 25.375V28.5654C35.3082 28.9564 35.6988 30.5506 34.7908 31.4894C33.7208 32.5959 31.884 31.8074 31.884 30.2455C31.884 29.4656 32.3785 28.791 33.0767 28.5654V25.375L20.4501 25.3728C20.9321 26.75 21.3456 28.0927 21.7736 29.6246C22.104 30.7547 21.3872 31.9643 20.2153 32.1555C19.6979 32.2393 19.2657 32.1834 18.8314 31.9127C18.4554 31.6785 18.1562 31.3111 18.0003 30.8492L16.4503 26.4428C16.3173 27.9789 16.2467 29.9168 16.415 31.266C16.8035 34.6154 17.1276 37.7692 17.3708 40.1518C17.512 41.5397 17.6263 42.6548 17.7219 43.4755C17.8694 44.7366 16.9635 45.8538 15.7376 45.929C14.5532 46.002 13.5725 45.1405 13.4582 43.9567C13.105 40.3173 12.598 35.4746 11.9705 32.7763C11.343 35.4769 10.836 40.3152 10.4828 43.9567C10.2916 45.929 7.88557 46.6143 6.69706 45.1448C6.31267 44.6679 6.14642 44.0899 6.21709 43.4733C6.31267 42.6526 6.42695 41.5355 6.56824 40.1475C6.81134 37.7649 7.13547 34.6112 7.52404 31.2639C7.73389 29.3218 7.47209 25.9788 7.21237 23.8301C2.94045 23.5938 0.916622 21.0673 0.104388 16.6521C-0.128325 15.3823 0.733962 14.1835 1.98896 14.0567C2.55412 14.0009 3.06731 14.1513 3.4912 14.48C3.89844 14.7872 4.20386 15.277 4.30567 15.8249C4.555 17.1634 5.062 18.1108 5.82662 18.6652C6.59332 19.2216 7.65093 19.4085 8.99524 19.2237C11.5613 18.8026 13.7181 18.8929 15.4655 19.4987C16.1158 19.7265 16.7078 20.021 17.2439 20.3863ZM42.5264 20.3927C43.1601 20.2036 43.6546 19.673 43.8084 19.0091C43.9414 18.9447 44.0598 18.8587 44.1616 18.7535L44.1596 18.7513C44.6645 18.2292 44.6375 17.3892 44.1055 16.9015C44.2635 16.5126 44.5003 16.0658 44.8078 15.7628C46.4846 14.1171 46.5303 11.3951 44.8993 9.70843C43.3056 8.06058 40.7249 8.06058 39.1312 9.70843C37.496 11.3992 37.5541 14.1063 39.2164 15.7562C39.5405 16.0763 39.7607 16.491 39.9249 16.8992C39.9062 16.9164 39.8875 16.9336 39.8708 16.9529L39.8729 16.955C39.3888 17.4556 39.3909 18.2549 39.8708 18.7511L39.8729 18.749C39.9747 18.8543 40.0932 18.9402 40.2262 19.0046C40.3799 19.6706 40.8744 20.2013 41.5082 20.3904V21.7052L34.2922 21.7073V16.7445C34.2922 16.4544 34.0637 16.2181 33.7832 16.2181H30.9511C30.9511 15.9152 30.9989 15.5134 30.5854 15.3888L29.6401 15.1052L29.5798 14.957L30.0411 14.0933C30.1658 13.8892 30.1429 13.6164 29.9704 13.4402L28.8069 12.2371C28.651 12.0759 28.4059 12.033 28.2023 12.149L27.3379 12.6431L27.1945 12.5808L26.9223 11.6033C26.8621 11.3842 26.6668 11.2252 26.4361 11.2252H24.8051C24.5786 11.2166 24.3687 11.3691 24.3022 11.6033L24.03 12.5808L23.8867 12.6431L23.0514 12.1662C22.854 12.0373 22.5901 12.0609 22.4198 12.2392L21.2562 13.4423C21.1004 13.6035 21.0588 13.857 21.171 14.0675L21.6489 14.9591L21.5886 15.1074L20.6848 15.3781C20.45 15.4253 20.2734 15.638 20.2734 15.8937V17.5953H20.2755C20.2755 17.823 20.4189 18.0314 20.6412 18.098L21.5866 18.3795L21.6468 18.5277L21.1855 19.3914C21.0609 19.5955 21.0837 19.8683 21.2562 20.0445L22.4197 21.2476C22.5756 21.4088 22.8208 21.4517 23.0244 21.3357L23.8887 20.8416L24.0321 20.9039L24.3043 21.8814C24.3645 22.1005 24.5599 22.2595 24.7905 22.2595H26.4216C26.648 22.266 26.86 22.1156 26.9244 21.8814L27.1966 20.9039L27.3399 20.8416L28.1752 21.3185C28.3726 21.4474 28.6365 21.4238 28.8069 21.2455L29.9704 20.0424C30.1263 19.8812 30.1678 19.6277 30.0556 19.4172L29.5798 18.5234L29.6401 18.3752L30.5854 18.0937C30.9989 17.9713 30.9511 17.5695 30.9511 17.2644H33.2762V22.2273C33.2762 22.5173 33.5047 22.7537 33.7852 22.7537H42.0193C42.2998 22.7537 42.5283 22.5173 42.5283 22.2273L42.5264 20.3927ZM29.9349 16.7919V16.2892L29.1204 16.0464C28.7444 15.9411 28.7734 15.606 28.5636 15.1999C28.4805 15.0474 28.4742 14.854 28.5615 14.6907L28.9791 13.9087L28.3558 13.2641L27.5995 13.696C27.2836 13.8743 27.0572 13.6337 26.6229 13.4876C26.4671 13.436 26.3403 13.3092 26.2905 13.1331L26.0515 12.2737H25.1684L24.9336 13.1159C24.8318 13.5047 24.5077 13.4746 24.115 13.6916C23.9674 13.7776 23.7804 13.784 23.6225 13.6938L22.8662 13.262L22.2429 13.9065L22.6605 14.6885C22.8329 15.0151 22.6002 15.2493 22.4589 15.6983C22.4091 15.8594 22.2865 15.9905 22.1161 16.042L21.2871 16.2891V17.2044L22.0995 17.4471C22.4755 17.5524 22.4464 17.8876 22.6563 18.2936C22.7394 18.4462 22.7457 18.6396 22.6584 18.8028L22.2408 19.5849L22.8641 20.2316L23.6204 19.7997C23.9363 19.6214 24.1627 19.862 24.597 20.0081C24.7507 20.0597 24.8796 20.1864 24.9294 20.3626L25.1684 21.222H26.0515L26.2863 20.3798C26.3881 19.991 26.7122 20.021 27.1049 19.804C27.2524 19.7181 27.4395 19.7117 27.5974 19.8019L28.3537 20.2337L28.977 19.587L28.5594 18.805C28.3869 18.4763 28.6197 18.2443 28.761 17.7952C28.8108 17.6341 28.9355 17.5031 29.1038 17.4515L29.9349 17.2044V16.7919ZM42.6801 12.2802C42.6801 11.5884 43.6983 11.5884 43.6983 12.2802C43.6983 12.9827 43.1684 13.5113 42.5264 13.6896V16.5835H43.1372C43.773 14.9529 44.3611 15.0753 44.8307 13.9495C45.6929 11.8891 44.2364 9.53015 42.0173 9.53015C39.285 9.53015 37.8929 12.9913 39.9229 15.0043C40.3779 15.4555 40.6792 16.0206 40.8974 16.5835H41.5082V13.6895C40.8662 13.5112 40.3363 12.9827 40.3363 12.2801C40.3363 11.5884 41.3545 11.5884 41.3545 12.2801C41.3545 12.6389 42.1046 12.8882 42.5326 12.5401C42.624 12.4649 42.6801 12.3726 42.6801 12.2802ZM40.6272 18.0403L43.3512 18.0361C43.4115 18.0361 43.4032 18.0511 43.4427 18.0081L43.4447 18.0103C43.5819 17.8663 43.4759 17.6343 43.2931 17.6343H40.7415C40.6833 17.6343 40.6314 17.6579 40.5919 17.6988L40.5898 17.6966C40.5067 17.7847 40.5067 17.9222 40.5919 18.0081L40.5898 18.0103L40.6272 18.0403ZM42.6011 19.1661C42.6136 19.1533 42.624 19.1404 42.6365 19.1275H41.4002C41.716 19.4949 42.2645 19.5142 42.6011 19.1661ZM46.8253 10.7913L47.0476 10.6581C47.6252 10.3122 47.1182 9.40343 46.5385 9.74933L46.3162 9.88253C45.7386 10.2284 46.2477 11.1372 46.8253 10.7913ZM45.0862 8.60846L45.215 8.37857C45.3542 8.12721 45.2711 7.80707 45.028 7.66313C44.7849 7.51919 44.4753 7.60512 44.3361 7.85649L44.2073 8.08637C44.0681 8.33774 44.1512 8.65788 44.3943 8.80181C44.6374 8.94576 44.947 8.85767 45.0862 8.60846ZM37.7181 9.88248L37.4958 9.74927C36.9161 9.40337 36.4091 10.3121 36.9867 10.658L37.209 10.7912C37.7887 11.1371 38.2957 10.2284 37.7181 9.88248ZM39.827 8.0864L39.6982 7.85651C39.559 7.60515 39.2494 7.51921 39.0063 7.66315C38.7632 7.8071 38.6801 8.12722 38.8193 8.37859L38.9481 8.60848C39.2826 9.20572 40.1595 8.68366 39.827 8.0864ZM42.5261 7.61804V7.35163C42.5261 6.65984 41.5079 6.65984 41.5079 7.35163V7.61804C41.5079 8.31197 42.5261 8.31197 42.5261 7.61804ZM25.6106 14.1773C24.2393 14.1773 23.1277 15.3267 23.1277 16.7447H23.1297C23.1297 17.4559 23.4061 18.0961 23.8549 18.5602C25.4153 20.1737 28.0936 19.0242 28.0936 16.7447H28.0916C28.0916 15.3246 26.98 14.1773 25.6106 14.1773ZM25.6106 15.2301C24.8003 15.2301 24.1458 15.909 24.1458 16.7447H24.1437C24.1437 18.0832 25.7229 18.7707 26.6475 17.8168C26.9134 17.5418 27.0755 17.1637 27.0755 16.7447H27.0776C27.0776 15.9133 26.421 15.2301 25.6106 15.2301ZM33.583 40.9448C31.9083 40.9448 30.5349 42.3456 30.5349 44.0772C30.5349 45.811 31.9083 47.2096 33.583 47.2096C35.2597 47.2096 36.6311 45.811 36.6311 44.0772C36.6311 42.3456 35.2577 40.9448 33.583 40.9448ZM35.0208 42.6077C33.7534 41.3057 31.5509 42.2188 31.5509 44.0793C31.5509 45.9399 33.7513 46.8509 35.0208 45.551C35.8104 44.7389 35.8104 43.4198 35.0208 42.6077ZM28.5548 53.0214H38.6176C38.6135 51.8569 38.2166 50.8751 37.4042 50.0651C35.289 47.9554 31.9228 47.9403 29.793 50.0329C28.9661 50.8429 28.5528 51.8462 28.5548 53.0214ZM39.1267 54.0698C39.4072 54.0698 39.6336 53.8356 39.6336 53.5455C39.6316 53.0084 39.644 52.5895 39.5505 52.0546H48.7947C49.0752 52.0546 49.3017 51.8204 49.3017 51.5303L49.2996 50.9868C49.2954 49.5409 48.7801 48.2948 47.7745 47.2914C45.9356 45.4567 43.2179 44.9002 40.8324 45.8842C39.4819 46.4406 38.2311 47.4998 37.6327 48.877C35.2661 46.937 31.9061 46.937 29.5353 48.8748C29.2756 48.284 28.9057 47.7555 28.4403 47.2914C27.2331 46.0883 25.6187 45.4051 23.9149 45.4051C21.6023 45.4051 19.1651 46.7758 18.2612 48.9629C17.8768 49.8954 17.8747 50.5528 17.8747 51.5282C17.8747 51.8182 18.1012 52.0524 18.3817 52.0524H27.6194C27.5239 52.611 27.5405 52.9934 27.5426 53.5456C27.5426 53.8356 27.769 54.0698 28.0495 54.0698L39.1267 54.0698ZM27.9192 51.004C28.1208 50.512 28.3909 50.0651 28.7441 49.6483C28.3161 48.3528 27.1858 47.3688 25.9786 46.8661C23.9777 46.0325 21.6817 46.4858 20.1254 48.0155C19.3005 48.8255 18.885 49.8288 18.8891 51.004H27.9192ZM38.4267 49.6526C38.7778 50.0673 39.0521 50.5163 39.2516 51.004H48.2856C48.2814 49.8395 47.8846 48.8577 47.0722 48.0477C44.957 45.938 41.5908 45.9229 39.461 48.0155C38.9831 48.4838 38.6324 49.0252 38.4267 49.6526ZM43.2492 38.9298C41.5745 38.9298 40.2011 40.3285 40.2011 42.0622C40.2011 43.796 41.5745 45.1946 43.2492 45.1946C44.9239 45.1946 46.2974 43.796 46.2974 42.0622C46.2994 40.3285 44.926 38.9298 43.2492 38.9298ZM44.687 40.5905C43.4196 39.2886 41.2171 40.2017 41.2171 42.0622C41.2171 43.9228 43.4175 44.8337 44.687 43.5339C45.4787 42.7218 45.4787 41.4027 44.687 40.5905ZM23.9152 38.9298C22.2405 38.9298 20.8671 40.3285 20.8671 42.0622C20.8671 43.796 22.2405 45.1946 23.9152 45.1946C25.5899 45.1946 26.9634 43.796 26.9634 42.0622C26.9654 40.3285 25.592 38.9298 23.9152 38.9298ZM25.353 40.5905C24.0856 39.2886 21.8832 40.2017 21.8832 42.0622C21.8832 43.9228 24.0835 44.8337 25.353 43.5339C26.1447 42.7218 26.1447 41.4027 25.353 40.5905ZM34.0717 29.7429C33.6416 29.2982 32.9019 29.614 32.9019 30.2435C32.9019 30.873 33.6416 31.1888 34.0717 30.7441C34.3397 30.4691 34.3397 30.02 34.0717 29.7429ZM19.2589 25.0636C19.2485 25.04 19.2381 25.0142 19.2319 24.9884C19.0366 24.4556 18.8371 23.9443 18.6356 23.4565C17.846 22.0171 16.6824 21.0288 15.1428 20.496C13.5512 19.9439 11.5524 19.8665 9.14651 20.2618L9.13196 20.264C7.52377 20.4853 6.22516 20.2403 5.24026 19.5249C4.25122 18.8073 3.60712 17.6385 3.30585 16.0229C3.25183 15.7307 3.09599 15.4858 2.88405 15.3204L2.88198 15.3226C2.08825 14.7081 0.906019 15.3913 1.10128 16.4591C1.85761 20.5776 3.6466 22.728 7.66937 22.8011C7.92494 22.8054 8.13272 23.0031 8.16389 23.2587C8.44855 25.5017 8.78101 29.3538 8.53373 31.3905C8.13064 34.8602 7.8148 37.9344 7.57793 40.257C7.42833 41.7201 7.30782 42.8975 7.22679 43.5978C7.10004 44.6893 8.34466 45.2672 9.08641 44.6119C9.29835 44.425 9.44172 44.1586 9.47081 43.8535C9.78455 40.6223 10.5637 32.6687 11.5258 30.8856C11.719 30.5269 12.2239 30.5247 12.4171 30.8942C13.3812 32.7355 14.15 40.5792 14.4659 43.8533C14.5656 44.8889 15.8413 45.2391 16.4626 44.4699C16.6704 44.2121 16.7514 43.9307 16.712 43.5977C16.6309 42.8973 16.5104 41.7199 16.3608 40.2569C16.1239 37.9344 15.8081 34.8579 15.405 31.3881C15.1723 29.1387 15.3593 26.6702 15.6751 24.1908C15.7437 23.6537 16.4585 23.5678 16.6496 24.0662H16.6517C17.4641 26.191 18.2059 28.2664 18.958 30.5073C19.3424 31.6545 21.1355 31.126 20.801 29.9165C20.3168 28.1849 19.8348 26.6336 19.2593 25.0632L19.2589 25.0636ZM20.0692 24.3224H47.282C48.1775 24.3224 48.9151 23.5618 48.9151 22.6337V6.97575C48.9151 6.04762 48.1796 5.28708 47.282 5.28708H19.8926C18.995 5.28708 18.2595 6.04762 18.2595 6.97575V21.235C18.7498 21.7292 19.1737 22.3071 19.5311 22.9624L20.0692 24.3224ZM11.7495 12.2438C11.7267 12.2481 11.7017 12.2503 11.6768 12.2503C10.9807 12.3319 10.3782 12.6928 9.96681 13.217C8.50404 15.0647 9.94603 17.8169 12.2295 17.5805C12.9401 17.5075 13.5552 17.1422 13.977 16.6116C15.4231 14.7833 14.0226 12.044 11.7495 12.2438ZM11.6145 11.204C10.6421 11.2878 9.7507 11.8313 9.17931 12.551C7.92016 14.143 8.14873 16.4977 9.6863 17.7997C12.1277 19.8665 15.8576 17.9071 15.5602 14.5448C15.3795 12.521 13.6071 10.9977 11.6145 11.204Z"/>
</mask>
<path fill-rule="evenodd" clip-rule="evenodd" d="M17.2439 20.3863V6.97561C17.2439 5.4674 18.4345 4.23633 19.8931 4.23633H47.2825C48.7411 4.23418 49.9338 5.4674 49.9338 6.97561V22.6336C49.9338 24.1418 48.7411 25.3728 47.2846 25.3728L34.0968 25.375V28.5654C35.3082 28.9564 35.6988 30.5506 34.7908 31.4894C33.7208 32.5959 31.884 31.8074 31.884 30.2455C31.884 29.4656 32.3785 28.791 33.0767 28.5654V25.375L20.4501 25.3728C20.9321 26.75 21.3456 28.0927 21.7736 29.6246C22.104 30.7547 21.3872 31.9643 20.2153 32.1555C19.6979 32.2393 19.2657 32.1834 18.8314 31.9127C18.4554 31.6785 18.1562 31.3111 18.0003 30.8492L16.4503 26.4428C16.3173 27.9789 16.2467 29.9168 16.415 31.266C16.8035 34.6154 17.1276 37.7692 17.3708 40.1518C17.512 41.5397 17.6263 42.6548 17.7219 43.4755C17.8694 44.7366 16.9635 45.8538 15.7376 45.929C14.5532 46.002 13.5725 45.1405 13.4582 43.9567C13.105 40.3173 12.598 35.4746 11.9705 32.7763C11.343 35.4769 10.836 40.3152 10.4828 43.9567C10.2916 45.929 7.88557 46.6143 6.69706 45.1448C6.31267 44.6679 6.14642 44.0899 6.21709 43.4733C6.31267 42.6526 6.42695 41.5355 6.56824 40.1475C6.81134 37.7649 7.13547 34.6112 7.52404 31.2639C7.73389 29.3218 7.47209 25.9788 7.21237 23.8301C2.94045 23.5938 0.916622 21.0673 0.104388 16.6521C-0.128325 15.3823 0.733962 14.1835 1.98896 14.0567C2.55412 14.0009 3.06731 14.1513 3.4912 14.48C3.89844 14.7872 4.20386 15.277 4.30567 15.8249C4.555 17.1634 5.062 18.1108 5.82662 18.6652C6.59332 19.2216 7.65093 19.4085 8.99524 19.2237C11.5613 18.8026 13.7181 18.8929 15.4655 19.4987C16.1158 19.7265 16.7078 20.021 17.2439 20.3863ZM42.5264 20.3927C43.1601 20.2036 43.6546 19.673 43.8084 19.0091C43.9414 18.9447 44.0598 18.8587 44.1616 18.7535L44.1596 18.7513C44.6645 18.2292 44.6375 17.3892 44.1055 16.9015C44.2635 16.5126 44.5003 16.0658 44.8078 15.7628C46.4846 14.1171 46.5303 11.3951 44.8993 9.70843C43.3056 8.06058 40.7249 8.06058 39.1312 9.70843C37.496 11.3992 37.5541 14.1063 39.2164 15.7562C39.5405 16.0763 39.7607 16.491 39.9249 16.8992C39.9062 16.9164 39.8875 16.9336 39.8708 16.9529L39.8729 16.955C39.3888 17.4556 39.3909 18.2549 39.8708 18.7511L39.8729 18.749C39.9747 18.8543 40.0932 18.9402 40.2262 19.0046C40.3799 19.6706 40.8744 20.2013 41.5082 20.3904V21.7052L34.2922 21.7073V16.7445C34.2922 16.4544 34.0637 16.2181 33.7832 16.2181H30.9511C30.9511 15.9152 30.9989 15.5134 30.5854 15.3888L29.6401 15.1052L29.5798 14.957L30.0411 14.0933C30.1658 13.8892 30.1429 13.6164 29.9704 13.4402L28.8069 12.2371C28.651 12.0759 28.4059 12.033 28.2023 12.149L27.3379 12.6431L27.1945 12.5808L26.9223 11.6033C26.8621 11.3842 26.6668 11.2252 26.4361 11.2252H24.8051C24.5786 11.2166 24.3687 11.3691 24.3022 11.6033L24.03 12.5808L23.8867 12.6431L23.0514 12.1662C22.854 12.0373 22.5901 12.0609 22.4198 12.2392L21.2562 13.4423C21.1004 13.6035 21.0588 13.857 21.171 14.0675L21.6489 14.9591L21.5886 15.1074L20.6848 15.3781C20.45 15.4253 20.2734 15.638 20.2734 15.8937V17.5953H20.2755C20.2755 17.823 20.4189 18.0314 20.6412 18.098L21.5866 18.3795L21.6468 18.5277L21.1855 19.3914C21.0609 19.5955 21.0837 19.8683 21.2562 20.0445L22.4197 21.2476C22.5756 21.4088 22.8208 21.4517 23.0244 21.3357L23.8887 20.8416L24.0321 20.9039L24.3043 21.8814C24.3645 22.1005 24.5599 22.2595 24.7905 22.2595H26.4216C26.648 22.266 26.86 22.1156 26.9244 21.8814L27.1966 20.9039L27.3399 20.8416L28.1752 21.3185C28.3726 21.4474 28.6365 21.4238 28.8069 21.2455L29.9704 20.0424C30.1263 19.8812 30.1678 19.6277 30.0556 19.4172L29.5798 18.5234L29.6401 18.3752L30.5854 18.0937C30.9989 17.9713 30.9511 17.5695 30.9511 17.2644H33.2762V22.2273C33.2762 22.5173 33.5047 22.7537 33.7852 22.7537H42.0193C42.2998 22.7537 42.5283 22.5173 42.5283 22.2273L42.5264 20.3927ZM29.9349 16.7919V16.2892L29.1204 16.0464C28.7444 15.9411 28.7734 15.606 28.5636 15.1999C28.4805 15.0474 28.4742 14.854 28.5615 14.6907L28.9791 13.9087L28.3558 13.2641L27.5995 13.696C27.2836 13.8743 27.0572 13.6337 26.6229 13.4876C26.4671 13.436 26.3403 13.3092 26.2905 13.1331L26.0515 12.2737H25.1684L24.9336 13.1159C24.8318 13.5047 24.5077 13.4746 24.115 13.6916C23.9674 13.7776 23.7804 13.784 23.6225 13.6938L22.8662 13.262L22.2429 13.9065L22.6605 14.6885C22.8329 15.0151 22.6002 15.2493 22.4589 15.6983C22.4091 15.8594 22.2865 15.9905 22.1161 16.042L21.2871 16.2891V17.2044L22.0995 17.4471C22.4755 17.5524 22.4464 17.8876 22.6563 18.2936C22.7394 18.4462 22.7457 18.6396 22.6584 18.8028L22.2408 19.5849L22.8641 20.2316L23.6204 19.7997C23.9363 19.6214 24.1627 19.862 24.597 20.0081C24.7507 20.0597 24.8796 20.1864 24.9294 20.3626L25.1684 21.222H26.0515L26.2863 20.3798C26.3881 19.991 26.7122 20.021 27.1049 19.804C27.2524 19.7181 27.4395 19.7117 27.5974 19.8019L28.3537 20.2337L28.977 19.587L28.5594 18.805C28.3869 18.4763 28.6197 18.2443 28.761 17.7952C28.8108 17.6341 28.9355 17.5031 29.1038 17.4515L29.9349 17.2044V16.7919ZM42.6801 12.2802C42.6801 11.5884 43.6983 11.5884 43.6983 12.2802C43.6983 12.9827 43.1684 13.5113 42.5264 13.6896V16.5835H43.1372C43.773 14.9529 44.3611 15.0753 44.8307 13.9495C45.6929 11.8891 44.2364 9.53015 42.0173 9.53015C39.285 9.53015 37.8929 12.9913 39.9229 15.0043C40.3779 15.4555 40.6792 16.0206 40.8974 16.5835H41.5082V13.6895C40.8662 13.5112 40.3363 12.9827 40.3363 12.2801C40.3363 11.5884 41.3545 11.5884 41.3545 12.2801C41.3545 12.6389 42.1046 12.8882 42.5326 12.5401C42.624 12.4649 42.6801 12.3726 42.6801 12.2802ZM40.6272 18.0403L43.3512 18.0361C43.4115 18.0361 43.4032 18.0511 43.4427 18.0081L43.4447 18.0103C43.5819 17.8663 43.4759 17.6343 43.2931 17.6343H40.7415C40.6833 17.6343 40.6314 17.6579 40.5919 17.6988L40.5898 17.6966C40.5067 17.7847 40.5067 17.9222 40.5919 18.0081L40.5898 18.0103L40.6272 18.0403ZM42.6011 19.1661C42.6136 19.1533 42.624 19.1404 42.6365 19.1275H41.4002C41.716 19.4949 42.2645 19.5142 42.6011 19.1661ZM46.8253 10.7913L47.0476 10.6581C47.6252 10.3122 47.1182 9.40343 46.5385 9.74933L46.3162 9.88253C45.7386 10.2284 46.2477 11.1372 46.8253 10.7913ZM45.0862 8.60846L45.215 8.37857C45.3542 8.12721 45.2711 7.80707 45.028 7.66313C44.7849 7.51919 44.4753 7.60512 44.3361 7.85649L44.2073 8.08637C44.0681 8.33774 44.1512 8.65788 44.3943 8.80181C44.6374 8.94576 44.947 8.85767 45.0862 8.60846ZM37.7181 9.88248L37.4958 9.74927C36.9161 9.40337 36.4091 10.3121 36.9867 10.658L37.209 10.7912C37.7887 11.1371 38.2957 10.2284 37.7181 9.88248ZM39.827 8.0864L39.6982 7.85651C39.559 7.60515 39.2494 7.51921 39.0063 7.66315C38.7632 7.8071 38.6801 8.12722 38.8193 8.37859L38.9481 8.60848C39.2826 9.20572 40.1595 8.68366 39.827 8.0864ZM42.5261 7.61804V7.35163C42.5261 6.65984 41.5079 6.65984 41.5079 7.35163V7.61804C41.5079 8.31197 42.5261 8.31197 42.5261 7.61804ZM25.6106 14.1773C24.2393 14.1773 23.1277 15.3267 23.1277 16.7447H23.1297C23.1297 17.4559 23.4061 18.0961 23.8549 18.5602C25.4153 20.1737 28.0936 19.0242 28.0936 16.7447H28.0916C28.0916 15.3246 26.98 14.1773 25.6106 14.1773ZM25.6106 15.2301C24.8003 15.2301 24.1458 15.909 24.1458 16.7447H24.1437C24.1437 18.0832 25.7229 18.7707 26.6475 17.8168C26.9134 17.5418 27.0755 17.1637 27.0755 16.7447H27.0776C27.0776 15.9133 26.421 15.2301 25.6106 15.2301ZM33.583 40.9448C31.9083 40.9448 30.5349 42.3456 30.5349 44.0772C30.5349 45.811 31.9083 47.2096 33.583 47.2096C35.2597 47.2096 36.6311 45.811 36.6311 44.0772C36.6311 42.3456 35.2577 40.9448 33.583 40.9448ZM35.0208 42.6077C33.7534 41.3057 31.5509 42.2188 31.5509 44.0793C31.5509 45.9399 33.7513 46.8509 35.0208 45.551C35.8104 44.7389 35.8104 43.4198 35.0208 42.6077ZM28.5548 53.0214H38.6176C38.6135 51.8569 38.2166 50.8751 37.4042 50.0651C35.289 47.9554 31.9228 47.9403 29.793 50.0329C28.9661 50.8429 28.5528 51.8462 28.5548 53.0214ZM39.1267 54.0698C39.4072 54.0698 39.6336 53.8356 39.6336 53.5455C39.6316 53.0084 39.644 52.5895 39.5505 52.0546H48.7947C49.0752 52.0546 49.3017 51.8204 49.3017 51.5303L49.2996 50.9868C49.2954 49.5409 48.7801 48.2948 47.7745 47.2914C45.9356 45.4567 43.2179 44.9002 40.8324 45.8842C39.4819 46.4406 38.2311 47.4998 37.6327 48.877C35.2661 46.937 31.9061 46.937 29.5353 48.8748C29.2756 48.284 28.9057 47.7555 28.4403 47.2914C27.2331 46.0883 25.6187 45.4051 23.9149 45.4051C21.6023 45.4051 19.1651 46.7758 18.2612 48.9629C17.8768 49.8954 17.8747 50.5528 17.8747 51.5282C17.8747 51.8182 18.1012 52.0524 18.3817 52.0524H27.6194C27.5239 52.611 27.5405 52.9934 27.5426 53.5456C27.5426 53.8356 27.769 54.0698 28.0495 54.0698L39.1267 54.0698ZM27.9192 51.004C28.1208 50.512 28.3909 50.0651 28.7441 49.6483C28.3161 48.3528 27.1858 47.3688 25.9786 46.8661C23.9777 46.0325 21.6817 46.4858 20.1254 48.0155C19.3005 48.8255 18.885 49.8288 18.8891 51.004H27.9192ZM38.4267 49.6526C38.7778 50.0673 39.0521 50.5163 39.2516 51.004H48.2856C48.2814 49.8395 47.8846 48.8577 47.0722 48.0477C44.957 45.938 41.5908 45.9229 39.461 48.0155C38.9831 48.4838 38.6324 49.0252 38.4267 49.6526ZM43.2492 38.9298C41.5745 38.9298 40.2011 40.3285 40.2011 42.0622C40.2011 43.796 41.5745 45.1946 43.2492 45.1946C44.9239 45.1946 46.2974 43.796 46.2974 42.0622C46.2994 40.3285 44.926 38.9298 43.2492 38.9298ZM44.687 40.5905C43.4196 39.2886 41.2171 40.2017 41.2171 42.0622C41.2171 43.9228 43.4175 44.8337 44.687 43.5339C45.4787 42.7218 45.4787 41.4027 44.687 40.5905ZM23.9152 38.9298C22.2405 38.9298 20.8671 40.3285 20.8671 42.0622C20.8671 43.796 22.2405 45.1946 23.9152 45.1946C25.5899 45.1946 26.9634 43.796 26.9634 42.0622C26.9654 40.3285 25.592 38.9298 23.9152 38.9298ZM25.353 40.5905C24.0856 39.2886 21.8832 40.2017 21.8832 42.0622C21.8832 43.9228 24.0835 44.8337 25.353 43.5339C26.1447 42.7218 26.1447 41.4027 25.353 40.5905ZM34.0717 29.7429C33.6416 29.2982 32.9019 29.614 32.9019 30.2435C32.9019 30.873 33.6416 31.1888 34.0717 30.7441C34.3397 30.4691 34.3397 30.02 34.0717 29.7429ZM19.2589 25.0636C19.2485 25.04 19.2381 25.0142 19.2319 24.9884C19.0366 24.4556 18.8371 23.9443 18.6356 23.4565C17.846 22.0171 16.6824 21.0288 15.1428 20.496C13.5512 19.9439 11.5524 19.8665 9.14651 20.2618L9.13196 20.264C7.52377 20.4853 6.22516 20.2403 5.24026 19.5249C4.25122 18.8073 3.60712 17.6385 3.30585 16.0229C3.25183 15.7307 3.09599 15.4858 2.88405 15.3204L2.88198 15.3226C2.08825 14.7081 0.906019 15.3913 1.10128 16.4591C1.85761 20.5776 3.6466 22.728 7.66937 22.8011C7.92494 22.8054 8.13272 23.0031 8.16389 23.2587C8.44855 25.5017 8.78101 29.3538 8.53373 31.3905C8.13064 34.8602 7.8148 37.9344 7.57793 40.257C7.42833 41.7201 7.30782 42.8975 7.22679 43.5978C7.10004 44.6893 8.34466 45.2672 9.08641 44.6119C9.29835 44.425 9.44172 44.1586 9.47081 43.8535C9.78455 40.6223 10.5637 32.6687 11.5258 30.8856C11.719 30.5269 12.2239 30.5247 12.4171 30.8942C13.3812 32.7355 14.15 40.5792 14.4659 43.8533C14.5656 44.8889 15.8413 45.2391 16.4626 44.4699C16.6704 44.2121 16.7514 43.9307 16.712 43.5977C16.6309 42.8973 16.5104 41.7199 16.3608 40.2569C16.1239 37.9344 15.8081 34.8579 15.405 31.3881C15.1723 29.1387 15.3593 26.6702 15.6751 24.1908C15.7437 23.6537 16.4585 23.5678 16.6496 24.0662H16.6517C17.4641 26.191 18.2059 28.2664 18.958 30.5073C19.3424 31.6545 21.1355 31.126 20.801 29.9165C20.3168 28.1849 19.8348 26.6336 19.2593 25.0632L19.2589 25.0636ZM20.0692 24.3224H47.282C48.1775 24.3224 48.9151 23.5618 48.9151 22.6337V6.97575C48.9151 6.04762 48.1796 5.28708 47.282 5.28708H19.8926C18.995 5.28708 18.2595 6.04762 18.2595 6.97575V21.235C18.7498 21.7292 19.1737 22.3071 19.5311 22.9624L20.0692 24.3224ZM11.7495 12.2438C11.7267 12.2481 11.7017 12.2503 11.6768 12.2503C10.9807 12.3319 10.3782 12.6928 9.96681 13.217C8.50404 15.0647 9.94603 17.8169 12.2295 17.5805C12.9401 17.5075 13.5552 17.1422 13.977 16.6116C15.4231 14.7833 14.0226 12.044 11.7495 12.2438ZM11.6145 11.204C10.6421 11.2878 9.7507 11.8313 9.17931 12.551C7.92016 14.143 8.14873 16.4977 9.6863 17.7997C12.1277 19.8665 15.8576 17.9071 15.5602 14.5448C15.3795 12.521 13.6071 10.9977 11.6145 11.204Z" fill="url(#paint0_linear_294_3275)" stroke="url(#paint1_linear_294_3275)" stroke-width="2" mask="url(#path-1-inside-1_294_3275)"/>
<defs>
<linearGradient id="paint0_linear_294_3275" x1="0.0664062" y1="29.1531" x2="49.9338" y2="29.1531" gradientUnits="userSpaceOnUse">
<stop stop-color="#48AB77"/>
<stop offset="0.461536" stop-color="#EAB6AC"/>
<stop offset="1" stop-color="#B096CF"/>
</linearGradient>
<linearGradient id="paint1_linear_294_3275" x1="0.0664062" y1="29.1531" x2="49.9338" y2="29.1531" gradientUnits="userSpaceOnUse">
<stop stop-color="#48AB77"/>
<stop offset="0.461536" stop-color="#EAB6AC"/>
<stop offset="1" stop-color="#B096CF"/>
</linearGradient>
</defs>
</svg>
