<svg width="55" height="60" viewBox="0 0 55 60" fill="none" xmlns="http://www.w3.org/2000/svg">
<g clip-path="url(#clip0_294_3218)">
<mask id="path-1-inside-1_294_3218" fill="white">
<path fill-rule="evenodd" clip-rule="evenodd" d="M36.9772 16.1976C37.3129 16.1085 37.6607 16.0781 38.0037 16.1062C38.6703 16.1624 39.32 16.4437 39.8296 16.9406L42.1989 19.2444C42.7061 19.739 42.9936 20.3671 43.0515 21.0163C43.0805 21.3468 43.0491 21.6843 42.9573 22.0077C43.7688 21.7874 44.4958 21.3655 45.0755 20.803C45.9522 19.9522 46.4956 18.7757 46.4956 17.4749C46.4956 16.1764 45.9522 14.9999 45.0755 14.1467C44.1987 13.2959 42.9863 12.7686 41.6458 12.7686C40.3078 12.7686 39.0954 13.2959 38.2162 14.1467C37.639 14.7069 37.2042 15.41 36.9772 16.1952L36.9772 16.1976ZM50.0245 37.0104C50.0245 36.558 50.4013 36.1924 50.8675 36.1924C51.3336 36.1924 51.7104 36.558 51.7104 37.0104V51.8556C51.7104 52.8541 51.2901 53.7611 50.6139 54.4173C49.9377 55.0735 49.0029 55.4813 47.9741 55.4813H34.7122L36.0695 56.8009C36.398 57.1196 36.398 57.6376 36.0695 57.9587C35.7411 58.2774 35.2073 58.2774 34.8764 57.9587L32.082 55.247C32.0603 55.2259 32.0385 55.2048 32.0192 55.1814C31.9733 55.1274 31.9371 55.0712 31.9081 55.0079C31.8574 54.9025 31.8308 54.7876 31.8308 54.6634C31.8308 54.5415 31.8598 54.4243 31.9081 54.3189C31.9395 54.2556 31.9733 54.1993 32.0192 54.1454C32.0385 54.122 32.0603 54.1009 32.082 54.0798L34.8764 51.3681C35.2049 51.0493 35.7386 51.0493 36.0695 51.3681C36.398 51.6868 36.398 52.2048 36.0695 52.5259L34.7122 53.8454H47.9741C48.5368 53.8454 49.0489 53.6228 49.4208 53.2618C49.7927 52.9009 50.0222 52.404 50.0222 51.8579V37.0127L50.0245 37.0104ZM18.1173 6.387C17.7888 6.06825 17.7888 5.5503 18.1173 5.22918C18.4457 4.91043 18.9795 4.91043 19.3104 5.22918L22.1048 7.94088C22.1265 7.96197 22.1483 7.98306 22.1676 8.0065C22.2135 8.06041 22.2497 8.11666 22.2787 8.17994C22.3294 8.28541 22.356 8.40025 22.356 8.52447C22.356 8.64634 22.327 8.76354 22.2787 8.869C22.2473 8.93229 22.2135 8.98854 22.1676 9.04244C22.1483 9.06588 22.1265 9.08697 22.1048 9.10807L19.3104 11.8198C18.9819 12.1385 18.4482 12.1385 18.1173 11.8198C17.7888 11.501 17.7888 10.9831 18.1173 10.6619L19.477 9.34477L6.21267 9.34008C5.64992 9.34008 5.13789 9.56273 4.76598 9.92368C4.39404 10.2846 4.16459 10.7815 4.16459 11.3276V26.1728C4.16459 26.6251 3.78781 26.9907 3.32166 26.9907C2.85552 26.9907 2.47873 26.6251 2.47873 26.1728V11.3276C2.47873 10.3291 2.89898 9.42208 3.57522 8.76586C4.25146 8.10964 5.1862 7.70182 6.21505 7.70182H19.4769L18.1196 6.38464L18.1173 6.387ZM6.71523 39.1482C7.0437 39.4669 7.0437 39.9849 6.71523 40.306C6.38675 40.6248 5.85301 40.6248 5.5221 40.306L4.16475 38.9865V51.8559C4.16475 52.402 4.39419 52.8989 4.76614 53.2598C5.13808 53.6207 5.65012 53.8434 6.21283 53.8434H21.5108C21.9769 53.8434 22.3537 54.209 22.3537 54.6614C22.3537 55.1137 21.9769 55.4793 21.5108 55.4793L6.21283 55.4817C5.18392 55.4817 4.24924 55.0739 3.57301 54.4176C2.89678 53.7614 2.47652 52.8543 2.47652 51.8559V38.9865L1.11917 40.3037C0.7907 40.6225 0.256954 40.6225 -0.0739594 40.3037C-0.40243 39.985 -0.40243 39.467 -0.0739594 39.1459L2.72044 36.4342C2.74218 36.4131 2.76391 36.392 2.78807 36.3733C2.84362 36.3287 2.90158 36.2936 2.96679 36.2654C3.07548 36.2162 3.19383 36.1904 3.32183 36.1904C3.44742 36.1904 3.56819 36.2186 3.67687 36.2654C3.74208 36.2959 3.80005 36.3287 3.8556 36.3733C3.87975 36.392 3.90149 36.4131 3.92323 36.4342L6.71762 39.1459L6.71523 39.1482ZM41.9125 23.8128C43.6104 23.7472 45.1441 23.0511 46.2696 21.9613C47.453 20.8128 48.1849 19.2284 48.1849 17.4776C48.1849 15.7268 47.453 14.1401 46.2696 12.994C45.0861 11.8456 43.4534 11.1354 41.6492 11.1354C39.845 11.1354 38.2099 11.8456 37.0288 12.994C35.9058 14.0839 35.1884 15.5698 35.1208 17.2151C35.0604 17.2339 34.9977 17.2456 34.9349 17.2503C34.7779 17.262 34.616 17.2315 34.4591 17.1565C34.1233 16.9948 33.7877 16.8472 33.4495 16.7112C33.1186 16.5776 32.7708 16.4511 32.4085 16.3339C32.2443 16.28 32.109 16.1933 32.0076 16.0784C31.9086 15.9659 31.8385 15.8206 31.8096 15.6542L31.7323 15.2229C31.7685 15.1925 31.7999 15.1597 31.8337 15.1245C32.0269 14.9229 32.1767 14.6792 32.2733 14.4026C32.3409 14.2105 32.4182 14.0112 32.5051 13.805C32.51 13.7909 32.5172 13.7769 32.522 13.7652C32.5993 13.587 32.6863 13.4042 32.7781 13.2214C32.9471 12.8909 33.0148 12.5417 32.9882 12.1972C32.9592 11.8503 32.836 11.5128 32.6187 11.2128L32.2926 10.7652C32.2081 10.6503 32.1743 10.5168 32.1863 10.3878C32.1984 10.2589 32.254 10.1324 32.3554 10.0339L33.9736 8.4683C34.075 8.36986 34.2055 8.31361 34.3359 8.30189C34.4711 8.29018 34.6088 8.32533 34.7272 8.40502L35.1885 8.71908C35.4976 8.93002 35.8454 9.05189 36.2028 9.07768C36.5579 9.10346 36.9177 9.03783 37.2583 8.87377C37.4515 8.78237 37.652 8.6933 37.8621 8.60893C38.0746 8.52455 38.2799 8.44721 38.478 8.38393C38.8378 8.26674 39.1421 8.06518 39.3764 7.80033C39.6107 7.53548 39.7677 7.21205 39.8329 6.85113L39.9295 6.30973C39.9537 6.1691 40.0261 6.05191 40.1251 5.96988C40.2266 5.88785 40.3594 5.83863 40.5067 5.83863L42.7915 5.84097C42.9365 5.84097 43.0693 5.89019 43.1707 5.97222C43.2698 6.05426 43.3398 6.17144 43.3664 6.31207L43.463 6.85113C43.5282 7.21207 43.6852 7.53549 43.9195 7.80033C44.1537 8.06518 44.458 8.2644 44.8179 8.38393C45.0159 8.44956 45.2212 8.52456 45.4338 8.60893C45.6439 8.6933 45.8444 8.78237 46.0376 8.87378C46.3781 9.03784 46.738 9.10346 47.093 9.07768C47.4505 9.04955 47.7983 8.93003 48.1074 8.71908L48.5687 8.40268C48.6871 8.32065 48.8247 8.28783 48.9576 8.29955C49.0904 8.31127 49.2208 8.36518 49.3223 8.46362L50.9356 10.0339C51.0371 10.1324 51.0951 10.2589 51.1071 10.3855C51.1192 10.5168 51.083 10.6503 51.0009 10.7652L50.6772 11.2128C50.4598 11.5128 50.3342 11.8503 50.3077 12.1972C50.2811 12.5417 50.3487 12.8909 50.5178 13.2214C50.6192 13.4183 50.711 13.6128 50.7907 13.805L50.7931 13.8073H50.7907C50.8777 14.0136 50.9574 14.2128 51.0226 14.405C51.1433 14.7542 51.3511 15.0495 51.624 15.2769C51.8969 15.5042 52.2302 15.6565 52.6021 15.7198L53.16 15.8136C53.305 15.837 53.4257 15.9073 53.5103 16.0034C53.5948 16.1019 53.6455 16.2308 53.6455 16.3737L53.6431 18.5909C53.6431 18.7315 53.5924 18.8604 53.5078 18.9589C53.4233 19.055 53.3025 19.1229 53.1576 19.1487L52.6021 19.2425C52.2302 19.3058 51.8969 19.4581 51.624 19.6854C51.3511 19.9128 51.1458 20.2081 51.0226 20.5573C50.9525 20.7589 50.8753 20.9581 50.7907 21.155H50.7883C50.7014 21.3589 50.6096 21.5534 50.5154 21.7409C50.3463 22.0714 50.2787 22.4206 50.3053 22.7651C50.3342 23.112 50.4574 23.4495 50.6748 23.7495L51.0008 24.1971C51.0854 24.312 51.1192 24.4455 51.1071 24.5745C51.095 24.7034 51.0395 24.8299 50.938 24.9284L49.3198 26.494C49.2184 26.5924 49.088 26.6487 48.9576 26.6604C48.8223 26.6721 48.6846 26.637 48.5663 26.5573L48.105 26.2432C47.7958 26.0323 47.448 25.9104 47.0906 25.8846C46.7356 25.8588 46.3757 25.9245 46.0352 26.0885C45.8419 26.1799 45.6415 26.269 45.4314 26.3534C45.4169 26.3581 45.4048 26.3651 45.3903 26.3698C45.2019 26.4448 45.0087 26.5151 44.8155 26.5784C44.5305 26.6721 44.2793 26.8174 44.0716 27.0049C44.0378 27.0354 44.004 27.0682 43.9726 27.101L43.5209 27.026C43.3495 26.9979 43.1997 26.9299 43.0838 26.8338C42.9654 26.7354 42.8736 26.6042 42.8205 26.4448C42.6973 26.0909 42.5669 25.7557 42.4317 25.4346C42.2916 25.1065 42.1394 24.7807 41.9728 24.4573C41.8955 24.3049 41.8641 24.1479 41.8762 23.9956C41.881 23.937 41.8931 23.8784 41.9124 23.8198L41.9125 23.8128ZM45.8976 27.9261C45.9652 27.9917 46.0328 28.0597 46.0932 28.13C46.5255 28.6292 46.7792 29.2714 46.7792 29.9675L46.7743 33.223C46.7743 33.9191 46.5183 34.5613 46.086 35.0581C45.6512 35.5574 45.0426 35.9113 44.3374 36.0285L43.5234 36.1644C43.352 36.1925 43.2022 36.2605 43.0863 36.3566C42.9679 36.455 42.8762 36.5863 42.823 36.7456C42.6998 37.0995 42.5694 37.4347 42.4318 37.7558C42.4245 37.7699 42.4197 37.7839 42.4124 37.798C42.2724 38.1214 42.125 38.4332 41.9729 38.7355C41.8956 38.8878 41.8642 39.0449 41.8763 39.1972C41.8883 39.3449 41.9439 39.4949 42.0453 39.6331L42.5235 40.2918C42.939 40.8636 43.1129 41.5293 43.0549 42.1785C42.9969 42.8253 42.7071 43.4558 42.1951 43.9503L39.8209 46.2495C39.3113 46.7417 38.664 47.0207 37.995 47.0769C37.3285 47.1331 36.6425 46.9644 36.0556 46.5612L35.3793 46.0995C35.2368 46.0034 35.0823 45.9472 34.9301 45.9355C34.7731 45.9237 34.6113 45.9542 34.4543 46.0292C34.1186 46.1909 33.7829 46.3386 33.4472 46.4745C33.4327 46.4816 33.4182 46.4862 33.4037 46.4909C33.0776 46.6222 32.7443 46.7417 32.4062 46.8519C32.242 46.9058 32.1067 46.9925 32.0053 47.1073C31.9062 47.2198 31.8362 47.3651 31.8072 47.5316L31.6647 48.3261C31.5415 49.0128 31.1768 49.6034 30.6624 50.0253C30.1479 50.4448 29.4862 50.6909 28.7689 50.6909L25.4141 50.6862C24.6967 50.6862 24.035 50.4378 23.523 50.0182C23.0085 49.5964 22.6438 49.0057 22.5231 48.3214L22.383 47.5315C22.354 47.3651 22.2839 47.2198 22.1849 47.1073C22.0835 46.9925 21.9482 46.9034 21.784 46.8519C21.4314 46.737 21.086 46.6105 20.7454 46.4722L20.743 46.4698V46.4722C20.4049 46.3362 20.0692 46.1886 19.7335 46.0269C19.5765 45.9519 19.4147 45.9214 19.2577 45.9331C19.1055 45.9448 18.9509 45.9987 18.8084 46.0972L18.1297 46.5612C17.5404 46.9644 16.8545 47.1331 16.1855 47.0769C15.5189 47.0206 14.8692 46.7394 14.3596 46.2425L11.9903 43.9386C11.4831 43.4441 11.1956 42.816 11.1377 42.1668C11.0797 41.5199 11.2536 40.8543 11.6691 40.2847L12.1449 39.6285C12.2439 39.4902 12.3018 39.3402 12.3139 39.1925C12.326 39.0402 12.2946 38.8832 12.2173 38.7308C12.0507 38.405 11.8985 38.0793 11.7584 37.7535C11.7512 37.7394 11.7463 37.7253 11.7415 37.7113C11.6063 37.3949 11.4831 37.0714 11.3696 36.7433C11.314 36.5839 11.2247 36.4527 11.1063 36.3542C10.9904 36.2581 10.8406 36.1902 10.6692 36.1621L9.85041 36.0238C9.14277 35.9042 8.53411 35.5503 8.09939 35.0511C7.66706 34.5519 7.41345 33.9097 7.41345 33.2136L7.41828 29.9581C7.41828 29.262 7.67429 28.6198 8.10663 28.123C8.54137 27.6237 9.15001 27.2698 9.85524 27.1526L10.6692 27.0167C10.8406 26.9886 10.9904 26.9206 11.1063 26.8245C11.2247 26.7261 11.3164 26.5948 11.3696 26.4355C11.4879 26.0933 11.6183 25.7581 11.7608 25.4276L11.7633 25.4253H11.7608C11.9009 25.0972 12.0531 24.7714 12.2197 24.448C12.297 24.2956 12.3284 24.1386 12.3163 23.9862C12.3043 23.8386 12.2487 23.6886 12.1473 23.5503L11.6691 22.8917C11.2536 22.3198 11.0798 21.6542 11.1377 21.005C11.1957 20.3581 11.4855 19.7276 11.9975 19.2331L14.3717 16.9339C14.8813 16.4417 15.5286 16.1628 16.1976 16.1066C16.8641 16.0503 17.5501 16.2191 18.137 16.6222L18.8133 17.0839C18.9558 17.18 19.1103 17.2363 19.2625 17.248C19.4195 17.2597 19.5813 17.2292 19.7383 17.1542C20.074 16.9925 20.4097 16.8449 20.7479 16.7089C20.7623 16.7019 20.7768 16.6972 20.7913 16.6925C21.1174 16.5613 21.4507 16.4417 21.7888 16.3316C21.9531 16.2777 22.0883 16.191 22.1898 16.0761C22.2888 15.9636 22.3588 15.8183 22.3878 15.6519L22.5303 14.8574C22.6535 14.1707 23.0182 13.58 23.5326 13.1582C24.0471 12.7387 24.7088 12.4925 25.4262 12.4925L28.7809 12.4972C29.4983 12.4972 30.16 12.7457 30.6721 13.1652C30.7445 13.2261 30.817 13.2894 30.8822 13.3551C30.9063 13.2941 30.9305 13.2355 30.957 13.1769C30.9643 13.1629 30.9691 13.1488 30.9764 13.1347C31.073 12.9121 31.172 12.6988 31.2759 12.4949C31.3073 12.434 31.3193 12.373 31.3145 12.3144C31.3097 12.2605 31.2879 12.2019 31.2469 12.148L30.9208 11.7004C30.5996 11.2598 30.4668 10.7441 30.5102 10.2426C30.5537 9.741 30.7783 9.25586 31.1744 8.87384L32.7926 7.3082C33.1863 6.92851 33.6862 6.71289 34.2031 6.66836C34.7175 6.62617 35.2465 6.75508 35.7005 7.0668L36.1618 7.38086C36.2198 7.4207 36.2778 7.4418 36.3333 7.44649C36.3937 7.45118 36.4565 7.43946 36.5193 7.40899C36.7536 7.29649 36.9878 7.19336 37.2221 7.09962C37.4491 7.00821 37.6931 6.91915 37.9491 6.83477C38.0143 6.81368 38.065 6.78086 38.1037 6.73867C38.1399 6.69649 38.1665 6.64258 38.1786 6.57461L38.2752 6.03321C38.3694 5.50352 38.6519 5.04651 39.0504 4.72071C39.449 4.39727 39.9586 4.20508 40.5117 4.20508L42.7965 4.20742C43.3496 4.20742 43.8616 4.39961 44.2577 4.72305C44.6562 5.04883 44.9388 5.50587 45.033 6.03321L45.1296 6.57227C45.1417 6.6379 45.1682 6.69415 45.2045 6.73634C45.2431 6.77853 45.2938 6.81368 45.359 6.83243C45.615 6.91681 45.859 7.00353 46.086 7.09493C46.3203 7.18868 46.5546 7.29181 46.7888 7.40665C46.8516 7.43712 46.9144 7.44884 46.9748 7.44415C47.0304 7.43947 47.0907 7.41837 47.1463 7.37852L47.6076 7.06212C48.0617 6.7504 48.593 6.62149 49.1099 6.66368C49.6267 6.70587 50.1267 6.92384 50.5203 7.3082L52.1337 8.87852C52.525 9.26056 52.7472 9.7457 52.7931 10.2472C52.8366 10.7465 52.7037 11.2597 52.3825 11.7004L52.0588 12.148C52.0178 12.2043 51.9961 12.2605 51.9912 12.3144C51.9864 12.373 51.9985 12.434 52.0299 12.4949C52.141 12.7105 52.2472 12.9379 52.3487 13.1769H52.3511C52.4453 13.3972 52.5371 13.634 52.624 13.8824C52.6457 13.9457 52.6796 13.9949 52.723 14.0324C52.7665 14.0676 52.8221 14.0933 52.8921 14.1051L53.45 14.1988C53.9959 14.2902 54.4668 14.5644 54.8025 14.9512C55.1358 15.3379 55.3339 15.8324 55.3339 16.3691L55.3315 18.5863C55.3315 19.123 55.1334 19.6199 54.8001 20.0043C54.4644 20.391 53.9934 20.6653 53.45 20.7566L52.8945 20.8504C52.8269 20.8621 52.7689 20.8879 52.7254 20.923C52.682 20.9605 52.6457 21.0098 52.6264 21.073C52.5443 21.3098 52.4525 21.5441 52.3535 21.7762L52.3511 21.7785H52.3535C52.2569 22.0059 52.1506 22.2332 52.0347 22.4605C52.0033 22.5215 51.9912 22.5824 51.996 22.641C52.0009 22.6949 52.0226 22.7535 52.0637 22.8074L52.3897 23.2551C52.7109 23.6957 52.8438 24.2113 52.8003 24.7129C52.7568 25.2145 52.5322 25.6996 52.1361 26.0816L50.5179 27.6472C50.1242 28.0269 49.6243 28.2426 49.1075 28.2871C48.593 28.3293 48.0641 28.2004 47.61 27.8887L47.1487 27.5746C47.0907 27.5347 47.0328 27.5137 46.9772 27.509C46.9168 27.5043 46.854 27.516 46.7912 27.5465C46.557 27.659 46.3227 27.7621 46.0884 27.8558C46.0739 27.8629 46.0594 27.8676 46.0425 27.8722C45.9966 27.891 45.9508 27.9074 45.9049 27.9261L45.8976 27.9261ZM27.0976 21.8793C29.8607 21.8793 32.3652 22.9668 34.1765 24.7246C35.9879 26.4824 37.1086 28.9106 37.1086 31.594C37.1086 34.2775 35.9879 36.7057 34.1765 38.4634C32.3651 40.2212 29.8629 41.3087 27.0976 41.3087C24.3323 41.3087 21.83 40.2212 20.0187 38.4634C18.2073 36.7056 17.0866 34.2775 17.0866 31.594C17.0866 28.9106 18.2073 26.4823 20.0187 24.7246C21.8301 22.9668 24.3323 21.8793 27.0976 21.8793ZM32.9835 25.8824C31.4764 24.4199 29.3969 23.5176 27.0976 23.5176C24.7983 23.5176 22.7188 24.4223 21.2117 25.8824C19.7046 27.3449 18.7748 29.3629 18.7748 31.5941C18.7748 33.8254 19.707 35.8433 21.2117 37.3058C22.7188 38.7683 24.7983 39.6707 27.0976 39.6707C29.3969 39.6707 31.4764 38.766 32.9835 37.3058C34.4906 35.8433 35.4205 33.8254 35.4205 31.5941C35.4205 29.3629 34.4882 27.3449 32.9835 25.8824ZM37.0314 17.9582C37.2826 17.7848 37.5773 17.7145 37.8623 17.7379C38.1473 17.7614 38.4251 17.8809 38.64 18.0918L41.0093 20.3957C41.2267 20.6066 41.3499 20.8762 41.374 21.1504C41.3982 21.427 41.3233 21.7129 41.147 21.959L40.6712 22.6153C40.3934 22.9997 40.234 23.4286 40.2002 23.8692C40.1664 24.3074 40.2533 24.7528 40.4683 25.1746C40.6132 25.4582 40.7509 25.7535 40.8813 26.0583C41.0117 26.3653 41.1301 26.6653 41.2315 26.9606C41.3861 27.4059 41.6493 27.7833 41.9972 28.0716C42.3449 28.3598 42.7676 28.5544 43.2434 28.6341L44.0621 28.7723C44.3689 28.8239 44.6297 28.9739 44.8108 29.1825C44.9944 29.3934 45.1031 29.67 45.1007 29.9723L45.0958 33.2278C45.0958 33.5278 44.9872 33.8044 44.8036 34.0153C44.6225 34.2239 44.3616 34.3739 44.0549 34.4255L43.241 34.5614C42.7652 34.6411 42.3401 34.8356 41.9923 35.1239C41.6469 35.4122 41.3837 35.7896 41.2267 36.2349C41.1252 36.5302 41.0069 36.8302 40.8765 37.1372C40.8716 37.1513 40.8644 37.1653 40.8596 37.1794C40.7388 37.4583 40.6084 37.7396 40.4635 38.0208C40.2485 38.4403 40.1591 38.888 40.1954 39.3263C40.2316 39.7692 40.3886 40.1981 40.6663 40.5801L41.1446 41.2388C41.3233 41.4825 41.3958 41.7684 41.3716 42.045C41.3474 42.3216 41.2243 42.5911 41.0069 42.7997L38.6328 45.0989C38.4154 45.3099 38.1376 45.4294 37.8551 45.4528C37.5701 45.4763 37.2754 45.4036 37.0218 45.2325L36.3455 44.7708C35.9494 44.5013 35.5074 44.3466 35.0534 44.3138C34.6017 44.2809 34.1428 44.3653 33.7081 44.5739C33.4158 44.7145 33.1115 44.8481 32.7975 44.9747C32.783 44.9794 32.7709 44.9864 32.7565 44.9911C32.4642 45.1083 32.1695 45.2138 31.8676 45.3122C31.4088 45.4622 31.0199 45.7177 30.7228 46.0528C30.4257 46.3903 30.2253 46.8005 30.1432 47.2622L30.0007 48.0567C29.9475 48.3544 29.7929 48.6075 29.578 48.7833C29.3606 48.9614 29.0756 49.0669 28.7641 49.0645L25.4093 49.0598C25.1002 49.0598 24.8152 48.9544 24.5978 48.7762C24.3828 48.6004 24.2283 48.3473 24.1751 48.0497L24.035 47.2598C23.9529 46.7981 23.7525 46.3857 23.4554 46.0481C23.1583 45.713 22.7694 45.4575 22.3105 45.3052C21.9966 45.202 21.685 45.0895 21.3807 44.9653V44.963C21.0667 44.8364 20.7648 44.7028 20.4725 44.5622C20.0402 44.3536 19.5789 44.2669 19.1272 44.302C18.6708 44.3372 18.2288 44.4895 17.8351 44.7591L17.1564 45.2231C16.9052 45.3966 16.6106 45.4669 16.3255 45.4435C16.0405 45.42 15.7628 45.3005 15.5478 45.0895L13.1785 42.7857C12.9612 42.5747 12.838 42.3052 12.8138 42.031C12.7897 41.7544 12.8646 41.4685 13.0409 41.2224L13.5167 40.5661C13.7944 40.1817 13.9538 39.7528 13.9876 39.3122C14.0214 38.8739 13.9345 38.4286 13.7195 38.0067C13.5746 37.7231 13.437 37.4278 13.3065 37.1231C13.3017 37.109 13.2945 37.0973 13.2896 37.0833C13.1689 36.7997 13.0602 36.5137 12.9587 36.2208C12.8042 35.7754 12.5409 35.3981 12.1955 35.1098C11.8477 34.8215 11.4251 34.627 10.9493 34.5473L10.1305 34.409C9.8238 34.3575 9.56295 34.2075 9.38183 33.9989C9.19828 33.7879 9.08959 33.5114 9.092 33.209L9.09683 29.9535C9.09683 29.6535 9.20552 29.377 9.38908 29.166C9.57022 28.9574 9.83106 28.8074 10.1378 28.7559L10.9517 28.62C11.4275 28.5403 11.8526 28.3457 12.2004 28.0575C12.5457 27.7692 12.809 27.3918 12.966 26.9465C13.0723 26.6418 13.1882 26.3395 13.3162 26.0442H13.3186C13.449 25.7395 13.5867 25.4465 13.7316 25.1629C13.9466 24.7433 14.0359 24.2957 13.9997 23.8574C13.9635 23.4144 13.8065 22.9855 13.5287 22.6035L13.0505 21.9449C12.8718 21.7011 12.7993 21.4152 12.8235 21.1386C12.8476 20.8621 12.9708 20.5925 13.1882 20.3839L15.5623 18.0847C15.7797 17.8738 16.0575 17.7543 16.34 17.7308C16.625 17.7074 16.9197 17.7801 17.1733 17.9511L17.8496 18.4129C18.2457 18.6824 18.6877 18.8371 19.1417 18.8699C19.5934 18.9027 20.0523 18.8183 20.487 18.6097C20.7793 18.4691 21.0836 18.3355 21.3976 18.209C21.4121 18.2043 21.4241 18.1972 21.4386 18.1926C21.7309 18.0754 22.0255 17.9699 22.3274 17.8715C22.7863 17.7215 23.1752 17.466 23.4723 17.1308C23.7694 16.7933 23.9698 16.3832 24.0519 15.9215L24.1944 15.1269C24.2476 14.8293 24.4021 14.5762 24.6171 14.4004C24.8345 14.2223 25.1195 14.1168 25.431 14.1191L28.7858 14.1238C29.0949 14.1238 29.3799 14.2293 29.5973 14.4074C29.8123 14.5832 29.9668 14.8363 30.02 15.134L30.1601 15.9238C30.2422 16.3855 30.4426 16.798 30.7397 17.1355C31.0368 17.4707 31.4256 17.7261 31.8845 17.8785C32.1889 17.9769 32.498 18.0918 32.8144 18.2183C33.1284 18.3449 33.4303 18.4785 33.725 18.6191C34.1573 18.8277 34.6186 18.9144 35.0703 18.8793C35.5267 18.8441 35.9687 18.6918 36.3624 18.4222L37.0411 17.9582L37.0314 17.9582Z"/>
</mask>
<path fill-rule="evenodd" clip-rule="evenodd" d="M36.9772 16.1976C37.3129 16.1085 37.6607 16.0781 38.0037 16.1062C38.6703 16.1624 39.32 16.4437 39.8296 16.9406L42.1989 19.2444C42.7061 19.739 42.9936 20.3671 43.0515 21.0163C43.0805 21.3468 43.0491 21.6843 42.9573 22.0077C43.7688 21.7874 44.4958 21.3655 45.0755 20.803C45.9522 19.9522 46.4956 18.7757 46.4956 17.4749C46.4956 16.1764 45.9522 14.9999 45.0755 14.1467C44.1987 13.2959 42.9863 12.7686 41.6458 12.7686C40.3078 12.7686 39.0954 13.2959 38.2162 14.1467C37.639 14.7069 37.2042 15.41 36.9772 16.1952L36.9772 16.1976ZM50.0245 37.0104C50.0245 36.558 50.4013 36.1924 50.8675 36.1924C51.3336 36.1924 51.7104 36.558 51.7104 37.0104V51.8556C51.7104 52.8541 51.2901 53.7611 50.6139 54.4173C49.9377 55.0735 49.0029 55.4813 47.9741 55.4813H34.7122L36.0695 56.8009C36.398 57.1196 36.398 57.6376 36.0695 57.9587C35.7411 58.2774 35.2073 58.2774 34.8764 57.9587L32.082 55.247C32.0603 55.2259 32.0385 55.2048 32.0192 55.1814C31.9733 55.1274 31.9371 55.0712 31.9081 55.0079C31.8574 54.9025 31.8308 54.7876 31.8308 54.6634C31.8308 54.5415 31.8598 54.4243 31.9081 54.3189C31.9395 54.2556 31.9733 54.1993 32.0192 54.1454C32.0385 54.122 32.0603 54.1009 32.082 54.0798L34.8764 51.3681C35.2049 51.0493 35.7386 51.0493 36.0695 51.3681C36.398 51.6868 36.398 52.2048 36.0695 52.5259L34.7122 53.8454H47.9741C48.5368 53.8454 49.0489 53.6228 49.4208 53.2618C49.7927 52.9009 50.0222 52.404 50.0222 51.8579V37.0127L50.0245 37.0104ZM18.1173 6.387C17.7888 6.06825 17.7888 5.5503 18.1173 5.22918C18.4457 4.91043 18.9795 4.91043 19.3104 5.22918L22.1048 7.94088C22.1265 7.96197 22.1483 7.98306 22.1676 8.0065C22.2135 8.06041 22.2497 8.11666 22.2787 8.17994C22.3294 8.28541 22.356 8.40025 22.356 8.52447C22.356 8.64634 22.327 8.76354 22.2787 8.869C22.2473 8.93229 22.2135 8.98854 22.1676 9.04244C22.1483 9.06588 22.1265 9.08697 22.1048 9.10807L19.3104 11.8198C18.9819 12.1385 18.4482 12.1385 18.1173 11.8198C17.7888 11.501 17.7888 10.9831 18.1173 10.6619L19.477 9.34477L6.21267 9.34008C5.64992 9.34008 5.13789 9.56273 4.76598 9.92368C4.39404 10.2846 4.16459 10.7815 4.16459 11.3276V26.1728C4.16459 26.6251 3.78781 26.9907 3.32166 26.9907C2.85552 26.9907 2.47873 26.6251 2.47873 26.1728V11.3276C2.47873 10.3291 2.89898 9.42208 3.57522 8.76586C4.25146 8.10964 5.1862 7.70182 6.21505 7.70182H19.4769L18.1196 6.38464L18.1173 6.387ZM6.71523 39.1482C7.0437 39.4669 7.0437 39.9849 6.71523 40.306C6.38675 40.6248 5.85301 40.6248 5.5221 40.306L4.16475 38.9865V51.8559C4.16475 52.402 4.39419 52.8989 4.76614 53.2598C5.13808 53.6207 5.65012 53.8434 6.21283 53.8434H21.5108C21.9769 53.8434 22.3537 54.209 22.3537 54.6614C22.3537 55.1137 21.9769 55.4793 21.5108 55.4793L6.21283 55.4817C5.18392 55.4817 4.24924 55.0739 3.57301 54.4176C2.89678 53.7614 2.47652 52.8543 2.47652 51.8559V38.9865L1.11917 40.3037C0.7907 40.6225 0.256954 40.6225 -0.0739594 40.3037C-0.40243 39.985 -0.40243 39.467 -0.0739594 39.1459L2.72044 36.4342C2.74218 36.4131 2.76391 36.392 2.78807 36.3733C2.84362 36.3287 2.90158 36.2936 2.96679 36.2654C3.07548 36.2162 3.19383 36.1904 3.32183 36.1904C3.44742 36.1904 3.56819 36.2186 3.67687 36.2654C3.74208 36.2959 3.80005 36.3287 3.8556 36.3733C3.87975 36.392 3.90149 36.4131 3.92323 36.4342L6.71762 39.1459L6.71523 39.1482ZM41.9125 23.8128C43.6104 23.7472 45.1441 23.0511 46.2696 21.9613C47.453 20.8128 48.1849 19.2284 48.1849 17.4776C48.1849 15.7268 47.453 14.1401 46.2696 12.994C45.0861 11.8456 43.4534 11.1354 41.6492 11.1354C39.845 11.1354 38.2099 11.8456 37.0288 12.994C35.9058 14.0839 35.1884 15.5698 35.1208 17.2151C35.0604 17.2339 34.9977 17.2456 34.9349 17.2503C34.7779 17.262 34.616 17.2315 34.4591 17.1565C34.1233 16.9948 33.7877 16.8472 33.4495 16.7112C33.1186 16.5776 32.7708 16.4511 32.4085 16.3339C32.2443 16.28 32.109 16.1933 32.0076 16.0784C31.9086 15.9659 31.8385 15.8206 31.8096 15.6542L31.7323 15.2229C31.7685 15.1925 31.7999 15.1597 31.8337 15.1245C32.0269 14.9229 32.1767 14.6792 32.2733 14.4026C32.3409 14.2105 32.4182 14.0112 32.5051 13.805C32.51 13.7909 32.5172 13.7769 32.522 13.7652C32.5993 13.587 32.6863 13.4042 32.7781 13.2214C32.9471 12.8909 33.0148 12.5417 32.9882 12.1972C32.9592 11.8503 32.836 11.5128 32.6187 11.2128L32.2926 10.7652C32.2081 10.6503 32.1743 10.5168 32.1863 10.3878C32.1984 10.2589 32.254 10.1324 32.3554 10.0339L33.9736 8.4683C34.075 8.36986 34.2055 8.31361 34.3359 8.30189C34.4711 8.29018 34.6088 8.32533 34.7272 8.40502L35.1885 8.71908C35.4976 8.93002 35.8454 9.05189 36.2028 9.07768C36.5579 9.10346 36.9177 9.03783 37.2583 8.87377C37.4515 8.78237 37.652 8.6933 37.8621 8.60893C38.0746 8.52455 38.2799 8.44721 38.478 8.38393C38.8378 8.26674 39.1421 8.06518 39.3764 7.80033C39.6107 7.53548 39.7677 7.21205 39.8329 6.85113L39.9295 6.30973C39.9537 6.1691 40.0261 6.05191 40.1251 5.96988C40.2266 5.88785 40.3594 5.83863 40.5067 5.83863L42.7915 5.84097C42.9365 5.84097 43.0693 5.89019 43.1707 5.97222C43.2698 6.05426 43.3398 6.17144 43.3664 6.31207L43.463 6.85113C43.5282 7.21207 43.6852 7.53549 43.9195 7.80033C44.1537 8.06518 44.458 8.2644 44.8179 8.38393C45.0159 8.44956 45.2212 8.52456 45.4338 8.60893C45.6439 8.6933 45.8444 8.78237 46.0376 8.87378C46.3781 9.03784 46.738 9.10346 47.093 9.07768C47.4505 9.04955 47.7983 8.93003 48.1074 8.71908L48.5687 8.40268C48.6871 8.32065 48.8247 8.28783 48.9576 8.29955C49.0904 8.31127 49.2208 8.36518 49.3223 8.46362L50.9356 10.0339C51.0371 10.1324 51.0951 10.2589 51.1071 10.3855C51.1192 10.5168 51.083 10.6503 51.0009 10.7652L50.6772 11.2128C50.4598 11.5128 50.3342 11.8503 50.3077 12.1972C50.2811 12.5417 50.3487 12.8909 50.5178 13.2214C50.6192 13.4183 50.711 13.6128 50.7907 13.805L50.7931 13.8073H50.7907C50.8777 14.0136 50.9574 14.2128 51.0226 14.405C51.1433 14.7542 51.3511 15.0495 51.624 15.2769C51.8969 15.5042 52.2302 15.6565 52.6021 15.7198L53.16 15.8136C53.305 15.837 53.4257 15.9073 53.5103 16.0034C53.5948 16.1019 53.6455 16.2308 53.6455 16.3737L53.6431 18.5909C53.6431 18.7315 53.5924 18.8604 53.5078 18.9589C53.4233 19.055 53.3025 19.1229 53.1576 19.1487L52.6021 19.2425C52.2302 19.3058 51.8969 19.4581 51.624 19.6854C51.3511 19.9128 51.1458 20.2081 51.0226 20.5573C50.9525 20.7589 50.8753 20.9581 50.7907 21.155H50.7883C50.7014 21.3589 50.6096 21.5534 50.5154 21.7409C50.3463 22.0714 50.2787 22.4206 50.3053 22.7651C50.3342 23.112 50.4574 23.4495 50.6748 23.7495L51.0008 24.1971C51.0854 24.312 51.1192 24.4455 51.1071 24.5745C51.095 24.7034 51.0395 24.8299 50.938 24.9284L49.3198 26.494C49.2184 26.5924 49.088 26.6487 48.9576 26.6604C48.8223 26.6721 48.6846 26.637 48.5663 26.5573L48.105 26.2432C47.7958 26.0323 47.448 25.9104 47.0906 25.8846C46.7356 25.8588 46.3757 25.9245 46.0352 26.0885C45.8419 26.1799 45.6415 26.269 45.4314 26.3534C45.4169 26.3581 45.4048 26.3651 45.3903 26.3698C45.2019 26.4448 45.0087 26.5151 44.8155 26.5784C44.5305 26.6721 44.2793 26.8174 44.0716 27.0049C44.0378 27.0354 44.004 27.0682 43.9726 27.101L43.5209 27.026C43.3495 26.9979 43.1997 26.9299 43.0838 26.8338C42.9654 26.7354 42.8736 26.6042 42.8205 26.4448C42.6973 26.0909 42.5669 25.7557 42.4317 25.4346C42.2916 25.1065 42.1394 24.7807 41.9728 24.4573C41.8955 24.3049 41.8641 24.1479 41.8762 23.9956C41.881 23.937 41.8931 23.8784 41.9124 23.8198L41.9125 23.8128ZM45.8976 27.9261C45.9652 27.9917 46.0328 28.0597 46.0932 28.13C46.5255 28.6292 46.7792 29.2714 46.7792 29.9675L46.7743 33.223C46.7743 33.9191 46.5183 34.5613 46.086 35.0581C45.6512 35.5574 45.0426 35.9113 44.3374 36.0285L43.5234 36.1644C43.352 36.1925 43.2022 36.2605 43.0863 36.3566C42.9679 36.455 42.8762 36.5863 42.823 36.7456C42.6998 37.0995 42.5694 37.4347 42.4318 37.7558C42.4245 37.7699 42.4197 37.7839 42.4124 37.798C42.2724 38.1214 42.125 38.4332 41.9729 38.7355C41.8956 38.8878 41.8642 39.0449 41.8763 39.1972C41.8883 39.3449 41.9439 39.4949 42.0453 39.6331L42.5235 40.2918C42.939 40.8636 43.1129 41.5293 43.0549 42.1785C42.9969 42.8253 42.7071 43.4558 42.1951 43.9503L39.8209 46.2495C39.3113 46.7417 38.664 47.0207 37.995 47.0769C37.3285 47.1331 36.6425 46.9644 36.0556 46.5612L35.3793 46.0995C35.2368 46.0034 35.0823 45.9472 34.9301 45.9355C34.7731 45.9237 34.6113 45.9542 34.4543 46.0292C34.1186 46.1909 33.7829 46.3386 33.4472 46.4745C33.4327 46.4816 33.4182 46.4862 33.4037 46.4909C33.0776 46.6222 32.7443 46.7417 32.4062 46.8519C32.242 46.9058 32.1067 46.9925 32.0053 47.1073C31.9062 47.2198 31.8362 47.3651 31.8072 47.5316L31.6647 48.3261C31.5415 49.0128 31.1768 49.6034 30.6624 50.0253C30.1479 50.4448 29.4862 50.6909 28.7689 50.6909L25.4141 50.6862C24.6967 50.6862 24.035 50.4378 23.523 50.0182C23.0085 49.5964 22.6438 49.0057 22.5231 48.3214L22.383 47.5315C22.354 47.3651 22.2839 47.2198 22.1849 47.1073C22.0835 46.9925 21.9482 46.9034 21.784 46.8519C21.4314 46.737 21.086 46.6105 20.7454 46.4722L20.743 46.4698V46.4722C20.4049 46.3362 20.0692 46.1886 19.7335 46.0269C19.5765 45.9519 19.4147 45.9214 19.2577 45.9331C19.1055 45.9448 18.9509 45.9987 18.8084 46.0972L18.1297 46.5612C17.5404 46.9644 16.8545 47.1331 16.1855 47.0769C15.5189 47.0206 14.8692 46.7394 14.3596 46.2425L11.9903 43.9386C11.4831 43.4441 11.1956 42.816 11.1377 42.1668C11.0797 41.5199 11.2536 40.8543 11.6691 40.2847L12.1449 39.6285C12.2439 39.4902 12.3018 39.3402 12.3139 39.1925C12.326 39.0402 12.2946 38.8832 12.2173 38.7308C12.0507 38.405 11.8985 38.0793 11.7584 37.7535C11.7512 37.7394 11.7463 37.7253 11.7415 37.7113C11.6063 37.3949 11.4831 37.0714 11.3696 36.7433C11.314 36.5839 11.2247 36.4527 11.1063 36.3542C10.9904 36.2581 10.8406 36.1902 10.6692 36.1621L9.85041 36.0238C9.14277 35.9042 8.53411 35.5503 8.09939 35.0511C7.66706 34.5519 7.41345 33.9097 7.41345 33.2136L7.41828 29.9581C7.41828 29.262 7.67429 28.6198 8.10663 28.123C8.54137 27.6237 9.15001 27.2698 9.85524 27.1526L10.6692 27.0167C10.8406 26.9886 10.9904 26.9206 11.1063 26.8245C11.2247 26.7261 11.3164 26.5948 11.3696 26.4355C11.4879 26.0933 11.6183 25.7581 11.7608 25.4276L11.7633 25.4253H11.7608C11.9009 25.0972 12.0531 24.7714 12.2197 24.448C12.297 24.2956 12.3284 24.1386 12.3163 23.9862C12.3043 23.8386 12.2487 23.6886 12.1473 23.5503L11.6691 22.8917C11.2536 22.3198 11.0798 21.6542 11.1377 21.005C11.1957 20.3581 11.4855 19.7276 11.9975 19.2331L14.3717 16.9339C14.8813 16.4417 15.5286 16.1628 16.1976 16.1066C16.8641 16.0503 17.5501 16.2191 18.137 16.6222L18.8133 17.0839C18.9558 17.18 19.1103 17.2363 19.2625 17.248C19.4195 17.2597 19.5813 17.2292 19.7383 17.1542C20.074 16.9925 20.4097 16.8449 20.7479 16.7089C20.7623 16.7019 20.7768 16.6972 20.7913 16.6925C21.1174 16.5613 21.4507 16.4417 21.7888 16.3316C21.9531 16.2777 22.0883 16.191 22.1898 16.0761C22.2888 15.9636 22.3588 15.8183 22.3878 15.6519L22.5303 14.8574C22.6535 14.1707 23.0182 13.58 23.5326 13.1582C24.0471 12.7387 24.7088 12.4925 25.4262 12.4925L28.7809 12.4972C29.4983 12.4972 30.16 12.7457 30.6721 13.1652C30.7445 13.2261 30.817 13.2894 30.8822 13.3551C30.9063 13.2941 30.9305 13.2355 30.957 13.1769C30.9643 13.1629 30.9691 13.1488 30.9764 13.1347C31.073 12.9121 31.172 12.6988 31.2759 12.4949C31.3073 12.434 31.3193 12.373 31.3145 12.3144C31.3097 12.2605 31.2879 12.2019 31.2469 12.148L30.9208 11.7004C30.5996 11.2598 30.4668 10.7441 30.5102 10.2426C30.5537 9.741 30.7783 9.25586 31.1744 8.87384L32.7926 7.3082C33.1863 6.92851 33.6862 6.71289 34.2031 6.66836C34.7175 6.62617 35.2465 6.75508 35.7005 7.0668L36.1618 7.38086C36.2198 7.4207 36.2778 7.4418 36.3333 7.44649C36.3937 7.45118 36.4565 7.43946 36.5193 7.40899C36.7536 7.29649 36.9878 7.19336 37.2221 7.09962C37.4491 7.00821 37.6931 6.91915 37.9491 6.83477C38.0143 6.81368 38.065 6.78086 38.1037 6.73867C38.1399 6.69649 38.1665 6.64258 38.1786 6.57461L38.2752 6.03321C38.3694 5.50352 38.6519 5.04651 39.0504 4.72071C39.449 4.39727 39.9586 4.20508 40.5117 4.20508L42.7965 4.20742C43.3496 4.20742 43.8616 4.39961 44.2577 4.72305C44.6562 5.04883 44.9388 5.50587 45.033 6.03321L45.1296 6.57227C45.1417 6.6379 45.1682 6.69415 45.2045 6.73634C45.2431 6.77853 45.2938 6.81368 45.359 6.83243C45.615 6.91681 45.859 7.00353 46.086 7.09493C46.3203 7.18868 46.5546 7.29181 46.7888 7.40665C46.8516 7.43712 46.9144 7.44884 46.9748 7.44415C47.0304 7.43947 47.0907 7.41837 47.1463 7.37852L47.6076 7.06212C48.0617 6.7504 48.593 6.62149 49.1099 6.66368C49.6267 6.70587 50.1267 6.92384 50.5203 7.3082L52.1337 8.87852C52.525 9.26056 52.7472 9.7457 52.7931 10.2472C52.8366 10.7465 52.7037 11.2597 52.3825 11.7004L52.0588 12.148C52.0178 12.2043 51.9961 12.2605 51.9912 12.3144C51.9864 12.373 51.9985 12.434 52.0299 12.4949C52.141 12.7105 52.2472 12.9379 52.3487 13.1769H52.3511C52.4453 13.3972 52.5371 13.634 52.624 13.8824C52.6457 13.9457 52.6796 13.9949 52.723 14.0324C52.7665 14.0676 52.8221 14.0933 52.8921 14.1051L53.45 14.1988C53.9959 14.2902 54.4668 14.5644 54.8025 14.9512C55.1358 15.3379 55.3339 15.8324 55.3339 16.3691L55.3315 18.5863C55.3315 19.123 55.1334 19.6199 54.8001 20.0043C54.4644 20.391 53.9934 20.6653 53.45 20.7566L52.8945 20.8504C52.8269 20.8621 52.7689 20.8879 52.7254 20.923C52.682 20.9605 52.6457 21.0098 52.6264 21.073C52.5443 21.3098 52.4525 21.5441 52.3535 21.7762L52.3511 21.7785H52.3535C52.2569 22.0059 52.1506 22.2332 52.0347 22.4605C52.0033 22.5215 51.9912 22.5824 51.996 22.641C52.0009 22.6949 52.0226 22.7535 52.0637 22.8074L52.3897 23.2551C52.7109 23.6957 52.8438 24.2113 52.8003 24.7129C52.7568 25.2145 52.5322 25.6996 52.1361 26.0816L50.5179 27.6472C50.1242 28.0269 49.6243 28.2426 49.1075 28.2871C48.593 28.3293 48.0641 28.2004 47.61 27.8887L47.1487 27.5746C47.0907 27.5347 47.0328 27.5137 46.9772 27.509C46.9168 27.5043 46.854 27.516 46.7912 27.5465C46.557 27.659 46.3227 27.7621 46.0884 27.8558C46.0739 27.8629 46.0594 27.8676 46.0425 27.8722C45.9966 27.891 45.9508 27.9074 45.9049 27.9261L45.8976 27.9261ZM27.0976 21.8793C29.8607 21.8793 32.3652 22.9668 34.1765 24.7246C35.9879 26.4824 37.1086 28.9106 37.1086 31.594C37.1086 34.2775 35.9879 36.7057 34.1765 38.4634C32.3651 40.2212 29.8629 41.3087 27.0976 41.3087C24.3323 41.3087 21.83 40.2212 20.0187 38.4634C18.2073 36.7056 17.0866 34.2775 17.0866 31.594C17.0866 28.9106 18.2073 26.4823 20.0187 24.7246C21.8301 22.9668 24.3323 21.8793 27.0976 21.8793ZM32.9835 25.8824C31.4764 24.4199 29.3969 23.5176 27.0976 23.5176C24.7983 23.5176 22.7188 24.4223 21.2117 25.8824C19.7046 27.3449 18.7748 29.3629 18.7748 31.5941C18.7748 33.8254 19.707 35.8433 21.2117 37.3058C22.7188 38.7683 24.7983 39.6707 27.0976 39.6707C29.3969 39.6707 31.4764 38.766 32.9835 37.3058C34.4906 35.8433 35.4205 33.8254 35.4205 31.5941C35.4205 29.3629 34.4882 27.3449 32.9835 25.8824ZM37.0314 17.9582C37.2826 17.7848 37.5773 17.7145 37.8623 17.7379C38.1473 17.7614 38.4251 17.8809 38.64 18.0918L41.0093 20.3957C41.2267 20.6066 41.3499 20.8762 41.374 21.1504C41.3982 21.427 41.3233 21.7129 41.147 21.959L40.6712 22.6153C40.3934 22.9997 40.234 23.4286 40.2002 23.8692C40.1664 24.3074 40.2533 24.7528 40.4683 25.1746C40.6132 25.4582 40.7509 25.7535 40.8813 26.0583C41.0117 26.3653 41.1301 26.6653 41.2315 26.9606C41.3861 27.4059 41.6493 27.7833 41.9972 28.0716C42.3449 28.3598 42.7676 28.5544 43.2434 28.6341L44.0621 28.7723C44.3689 28.8239 44.6297 28.9739 44.8108 29.1825C44.9944 29.3934 45.1031 29.67 45.1007 29.9723L45.0958 33.2278C45.0958 33.5278 44.9872 33.8044 44.8036 34.0153C44.6225 34.2239 44.3616 34.3739 44.0549 34.4255L43.241 34.5614C42.7652 34.6411 42.3401 34.8356 41.9923 35.1239C41.6469 35.4122 41.3837 35.7896 41.2267 36.2349C41.1252 36.5302 41.0069 36.8302 40.8765 37.1372C40.8716 37.1513 40.8644 37.1653 40.8596 37.1794C40.7388 37.4583 40.6084 37.7396 40.4635 38.0208C40.2485 38.4403 40.1591 38.888 40.1954 39.3263C40.2316 39.7692 40.3886 40.1981 40.6663 40.5801L41.1446 41.2388C41.3233 41.4825 41.3958 41.7684 41.3716 42.045C41.3474 42.3216 41.2243 42.5911 41.0069 42.7997L38.6328 45.0989C38.4154 45.3099 38.1376 45.4294 37.8551 45.4528C37.5701 45.4763 37.2754 45.4036 37.0218 45.2325L36.3455 44.7708C35.9494 44.5013 35.5074 44.3466 35.0534 44.3138C34.6017 44.2809 34.1428 44.3653 33.7081 44.5739C33.4158 44.7145 33.1115 44.8481 32.7975 44.9747C32.783 44.9794 32.7709 44.9864 32.7565 44.9911C32.4642 45.1083 32.1695 45.2138 31.8676 45.3122C31.4088 45.4622 31.0199 45.7177 30.7228 46.0528C30.4257 46.3903 30.2253 46.8005 30.1432 47.2622L30.0007 48.0567C29.9475 48.3544 29.7929 48.6075 29.578 48.7833C29.3606 48.9614 29.0756 49.0669 28.7641 49.0645L25.4093 49.0598C25.1002 49.0598 24.8152 48.9544 24.5978 48.7762C24.3828 48.6004 24.2283 48.3473 24.1751 48.0497L24.035 47.2598C23.9529 46.7981 23.7525 46.3857 23.4554 46.0481C23.1583 45.713 22.7694 45.4575 22.3105 45.3052C21.9966 45.202 21.685 45.0895 21.3807 44.9653V44.963C21.0667 44.8364 20.7648 44.7028 20.4725 44.5622C20.0402 44.3536 19.5789 44.2669 19.1272 44.302C18.6708 44.3372 18.2288 44.4895 17.8351 44.7591L17.1564 45.2231C16.9052 45.3966 16.6106 45.4669 16.3255 45.4435C16.0405 45.42 15.7628 45.3005 15.5478 45.0895L13.1785 42.7857C12.9612 42.5747 12.838 42.3052 12.8138 42.031C12.7897 41.7544 12.8646 41.4685 13.0409 41.2224L13.5167 40.5661C13.7944 40.1817 13.9538 39.7528 13.9876 39.3122C14.0214 38.8739 13.9345 38.4286 13.7195 38.0067C13.5746 37.7231 13.437 37.4278 13.3065 37.1231C13.3017 37.109 13.2945 37.0973 13.2896 37.0833C13.1689 36.7997 13.0602 36.5137 12.9587 36.2208C12.8042 35.7754 12.5409 35.3981 12.1955 35.1098C11.8477 34.8215 11.4251 34.627 10.9493 34.5473L10.1305 34.409C9.8238 34.3575 9.56295 34.2075 9.38183 33.9989C9.19828 33.7879 9.08959 33.5114 9.092 33.209L9.09683 29.9535C9.09683 29.6535 9.20552 29.377 9.38908 29.166C9.57022 28.9574 9.83106 28.8074 10.1378 28.7559L10.9517 28.62C11.4275 28.5403 11.8526 28.3457 12.2004 28.0575C12.5457 27.7692 12.809 27.3918 12.966 26.9465C13.0723 26.6418 13.1882 26.3395 13.3162 26.0442H13.3186C13.449 25.7395 13.5867 25.4465 13.7316 25.1629C13.9466 24.7433 14.0359 24.2957 13.9997 23.8574C13.9635 23.4144 13.8065 22.9855 13.5287 22.6035L13.0505 21.9449C12.8718 21.7011 12.7993 21.4152 12.8235 21.1386C12.8476 20.8621 12.9708 20.5925 13.1882 20.3839L15.5623 18.0847C15.7797 17.8738 16.0575 17.7543 16.34 17.7308C16.625 17.7074 16.9197 17.7801 17.1733 17.9511L17.8496 18.4129C18.2457 18.6824 18.6877 18.8371 19.1417 18.8699C19.5934 18.9027 20.0523 18.8183 20.487 18.6097C20.7793 18.4691 21.0836 18.3355 21.3976 18.209C21.4121 18.2043 21.4241 18.1972 21.4386 18.1926C21.7309 18.0754 22.0255 17.9699 22.3274 17.8715C22.7863 17.7215 23.1752 17.466 23.4723 17.1308C23.7694 16.7933 23.9698 16.3832 24.0519 15.9215L24.1944 15.1269C24.2476 14.8293 24.4021 14.5762 24.6171 14.4004C24.8345 14.2223 25.1195 14.1168 25.431 14.1191L28.7858 14.1238C29.0949 14.1238 29.3799 14.2293 29.5973 14.4074C29.8123 14.5832 29.9668 14.8363 30.02 15.134L30.1601 15.9238C30.2422 16.3855 30.4426 16.798 30.7397 17.1355C31.0368 17.4707 31.4256 17.7261 31.8845 17.8785C32.1889 17.9769 32.498 18.0918 32.8144 18.2183C33.1284 18.3449 33.4303 18.4785 33.725 18.6191C34.1573 18.8277 34.6186 18.9144 35.0703 18.8793C35.5267 18.8441 35.9687 18.6918 36.3624 18.4222L37.0411 17.9582L37.0314 17.9582Z" fill="url(#paint0_linear_294_3218)" stroke="url(#paint1_linear_294_3218)" stroke-width="2" mask="url(#path-1-inside-1_294_3218)"/>
</g>
<defs>
<linearGradient id="paint0_linear_294_3218" x1="-0.320312" y1="31.2014" x2="55.3339" y2="31.2014" gradientUnits="userSpaceOnUse">
<stop stop-color="#48AB77"/>
<stop offset="0.461536" stop-color="#EAB6AC"/>
<stop offset="1" stop-color="#B096CF"/>
</linearGradient>
<linearGradient id="paint1_linear_294_3218" x1="-0.320312" y1="31.2014" x2="55.3339" y2="31.2014" gradientUnits="userSpaceOnUse">
<stop stop-color="#48AB77"/>
<stop offset="0.461536" stop-color="#EAB6AC"/>
<stop offset="1" stop-color="#B096CF"/>
</linearGradient>
<clipPath id="clip0_294_3218">
<rect width="55" height="60" fill="white"/>
</clipPath>
</defs>
</svg>
